G04 #@! TF.GenerationSoftware,KiCad,Pcbnew,(5.1.5-0-10_14)*
G04 #@! TF.CreationDate,2020-04-11T18:37:10+09:00*
G04 #@! TF.ProjectId,hybohat,6879626f-6861-4742-9e6b-696361645f70,rev?*
G04 #@! TF.SameCoordinates,Original*
G04 #@! TF.FileFunction,Copper,L1,Top*
G04 #@! TF.FilePolarity,Positive*
%FSLAX46Y46*%
G04 Gerber Fmt 4.6, Leading zero omitted, Abs format (unit mm)*
G04 Created by KiCad (PCBNEW (5.1.5-0-10_14)) date 2020-04-11 18:37:10*
%MOMM*%
%LPD*%
G04 APERTURE LIST*
%ADD10O,1.700000X1.700000*%
%ADD11R,1.700000X1.700000*%
%ADD12C,5.000000*%
%ADD13C,3.810000*%
%ADD14R,3.300001X4.445000*%
%ADD15O,3.300001X4.445000*%
%ADD16R,2.100000X3.000000*%
%ADD17R,0.800000X1.600000*%
%ADD18C,0.800000*%
%ADD19C,1.016000*%
%ADD20C,0.635000*%
%ADD21C,1.270000*%
%ADD22C,0.304800*%
%ADD23C,0.250000*%
G04 APERTURE END LIST*
D10*
X123190000Y-99060000D03*
X123190000Y-101600000D03*
X125730000Y-99060000D03*
X125730000Y-101600000D03*
X128270000Y-99060000D03*
X128270000Y-101600000D03*
X130810000Y-99060000D03*
X130810000Y-101600000D03*
X133350000Y-99060000D03*
X133350000Y-101600000D03*
X135890000Y-99060000D03*
X135890000Y-101600000D03*
X138430000Y-99060000D03*
X138430000Y-101600000D03*
X140970000Y-99060000D03*
D11*
X140970000Y-101600000D03*
D12*
X107315000Y-35560000D03*
D13*
X78952540Y-60325000D03*
X136950000Y-83333000D03*
X136950000Y-60325000D03*
X136956800Y-111252000D03*
D10*
X82550000Y-99060000D03*
X82550000Y-101600000D03*
X85090000Y-99060000D03*
X85090000Y-101600000D03*
X87630000Y-99060000D03*
X87630000Y-101600000D03*
X90170000Y-99060000D03*
X90170000Y-101600000D03*
X92710000Y-99060000D03*
X92710000Y-101600000D03*
X95250000Y-99060000D03*
X95250000Y-101600000D03*
X97790000Y-99060000D03*
X97790000Y-101600000D03*
X100330000Y-99060000D03*
X100330000Y-101600000D03*
X102870000Y-99060000D03*
X102870000Y-101600000D03*
X105410000Y-99060000D03*
X105410000Y-101600000D03*
X107950000Y-99060000D03*
X107950000Y-101600000D03*
X110490000Y-99060000D03*
X110490000Y-101600000D03*
X113030000Y-99060000D03*
X113030000Y-101600000D03*
X115570000Y-99060000D03*
X115570000Y-101600000D03*
X118110000Y-99060000D03*
D11*
X118110000Y-101600000D03*
D13*
X102870000Y-68580000D03*
X78740000Y-54610000D03*
D14*
X213995000Y-38100000D03*
D15*
X222250000Y-38100000D03*
D10*
X198120000Y-40640000D03*
D11*
X198120000Y-38100000D03*
D10*
X195580000Y-40640000D03*
D11*
X195580000Y-38100000D03*
D10*
X190500000Y-40640000D03*
D11*
X190500000Y-38100000D03*
D10*
X193040000Y-40640000D03*
D11*
X193040000Y-38100000D03*
D10*
X200660000Y-40640000D03*
D11*
X200660000Y-38100000D03*
D13*
X153670000Y-53340000D03*
X78950000Y-83333000D03*
X155016200Y-101600000D03*
D12*
X234315000Y-35560000D03*
D10*
X79375000Y-127000000D03*
X81915000Y-127000000D03*
X84455000Y-127000000D03*
X86995000Y-127000000D03*
X89535000Y-127000000D03*
X92075000Y-127000000D03*
X94615000Y-127000000D03*
X97155000Y-127000000D03*
X99695000Y-127000000D03*
X102235000Y-127000000D03*
X104775000Y-127000000D03*
X107315000Y-127000000D03*
X109855000Y-127000000D03*
X112395000Y-127000000D03*
D11*
X114935000Y-127000000D03*
D10*
X138430000Y-42545000D03*
X138430000Y-40005000D03*
X135890000Y-42545000D03*
X135890000Y-40005000D03*
X133350000Y-42545000D03*
X133350000Y-40005000D03*
X130810000Y-42545000D03*
X130810000Y-40005000D03*
X128270000Y-42545000D03*
X128270000Y-40005000D03*
X125730000Y-42545000D03*
X125730000Y-40005000D03*
X123190000Y-42545000D03*
X123190000Y-40005000D03*
X120650000Y-42545000D03*
X120650000Y-40005000D03*
X118110000Y-42545000D03*
X118110000Y-40005000D03*
X115570000Y-42545000D03*
X115570000Y-40005000D03*
X113030000Y-42545000D03*
X113030000Y-40005000D03*
X110490000Y-42545000D03*
X110490000Y-40005000D03*
X107950000Y-42545000D03*
X107950000Y-40005000D03*
X105410000Y-42545000D03*
X105410000Y-40005000D03*
X102870000Y-42545000D03*
X102870000Y-40005000D03*
X100330000Y-42545000D03*
X100330000Y-40005000D03*
X97790000Y-42545000D03*
X97790000Y-40005000D03*
X95250000Y-42545000D03*
X95250000Y-40005000D03*
X92710000Y-42545000D03*
X92710000Y-40005000D03*
X90170000Y-42545000D03*
X90170000Y-40005000D03*
X87630000Y-42545000D03*
X87630000Y-40005000D03*
X85090000Y-42545000D03*
X85090000Y-40005000D03*
X82550000Y-42545000D03*
X82550000Y-40005000D03*
X80010000Y-42545000D03*
X80010000Y-40005000D03*
X77470000Y-42545000D03*
D11*
X77470000Y-40005000D03*
D10*
X166920000Y-137160000D03*
X164380000Y-137160000D03*
D11*
X161840000Y-137160000D03*
D10*
X189230000Y-137160000D03*
X186690000Y-137160000D03*
X184150000Y-137160000D03*
X181610000Y-137160000D03*
X179070000Y-137160000D03*
X176530000Y-137160000D03*
D11*
X173990000Y-137160000D03*
D10*
X201295000Y-137160000D03*
X198755000Y-137160000D03*
D11*
X196215000Y-137160000D03*
D10*
X212725000Y-137160000D03*
X210185000Y-137160000D03*
D11*
X207645000Y-137160000D03*
D16*
X229740000Y-139425000D03*
X215890000Y-139425000D03*
D17*
X223440000Y-136525000D03*
X225940000Y-136525000D03*
X227190000Y-136525000D03*
X224690000Y-136525000D03*
X220940000Y-136525000D03*
X222190000Y-136525000D03*
X218440000Y-136525000D03*
X219690000Y-136525000D03*
D10*
X218440000Y-127000000D03*
X218440000Y-124460000D03*
X220980000Y-127000000D03*
X220980000Y-124460000D03*
X223520000Y-127000000D03*
X223520000Y-124460000D03*
X226060000Y-127000000D03*
X226060000Y-124460000D03*
X228600000Y-127000000D03*
X228600000Y-124460000D03*
X231140000Y-127000000D03*
X231140000Y-124460000D03*
X233680000Y-127000000D03*
X233680000Y-124460000D03*
X236220000Y-127000000D03*
D11*
X236220000Y-124460000D03*
D10*
X214630000Y-88900000D03*
X212090000Y-88900000D03*
X214630000Y-86360000D03*
X212090000Y-86360000D03*
X214630000Y-83820000D03*
X212090000Y-83820000D03*
X214630000Y-81280000D03*
D11*
X212090000Y-81280000D03*
D10*
X229870000Y-111760000D03*
X227330000Y-111760000D03*
X229870000Y-109220000D03*
X227330000Y-109220000D03*
X229870000Y-106680000D03*
X227330000Y-106680000D03*
X229870000Y-104140000D03*
D11*
X227330000Y-104140000D03*
D10*
X214630000Y-60960000D03*
X212090000Y-60960000D03*
X214630000Y-58420000D03*
X212090000Y-58420000D03*
X214630000Y-55880000D03*
X212090000Y-55880000D03*
X214630000Y-53340000D03*
D11*
X212090000Y-53340000D03*
D10*
X229870000Y-99060000D03*
X227330000Y-99060000D03*
X229870000Y-96520000D03*
X227330000Y-96520000D03*
X229870000Y-93980000D03*
X227330000Y-93980000D03*
X229870000Y-91440000D03*
X227330000Y-91440000D03*
X229870000Y-88900000D03*
X227330000Y-88900000D03*
X229870000Y-86360000D03*
X227330000Y-86360000D03*
X229870000Y-83820000D03*
X227330000Y-83820000D03*
X229870000Y-81280000D03*
D11*
X227330000Y-81280000D03*
D10*
X229870000Y-76200000D03*
X227330000Y-76200000D03*
X229870000Y-73660000D03*
X227330000Y-73660000D03*
X229870000Y-71120000D03*
X227330000Y-71120000D03*
X229870000Y-68580000D03*
X227330000Y-68580000D03*
X229870000Y-66040000D03*
X227330000Y-66040000D03*
X229870000Y-63500000D03*
X227330000Y-63500000D03*
X229870000Y-60960000D03*
X227330000Y-60960000D03*
X229870000Y-58420000D03*
X227330000Y-58420000D03*
X229870000Y-55880000D03*
X227330000Y-55880000D03*
X229870000Y-53340000D03*
D11*
X227330000Y-53340000D03*
D10*
X193040000Y-99060000D03*
X190500000Y-99060000D03*
X193040000Y-96520000D03*
X190500000Y-96520000D03*
X193040000Y-93980000D03*
X190500000Y-93980000D03*
X193040000Y-91440000D03*
X190500000Y-91440000D03*
X193040000Y-88900000D03*
X190500000Y-88900000D03*
X193040000Y-86360000D03*
X190500000Y-86360000D03*
X193040000Y-83820000D03*
X190500000Y-83820000D03*
X193040000Y-81280000D03*
D11*
X190500000Y-81280000D03*
D10*
X193040000Y-76200000D03*
X190500000Y-76200000D03*
X193040000Y-73660000D03*
X190500000Y-73660000D03*
X193040000Y-71120000D03*
X190500000Y-71120000D03*
X193040000Y-68580000D03*
X190500000Y-68580000D03*
X193040000Y-66040000D03*
X190500000Y-66040000D03*
X193040000Y-63500000D03*
X190500000Y-63500000D03*
X193040000Y-60960000D03*
X190500000Y-60960000D03*
X193040000Y-58420000D03*
X190500000Y-58420000D03*
X193040000Y-55880000D03*
X190500000Y-55880000D03*
X193040000Y-53340000D03*
X190500000Y-53340000D03*
X193040000Y-50800000D03*
X190500000Y-50800000D03*
X193040000Y-48260000D03*
D11*
X190500000Y-48260000D03*
D10*
X77470000Y-132080000D03*
X80010000Y-132080000D03*
X82550000Y-132080000D03*
X85090000Y-132080000D03*
X87630000Y-132080000D03*
X90170000Y-132080000D03*
X92710000Y-132080000D03*
X95250000Y-132080000D03*
X97790000Y-132080000D03*
X100330000Y-132080000D03*
X102870000Y-132080000D03*
X105410000Y-132080000D03*
X107950000Y-132080000D03*
X110490000Y-132080000D03*
X113030000Y-132080000D03*
X115570000Y-132080000D03*
X118110000Y-132080000D03*
X120650000Y-132080000D03*
D11*
X123190000Y-132080000D03*
D10*
X77470000Y-106680000D03*
X80010000Y-106680000D03*
X82550000Y-106680000D03*
X85090000Y-106680000D03*
X87630000Y-106680000D03*
X90170000Y-106680000D03*
X92710000Y-106680000D03*
X95250000Y-106680000D03*
X97790000Y-106680000D03*
X100330000Y-106680000D03*
X102870000Y-106680000D03*
X105410000Y-106680000D03*
X107950000Y-106680000D03*
X110490000Y-106680000D03*
X113030000Y-106680000D03*
X115570000Y-106680000D03*
X118110000Y-106680000D03*
X120650000Y-106680000D03*
D11*
X123190000Y-106680000D03*
D10*
X132080000Y-61595000D03*
X132080000Y-59055000D03*
X129540000Y-61595000D03*
X129540000Y-59055000D03*
X127000000Y-61595000D03*
X127000000Y-59055000D03*
X124460000Y-61595000D03*
X124460000Y-59055000D03*
X121920000Y-61595000D03*
X121920000Y-59055000D03*
X119380000Y-61595000D03*
X119380000Y-59055000D03*
X116840000Y-61595000D03*
X116840000Y-59055000D03*
X114300000Y-61595000D03*
X114300000Y-59055000D03*
X111760000Y-61595000D03*
X111760000Y-59055000D03*
X109220000Y-61595000D03*
X109220000Y-59055000D03*
X106680000Y-61595000D03*
X106680000Y-59055000D03*
X104140000Y-61595000D03*
X104140000Y-59055000D03*
X101600000Y-61595000D03*
X101600000Y-59055000D03*
X99060000Y-61595000D03*
X99060000Y-59055000D03*
X96520000Y-61595000D03*
X96520000Y-59055000D03*
X93980000Y-61595000D03*
X93980000Y-59055000D03*
X91440000Y-61595000D03*
X91440000Y-59055000D03*
X88900000Y-61595000D03*
X88900000Y-59055000D03*
X86360000Y-61595000D03*
X86360000Y-59055000D03*
X83820000Y-61595000D03*
D11*
X83820000Y-59055000D03*
D10*
X79375000Y-111760000D03*
X81915000Y-111760000D03*
X84455000Y-111760000D03*
X86995000Y-111760000D03*
X89535000Y-111760000D03*
X92075000Y-111760000D03*
X94615000Y-111760000D03*
X97155000Y-111760000D03*
X99695000Y-111760000D03*
X102235000Y-111760000D03*
X104775000Y-111760000D03*
X107315000Y-111760000D03*
X109855000Y-111760000D03*
X112395000Y-111760000D03*
D11*
X114935000Y-111760000D03*
D10*
X138430000Y-93345000D03*
X138430000Y-90805000D03*
X135890000Y-93345000D03*
X135890000Y-90805000D03*
X133350000Y-93345000D03*
X133350000Y-90805000D03*
X130810000Y-93345000D03*
X130810000Y-90805000D03*
X128270000Y-93345000D03*
X128270000Y-90805000D03*
X125730000Y-93345000D03*
X125730000Y-90805000D03*
X123190000Y-93345000D03*
X123190000Y-90805000D03*
X120650000Y-93345000D03*
X120650000Y-90805000D03*
X118110000Y-93345000D03*
X118110000Y-90805000D03*
X115570000Y-93345000D03*
X115570000Y-90805000D03*
X113030000Y-93345000D03*
X113030000Y-90805000D03*
X110490000Y-93345000D03*
X110490000Y-90805000D03*
X107950000Y-93345000D03*
X107950000Y-90805000D03*
X105410000Y-93345000D03*
X105410000Y-90805000D03*
X102870000Y-93345000D03*
X102870000Y-90805000D03*
X100330000Y-93345000D03*
X100330000Y-90805000D03*
X97790000Y-93345000D03*
X97790000Y-90805000D03*
X95250000Y-93345000D03*
X95250000Y-90805000D03*
X92710000Y-93345000D03*
X92710000Y-90805000D03*
X90170000Y-93345000D03*
X90170000Y-90805000D03*
X87630000Y-93345000D03*
X87630000Y-90805000D03*
X85090000Y-93345000D03*
X85090000Y-90805000D03*
X82550000Y-93345000D03*
X82550000Y-90805000D03*
X80010000Y-93345000D03*
X80010000Y-90805000D03*
X77470000Y-93345000D03*
D11*
X77470000Y-90805000D03*
D12*
X107315000Y-137795000D03*
X234315000Y-137795000D03*
D10*
X127270623Y-53321652D03*
X127270623Y-55861652D03*
X129810623Y-53321652D03*
X129810623Y-55861652D03*
X132350623Y-53321652D03*
X132350623Y-55861652D03*
X134890623Y-53321652D03*
X134890623Y-55861652D03*
X137430623Y-53321652D03*
X137430623Y-55861652D03*
X139970623Y-53321652D03*
X139970623Y-55861652D03*
X142510623Y-53321652D03*
X142510623Y-55861652D03*
X145050623Y-53321652D03*
X145050623Y-55861652D03*
X147590623Y-53321652D03*
X147590623Y-55861652D03*
X150130623Y-53321652D03*
D11*
X150130623Y-55861652D03*
D10*
X82550000Y-53340000D03*
X82550000Y-55880000D03*
X85090000Y-53340000D03*
X85090000Y-55880000D03*
X87630000Y-53340000D03*
X87630000Y-55880000D03*
X90170000Y-53340000D03*
X90170000Y-55880000D03*
X92710000Y-53340000D03*
X92710000Y-55880000D03*
X95250000Y-53340000D03*
X95250000Y-55880000D03*
X97790000Y-53340000D03*
X97790000Y-55880000D03*
X100330000Y-53340000D03*
X100330000Y-55880000D03*
X102870000Y-53340000D03*
X102870000Y-55880000D03*
X105410000Y-53340000D03*
X105410000Y-55880000D03*
X107950000Y-53340000D03*
X107950000Y-55880000D03*
X110490000Y-53340000D03*
X110490000Y-55880000D03*
X113030000Y-53340000D03*
X113030000Y-55880000D03*
X115570000Y-53340000D03*
X115570000Y-55880000D03*
X118110000Y-53340000D03*
X118110000Y-55880000D03*
X120650000Y-53340000D03*
X120650000Y-55880000D03*
X123190000Y-53340000D03*
D11*
X123190000Y-55880000D03*
D13*
X110155001Y-79040001D03*
D18*
X215900000Y-135255000D03*
D19*
X96455601Y-47689399D03*
X101535601Y-47689399D03*
X108585000Y-47625000D03*
X130175000Y-47625000D03*
X153670000Y-64770000D03*
X153670000Y-60325000D03*
X132080000Y-106045000D03*
D18*
X233680000Y-55880000D03*
X233680000Y-60960000D03*
X233680000Y-66040000D03*
X233680000Y-71120000D03*
X233680000Y-76200000D03*
X233680000Y-83820000D03*
X233680000Y-88900000D03*
X233680000Y-93980000D03*
X233680000Y-99060000D03*
X233680000Y-106680000D03*
X233680000Y-111760000D03*
D19*
X201295000Y-128905000D03*
X139700000Y-128905000D03*
D18*
X236220000Y-53340000D03*
X236220000Y-58420000D03*
X236220000Y-63500000D03*
X236220000Y-68580000D03*
X236220000Y-73660000D03*
X236220000Y-81280000D03*
X236220000Y-86360000D03*
X236220000Y-91440000D03*
X236220000Y-96520000D03*
X236220000Y-104140000D03*
X236220000Y-109220000D03*
D19*
X196215000Y-127000000D03*
X139700000Y-127000000D03*
D18*
X210185000Y-83820000D03*
X210185000Y-81280000D03*
D19*
X145415000Y-76835000D03*
X147320000Y-76835004D03*
X145415000Y-90170000D03*
D18*
X207645000Y-101600000D03*
X208915000Y-102870000D03*
D19*
X147320000Y-50800000D03*
D18*
X208280000Y-52070000D03*
D19*
X123190000Y-88900000D03*
X158750000Y-97790000D03*
X160020000Y-100330000D03*
X109855000Y-86360000D03*
X116840000Y-81915000D03*
X130810000Y-73660000D03*
X128905000Y-74930000D03*
X128905000Y-69850000D03*
X130810000Y-71120000D03*
X82550000Y-73025000D03*
X81280000Y-75565000D03*
X117475000Y-84455000D03*
X83185000Y-81280000D03*
X97790000Y-74295000D03*
X91440000Y-50165000D03*
X88265000Y-50165000D03*
X134620000Y-128905000D03*
X133350000Y-127000000D03*
X145415000Y-100330000D03*
X125095000Y-55880000D03*
X144780000Y-49530000D03*
X212725000Y-132715000D03*
X83820000Y-66675000D03*
D18*
X229870000Y-131445000D03*
D19*
X207645000Y-130810000D03*
X85090000Y-65405000D03*
D18*
X231140000Y-130810000D03*
X205105000Y-48260000D03*
D19*
X92075000Y-70485000D03*
D18*
X206375000Y-81280000D03*
X206375000Y-91440000D03*
X206375000Y-68580000D03*
X206375000Y-58420000D03*
D19*
X90805000Y-121285000D03*
X181610000Y-120650000D03*
D18*
X206375000Y-120650000D03*
X202565000Y-99060000D03*
X202565000Y-88900000D03*
X202565000Y-76200000D03*
X202565000Y-66040000D03*
X202565000Y-55880000D03*
D19*
X186690000Y-114935000D03*
D18*
X202565000Y-114935000D03*
D19*
X125095000Y-114935000D03*
X92075000Y-66675000D03*
D18*
X203835000Y-86360000D03*
X203835000Y-53340000D03*
X203835000Y-63500000D03*
X203835000Y-73660000D03*
X203835000Y-96520000D03*
D19*
X106045000Y-118745000D03*
X176530000Y-116840000D03*
D18*
X203835000Y-116840000D03*
D19*
X102235000Y-122555000D03*
D18*
X161925000Y-122555000D03*
D19*
X121285000Y-114935000D03*
D18*
X220980000Y-81280000D03*
X220980000Y-58420000D03*
X220980000Y-53340000D03*
X220980000Y-86360000D03*
D19*
X100330000Y-77470000D03*
X87630000Y-77470000D03*
X102235000Y-124460000D03*
D18*
X167005000Y-124460000D03*
X218440000Y-83820000D03*
X218440000Y-60960000D03*
X218440000Y-55880000D03*
X218440000Y-88900000D03*
D19*
X83820000Y-70485000D03*
D18*
X205105000Y-93980000D03*
X205105000Y-83820000D03*
X205105000Y-71120000D03*
X205105000Y-60960000D03*
X205105000Y-50800000D03*
D19*
X103505000Y-120015000D03*
D18*
X205105000Y-118745000D03*
D19*
X179070000Y-118745000D03*
X184150000Y-118745000D03*
X120650000Y-87630000D03*
X116840000Y-88265000D03*
X143510000Y-76835000D03*
X87630000Y-80010000D03*
X88900000Y-78740000D03*
X88900000Y-71755000D03*
D20*
X230505000Y-139700000D02*
X229870000Y-140335000D01*
D21*
X215890000Y-140060000D02*
X229510000Y-140060000D01*
X229510000Y-140060000D02*
X229785000Y-140335000D01*
D22*
X97790000Y-53340000D02*
X96940001Y-52490001D01*
X96940001Y-52490001D02*
X96455601Y-52005601D01*
X102870000Y-55880000D02*
X102020001Y-55030001D01*
X102020001Y-55030001D02*
X101535601Y-54545601D01*
X96455601Y-52005601D02*
X96455601Y-47689399D01*
X101535601Y-54545601D02*
X101535601Y-47689399D01*
D21*
X142510623Y-53321652D02*
X142510623Y-52340623D01*
X142510623Y-52340623D02*
X140970000Y-50800000D01*
X140970000Y-50800000D02*
X137160000Y-50800000D01*
X137160000Y-50800000D02*
X135890000Y-49530000D01*
X135890000Y-49530000D02*
X133985000Y-47625000D01*
X133985000Y-47625000D02*
X130175000Y-47625000D01*
X125730000Y-101600000D02*
X128270000Y-101600000D01*
X210185000Y-139065000D02*
X210185000Y-137160000D01*
X215890000Y-140060000D02*
X211180000Y-140060000D01*
X211180000Y-140060000D02*
X210185000Y-139065000D01*
D22*
X110490000Y-49530000D02*
X108585000Y-47625000D01*
X114300000Y-49530000D02*
X110490000Y-49530000D01*
X116840000Y-54610000D02*
X116840000Y-52070000D01*
X116840000Y-52070000D02*
X114300000Y-49530000D01*
X118110000Y-55880000D02*
X116840000Y-54610000D01*
D21*
X153670000Y-60325000D02*
X153670000Y-53340000D01*
X153670000Y-60325000D02*
X153670000Y-85420200D01*
X153466800Y-85217000D02*
X153670000Y-85420200D01*
X143383000Y-85217000D02*
X153466800Y-85217000D01*
X142113000Y-85217000D02*
X143383000Y-85217000D01*
X138430000Y-90805000D02*
X141605000Y-90805000D01*
X141605000Y-93345000D02*
X141605000Y-90805000D01*
X138430000Y-93345000D02*
X141605000Y-93345000D01*
X136950000Y-83333000D02*
X137308000Y-83333000D01*
X139192000Y-85217000D02*
X142113000Y-85217000D01*
X137308000Y-83333000D02*
X139192000Y-85217000D01*
X141605000Y-90805000D02*
X141605000Y-85217000D01*
X145364200Y-111252000D02*
X154940000Y-101676200D01*
X137287000Y-111252000D02*
X145364200Y-111252000D01*
X154940000Y-101676200D02*
X155016200Y-101600000D01*
X128270000Y-102235000D02*
X137287000Y-111252000D01*
X128270000Y-101600000D02*
X128270000Y-102235000D01*
D22*
X233680000Y-124460000D02*
X233680000Y-55880000D01*
X201295000Y-137160000D02*
X201295000Y-128905000D01*
X101600000Y-74295000D02*
X93980000Y-66675000D01*
X101600000Y-81280000D02*
X101600000Y-74295000D01*
X93980000Y-66675000D02*
X93980000Y-61595000D01*
X109220000Y-88900000D02*
X101600000Y-81280000D01*
X109220000Y-103505000D02*
X109220000Y-88900000D01*
X111125000Y-109855000D02*
X111760000Y-109220000D01*
X111760000Y-106045000D02*
X109220000Y-103505000D01*
X112395000Y-123816870D02*
X111125000Y-122546870D01*
X111760000Y-109220000D02*
X111760000Y-106045000D01*
X111125000Y-122546870D02*
X111125000Y-109855000D01*
X112395000Y-127000000D02*
X112395000Y-123816870D01*
X236220000Y-124460000D02*
X236220000Y-53340000D01*
X196215000Y-137160000D02*
X196215000Y-127000000D01*
X102870000Y-73660000D02*
X95250000Y-66040000D01*
X95250000Y-66040000D02*
X95250000Y-60960000D01*
X102870000Y-80645000D02*
X102870000Y-73660000D01*
X111760000Y-89535000D02*
X102870000Y-80645000D01*
X114300000Y-109220000D02*
X114300000Y-105410000D01*
X114300000Y-105410000D02*
X111760000Y-102870000D01*
X113665000Y-109855000D02*
X114300000Y-109220000D01*
X113665000Y-122546870D02*
X113665000Y-109855000D01*
X114935000Y-123816870D02*
X113665000Y-122546870D01*
X111760000Y-102870000D02*
X111760000Y-89535000D01*
X114935000Y-127000000D02*
X114935000Y-123816870D01*
X95250000Y-60960000D02*
X94615000Y-60325000D01*
X94615000Y-60325000D02*
X92710000Y-60325000D01*
X92710000Y-60325000D02*
X91440000Y-61595000D01*
X223520000Y-128397000D02*
X223520000Y-127000000D01*
X232410000Y-125730000D02*
X233680000Y-127000000D01*
X227330000Y-125730000D02*
X232410000Y-125730000D01*
X226060000Y-127000000D02*
X227330000Y-125730000D01*
X224790000Y-125730000D02*
X226060000Y-127000000D01*
X219710000Y-125730000D02*
X224790000Y-125730000D01*
X218440000Y-127000000D02*
X219710000Y-125730000D01*
X223440000Y-134700000D02*
X231140000Y-127000000D01*
D23*
X210185000Y-81280000D02*
X210185000Y-83820000D01*
D22*
X137795000Y-45085000D02*
X134620000Y-45085000D01*
X143756819Y-51046819D02*
X137795000Y-45085000D01*
X143756819Y-58031819D02*
X143756819Y-51046819D01*
X145922999Y-76327001D02*
X145922999Y-60197999D01*
X133350000Y-43815000D02*
X133350000Y-42545000D01*
X134620000Y-45085000D02*
X133350000Y-43815000D01*
X145922999Y-60197999D02*
X143756819Y-58031819D01*
X145415000Y-76835000D02*
X145922999Y-76327001D01*
D23*
X207645000Y-62865000D02*
X212090000Y-58420000D01*
X207645000Y-101600000D02*
X207645000Y-62865000D01*
X208915000Y-64135000D02*
X212090000Y-60960000D01*
X208915000Y-102870000D02*
X208915000Y-64135000D01*
D22*
X149860000Y-53340000D02*
X150114000Y-53340000D01*
X147320000Y-50800000D02*
X149860000Y-53340000D01*
D23*
X208280000Y-54610000D02*
X208280000Y-52070000D01*
X209550000Y-55880000D02*
X208280000Y-54610000D01*
X212090000Y-55880000D02*
X209550000Y-55880000D01*
D22*
X123190000Y-88900000D02*
X123825000Y-88265000D01*
X126365000Y-88265000D02*
X127000000Y-88900000D01*
X127000000Y-88900000D02*
X127000000Y-92075000D01*
X127000000Y-92075000D02*
X125730000Y-93345000D01*
X123825000Y-88265000D02*
X126365000Y-88265000D01*
X113030000Y-96520000D02*
X113030000Y-99161600D01*
X114300000Y-95250000D02*
X113030000Y-96520000D01*
X114300000Y-90170000D02*
X114300000Y-95250000D01*
X110490000Y-86360000D02*
X114300000Y-90170000D01*
X109855000Y-86360000D02*
X110490000Y-86360000D01*
X115570000Y-99060000D02*
X115570000Y-99161600D01*
X119380000Y-88265000D02*
X119380000Y-95250000D01*
X115570000Y-84455000D02*
X119380000Y-88265000D01*
X115570000Y-83185000D02*
X115570000Y-84455000D01*
X119380000Y-95250000D02*
X115570000Y-99060000D01*
X116840000Y-81915000D02*
X115570000Y-83185000D01*
X130810000Y-95885000D02*
X130810000Y-99060000D01*
X132080000Y-94615000D02*
X130810000Y-95885000D01*
X132080000Y-88900000D02*
X132080000Y-94615000D01*
X130810000Y-87630000D02*
X132080000Y-88900000D01*
X130810000Y-73660000D02*
X130810000Y-87630000D01*
X128270000Y-95885000D02*
X128270000Y-99060000D01*
X129540000Y-94615000D02*
X128270000Y-95885000D01*
X129540000Y-75565000D02*
X129540000Y-94615000D01*
X128905000Y-74930000D02*
X129540000Y-75565000D01*
X135890000Y-96520000D02*
X135890000Y-99060000D01*
X137160000Y-95250000D02*
X135890000Y-96520000D01*
X137160000Y-88900000D02*
X137160000Y-95250000D01*
X133350000Y-85090000D02*
X137160000Y-88900000D01*
X133350000Y-71120000D02*
X133350000Y-85090000D01*
X131445000Y-69215000D02*
X133350000Y-71120000D01*
X129540000Y-69215000D02*
X131445000Y-69215000D01*
X128905000Y-69850000D02*
X129540000Y-69215000D01*
X133350000Y-95885000D02*
X133350000Y-99060000D01*
X134620000Y-94615000D02*
X133350000Y-95885000D01*
X134620000Y-88900000D02*
X134620000Y-94615000D01*
X132080000Y-86360000D02*
X134620000Y-88900000D01*
X132080000Y-72390000D02*
X132080000Y-86360000D01*
X130810000Y-71120000D02*
X132080000Y-72390000D01*
X83884399Y-54545601D02*
X85090000Y-53340000D01*
X83820000Y-56515000D02*
X83820000Y-54610000D01*
X83185000Y-57150000D02*
X83820000Y-56515000D01*
X81915000Y-57785000D02*
X82550000Y-57150000D01*
X82550000Y-57150000D02*
X83185000Y-57150000D01*
X81915000Y-72390000D02*
X81915000Y-57785000D01*
X82550000Y-73025000D02*
X81915000Y-72390000D01*
X81280000Y-54610000D02*
X82550000Y-53340000D01*
X81280000Y-75565000D02*
X81280000Y-54610000D01*
X109220000Y-41275000D02*
X110490000Y-42545000D01*
X107315000Y-41275000D02*
X109220000Y-41275000D01*
X106680000Y-41910000D02*
X107315000Y-41275000D01*
X106680000Y-43815000D02*
X106680000Y-41910000D01*
X111125000Y-48260000D02*
X106680000Y-43815000D01*
X115570000Y-48260000D02*
X111125000Y-48260000D01*
X119380000Y-57150000D02*
X119380000Y-52070000D01*
X118110000Y-58420000D02*
X119380000Y-57150000D01*
X119380000Y-52070000D02*
X115570000Y-48260000D01*
X118110000Y-83820000D02*
X118110000Y-58420000D01*
X117475000Y-84455000D02*
X118110000Y-83820000D01*
X82550000Y-99060000D02*
X82550000Y-99161600D01*
X81280000Y-88646000D02*
X83185000Y-86741000D01*
X81280000Y-97790000D02*
X81280000Y-88646000D01*
X83185000Y-86741000D02*
X83185000Y-81280000D01*
X82550000Y-99060000D02*
X81280000Y-97790000D01*
X87630000Y-99060000D02*
X87630000Y-99161600D01*
X102870000Y-99161600D02*
X102870000Y-99060000D01*
X102870000Y-96520000D02*
X102870000Y-99060000D01*
X101600000Y-88900000D02*
X101600000Y-95250000D01*
X97790000Y-74295000D02*
X97790000Y-85090000D01*
X97790000Y-85090000D02*
X101600000Y-88900000D01*
X101600000Y-95250000D02*
X102870000Y-96520000D01*
D21*
X123190000Y-103187500D02*
X123190000Y-101600000D01*
X134937500Y-114935000D02*
X123190000Y-103187500D01*
X151765000Y-114935000D02*
X134937500Y-114935000D01*
X181610000Y-85090000D02*
X151765000Y-114935000D01*
X195580000Y-40640000D02*
X195580000Y-41910000D01*
X181610000Y-45085000D02*
X181610000Y-85090000D01*
X194945000Y-42545000D02*
X184150000Y-42545000D01*
X184150000Y-42545000D02*
X181610000Y-45085000D01*
X195580000Y-41910000D02*
X194945000Y-42545000D01*
D22*
X88900000Y-52705000D02*
X88900000Y-56515000D01*
X91440000Y-50165000D02*
X88900000Y-52705000D01*
X86360000Y-61595000D02*
X87630000Y-60325000D01*
X87630000Y-60325000D02*
X87630000Y-57785000D01*
X87630000Y-57785000D02*
X88900000Y-56515000D01*
X86360000Y-52070000D02*
X88265000Y-50165000D01*
X85090000Y-57785000D02*
X86360000Y-56515000D01*
X82633434Y-57785000D02*
X85090000Y-57785000D01*
X82550000Y-57868434D02*
X82633434Y-57785000D01*
X86360000Y-56515000D02*
X86360000Y-52070000D01*
X82550000Y-60325000D02*
X82550000Y-57868434D01*
X83820000Y-61595000D02*
X82550000Y-60325000D01*
D20*
X217170000Y-136525000D02*
X215900000Y-135255000D01*
X218440000Y-136525000D02*
X217170000Y-136525000D01*
D21*
X138430000Y-42545000D02*
X138430000Y-40005000D01*
X142875000Y-42545000D02*
X138430000Y-42545000D01*
X153670000Y-53340000D02*
X142875000Y-42545000D01*
X153670000Y-100330000D02*
X154940000Y-101600000D01*
X154940000Y-101600000D02*
X155016200Y-101600000D01*
X153670000Y-85420200D02*
X153670000Y-100330000D01*
X232410000Y-139700000D02*
X234315000Y-137795000D01*
X232050000Y-140060000D02*
X232410000Y-139700000D01*
X229740000Y-140060000D02*
X232050000Y-140060000D01*
D20*
X229235000Y-136525000D02*
X227330000Y-136525000D01*
X229870000Y-137160000D02*
X229235000Y-136525000D01*
X229870000Y-139700000D02*
X229870000Y-137160000D01*
D22*
X139700000Y-128905000D02*
X134620000Y-128905000D01*
X139700000Y-127000000D02*
X133350000Y-127000000D01*
X223520000Y-128905000D02*
X223520000Y-128397000D01*
X219690000Y-132735000D02*
X223520000Y-128905000D01*
X219690000Y-136505000D02*
X219690000Y-132735000D01*
X219710000Y-136525000D02*
X219690000Y-136505000D01*
X220980000Y-127000000D02*
X223520000Y-127000000D01*
X227330000Y-128270000D02*
X228600000Y-127000000D01*
X227330000Y-128905000D02*
X227330000Y-128270000D01*
X222190000Y-134045000D02*
X227330000Y-128905000D01*
X222190000Y-136525000D02*
X222190000Y-134045000D01*
X226060000Y-128270000D02*
X226060000Y-127000000D01*
X220940000Y-133390000D02*
X226060000Y-128270000D01*
X220940000Y-136525000D02*
X220940000Y-133390000D01*
X223440000Y-136525000D02*
X223440000Y-134700000D01*
X146685000Y-59055000D02*
X146685000Y-76200004D01*
X146304000Y-58674000D02*
X146685000Y-59055000D01*
X146304000Y-49149000D02*
X146304000Y-58674000D01*
X135255000Y-44450000D02*
X141605000Y-44450000D01*
X133985000Y-41275000D02*
X134620000Y-41910000D01*
X134620000Y-43815000D02*
X135255000Y-44450000D01*
X134620000Y-41910000D02*
X134620000Y-43815000D01*
X146685000Y-76200004D02*
X147320000Y-76835004D01*
X141605000Y-44450000D02*
X146304000Y-49149000D01*
X132080000Y-41275000D02*
X133985000Y-41275000D01*
X130810000Y-40005000D02*
X132080000Y-41275000D01*
X145415000Y-90170000D02*
X145415000Y-100330000D01*
X158750000Y-53975000D02*
X142875000Y-38100000D01*
X114935000Y-38100000D02*
X113030000Y-40005000D01*
X142875000Y-38100000D02*
X114935000Y-38100000D01*
X158750000Y-97790000D02*
X158750000Y-53975000D01*
X113030000Y-41910000D02*
X113030000Y-42545000D01*
X111760000Y-40640000D02*
X113030000Y-41910000D01*
X114300000Y-36830000D02*
X111760000Y-39370000D01*
X111760000Y-39370000D02*
X111760000Y-40640000D01*
X143510000Y-36830000D02*
X114300000Y-36830000D01*
X160020000Y-53340000D02*
X143510000Y-36830000D01*
X160020000Y-100330000D02*
X160020000Y-53340000D01*
D21*
X79375000Y-133985000D02*
X77470000Y-132080000D01*
X142875000Y-133985000D02*
X79375000Y-133985000D01*
X186690000Y-90170000D02*
X142875000Y-133985000D01*
X187960000Y-46355000D02*
X186690000Y-47625000D01*
X186690000Y-47625000D02*
X186690000Y-90170000D01*
X200660000Y-43180000D02*
X197485000Y-46355000D01*
X197485000Y-46355000D02*
X187960000Y-46355000D01*
X200660000Y-40640000D02*
X200660000Y-43180000D01*
D22*
X125095000Y-55880000D02*
X123190000Y-55880000D01*
X145034000Y-49784000D02*
X145034000Y-53340000D01*
X144780000Y-49530000D02*
X145034000Y-49784000D01*
X109855000Y-112962081D02*
X109855000Y-111760000D01*
X109855000Y-127000000D02*
X109855000Y-112962081D01*
X99060000Y-128270000D02*
X103505000Y-128270000D01*
X98425000Y-126365000D02*
X98425000Y-127635000D01*
X96520000Y-124460000D02*
X98425000Y-126365000D01*
X86995000Y-124460000D02*
X96520000Y-124460000D01*
X98425000Y-127635000D02*
X99060000Y-128270000D01*
X83185000Y-109794646D02*
X83185000Y-120650000D01*
X103505000Y-128270000D02*
X104775000Y-127000000D01*
X83185000Y-120650000D02*
X86995000Y-124460000D01*
X83884399Y-109095247D02*
X83185000Y-109794646D01*
X83884399Y-92010601D02*
X83884399Y-109095247D01*
X85090000Y-90805000D02*
X83884399Y-92010601D01*
X212725000Y-135255000D02*
X212725000Y-137160000D01*
X212725000Y-132715000D02*
X212725000Y-135255000D01*
X104775000Y-128905000D02*
X104775000Y-127000000D01*
X106045000Y-130175000D02*
X104775000Y-128905000D01*
X110490000Y-132080000D02*
X108585000Y-130175000D01*
X108585000Y-130175000D02*
X106045000Y-130175000D01*
X85090000Y-81280000D02*
X85090000Y-90805000D01*
X85090000Y-67945000D02*
X85090000Y-81280000D01*
X83820000Y-66675000D02*
X85090000Y-67945000D01*
X225940000Y-135375000D02*
X225940000Y-136525000D01*
X229870000Y-131445000D02*
X225940000Y-135375000D01*
X85090000Y-95885000D02*
X85090000Y-93345000D01*
X86295601Y-97090601D02*
X85090000Y-95885000D01*
X86295601Y-109284399D02*
X86295601Y-97090601D01*
X85725000Y-109855000D02*
X86295601Y-109284399D01*
X85725000Y-120650000D02*
X85725000Y-109855000D01*
X88265000Y-123190000D02*
X85725000Y-120650000D01*
X98425000Y-123190000D02*
X88265000Y-123190000D01*
X102235000Y-127000000D02*
X98425000Y-123190000D01*
X207645000Y-130810000D02*
X207645000Y-137160000D01*
X109855000Y-128905000D02*
X113030000Y-132080000D01*
X105410000Y-125730000D02*
X106045000Y-126365000D01*
X106045000Y-126365000D02*
X106045000Y-128270000D01*
X103505000Y-125730000D02*
X105410000Y-125730000D01*
X106045000Y-128270000D02*
X106680000Y-128905000D01*
X102235000Y-127000000D02*
X103505000Y-125730000D01*
X106680000Y-128905000D02*
X109855000Y-128905000D01*
X97790000Y-57785000D02*
X96520000Y-59055000D01*
X111125000Y-57785000D02*
X97790000Y-57785000D01*
X111760000Y-54610000D02*
X111760000Y-57150000D01*
X111760000Y-57150000D02*
X111125000Y-57785000D01*
X113030000Y-53340000D02*
X111760000Y-54610000D01*
X85090000Y-66040000D02*
X86360000Y-67310000D01*
X86360000Y-92075000D02*
X85090000Y-93345000D01*
X86360000Y-67310000D02*
X86360000Y-92075000D01*
X85090000Y-65405000D02*
X85090000Y-66040000D01*
X224690000Y-135037500D02*
X224690000Y-136525000D01*
X229552500Y-130175000D02*
X224690000Y-135037500D01*
X230505000Y-130175000D02*
X229552500Y-130175000D01*
X231140000Y-130810000D02*
X230505000Y-130175000D01*
X99060000Y-105410000D02*
X100330000Y-106680000D01*
X99060000Y-97155000D02*
X99060000Y-105410000D01*
X96520000Y-94615000D02*
X99060000Y-97155000D01*
X96520000Y-89535000D02*
X96520000Y-94615000D01*
X95250000Y-88265000D02*
X96520000Y-89535000D01*
X95250000Y-73660000D02*
X95250000Y-88265000D01*
X92075000Y-70485000D02*
X95250000Y-73660000D01*
X99695000Y-109220000D02*
X100330000Y-108585000D01*
X100330000Y-108585000D02*
X100330000Y-106680000D01*
X92075000Y-109220000D02*
X99695000Y-109220000D01*
X90805000Y-110490000D02*
X92075000Y-109220000D01*
X90805000Y-121285000D02*
X90805000Y-110490000D01*
X181610000Y-134620000D02*
X181610000Y-137160000D01*
X181610000Y-120650000D02*
X181610000Y-134620000D01*
X206375000Y-49530000D02*
X205105000Y-48260000D01*
X206375000Y-120650000D02*
X206375000Y-49530000D01*
X107950000Y-60325000D02*
X109220000Y-59055000D01*
X107950000Y-65405000D02*
X107950000Y-60325000D01*
X106045000Y-67310000D02*
X107950000Y-65405000D01*
X106045000Y-79375000D02*
X106045000Y-67310000D01*
X116840000Y-90170000D02*
X106045000Y-79375000D01*
X116840000Y-95250000D02*
X116840000Y-90170000D01*
X114300000Y-97790000D02*
X116840000Y-95250000D01*
X114300000Y-103505000D02*
X114300000Y-97790000D01*
X114935000Y-104140000D02*
X114300000Y-103505000D01*
X118110000Y-104140000D02*
X114935000Y-104140000D01*
X120650000Y-106680000D02*
X118110000Y-104140000D01*
X186690000Y-137160000D02*
X186690000Y-114935000D01*
X202565000Y-114935000D02*
X202565000Y-55880000D01*
X120650000Y-110490000D02*
X120650000Y-106680000D01*
X125095000Y-114935000D02*
X120650000Y-110490000D01*
X104140000Y-105410000D02*
X105410000Y-106680000D01*
X104140000Y-88900000D02*
X104140000Y-105410000D01*
X99060000Y-83820000D02*
X104140000Y-88900000D01*
X99060000Y-73660000D02*
X99060000Y-83820000D01*
X92075000Y-66675000D02*
X99060000Y-73660000D01*
X106045000Y-118745000D02*
X106045000Y-109855000D01*
X106045000Y-109855000D02*
X105410000Y-109220000D01*
X105410000Y-109220000D02*
X105410000Y-106680000D01*
X176530000Y-135890000D02*
X176530000Y-137160000D01*
X176530000Y-116840000D02*
X176530000Y-135890000D01*
X203835000Y-116840000D02*
X203835000Y-53340000D01*
D21*
X121920000Y-118745000D02*
X114935000Y-111760000D01*
X152876250Y-118745000D02*
X121920000Y-118745000D01*
X184150000Y-46355000D02*
X184150000Y-87471250D01*
X186055000Y-44450000D02*
X184150000Y-46355000D01*
X184150000Y-87471250D02*
X152876250Y-118745000D01*
X196215000Y-44450000D02*
X186055000Y-44450000D01*
X198120000Y-42545000D02*
X196215000Y-44450000D01*
X198120000Y-40640000D02*
X198120000Y-42545000D01*
D22*
X99695000Y-120015000D02*
X99695000Y-111760000D01*
X102235000Y-122555000D02*
X99695000Y-120015000D01*
X96520000Y-73025000D02*
X90170000Y-66675000D01*
X90170000Y-60325000D02*
X88900000Y-59055000D01*
X96520000Y-86360000D02*
X96520000Y-73025000D01*
X99060000Y-95250000D02*
X99060000Y-88900000D01*
X101600000Y-97790000D02*
X99060000Y-95250000D01*
X90170000Y-66675000D02*
X90170000Y-60325000D01*
X99695000Y-111760000D02*
X101600000Y-109855000D01*
X99060000Y-88900000D02*
X96520000Y-86360000D01*
X101600000Y-109855000D02*
X101600000Y-97790000D01*
X161840000Y-122640000D02*
X161925000Y-122555000D01*
X161840000Y-137160000D02*
X161840000Y-122640000D01*
X118110000Y-111125000D02*
X118110000Y-106680000D01*
X121285000Y-114300000D02*
X118110000Y-111125000D01*
X121285000Y-114935000D02*
X121285000Y-114300000D01*
X220980000Y-53340000D02*
X220980000Y-124460000D01*
X107950000Y-104140000D02*
X110490000Y-106680000D01*
X106680000Y-102870000D02*
X107950000Y-104140000D01*
X106680000Y-88900000D02*
X106680000Y-102870000D01*
X100330000Y-82550000D02*
X106680000Y-88900000D01*
X100330000Y-77470000D02*
X100330000Y-82550000D01*
X85090000Y-60325000D02*
X86360000Y-59055000D01*
X85090000Y-63182500D02*
X85090000Y-60325000D01*
X87630000Y-65722500D02*
X85090000Y-63182500D01*
X87630000Y-77470000D02*
X87630000Y-65722500D01*
X167005000Y-137160000D02*
X166920000Y-137160000D01*
X97155000Y-119380000D02*
X97155000Y-111760000D01*
X102235000Y-124460000D02*
X97155000Y-119380000D01*
X110490000Y-107950000D02*
X110490000Y-106680000D01*
X108585000Y-109855000D02*
X110490000Y-107950000D01*
X108585000Y-118110000D02*
X108585000Y-109855000D01*
X102235000Y-124460000D02*
X108585000Y-118110000D01*
X166920000Y-124545000D02*
X166920000Y-137160000D01*
X167005000Y-124460000D02*
X166920000Y-124545000D01*
X218440000Y-55880000D02*
X218440000Y-124460000D01*
X78740000Y-109922919D02*
X79375000Y-110557919D01*
X78740000Y-89154000D02*
X78740000Y-109922919D01*
X81661000Y-86233000D02*
X78740000Y-89154000D01*
X79375000Y-110557919D02*
X79375000Y-111760000D01*
X81661000Y-78994000D02*
X81661000Y-86233000D01*
X83820000Y-76835000D02*
X81661000Y-78994000D01*
X83820000Y-70485000D02*
X83820000Y-76835000D01*
X103505000Y-120015000D02*
X103505000Y-109855000D01*
X103505000Y-109855000D02*
X102870000Y-109220000D01*
X102870000Y-109220000D02*
X102870000Y-106680000D01*
X205105000Y-118745000D02*
X205105000Y-50800000D01*
X179070000Y-135255000D02*
X179070000Y-137160000D01*
X179070000Y-118745000D02*
X179070000Y-135255000D01*
X184150000Y-137160000D02*
X184150000Y-118745000D01*
X107950000Y-42545000D02*
X108585000Y-42545000D01*
X112395000Y-46990000D02*
X107950000Y-42545000D01*
X116840000Y-46990000D02*
X112395000Y-46990000D01*
X121920000Y-57150000D02*
X121920000Y-52070000D01*
X121920000Y-52070000D02*
X116840000Y-46990000D01*
X120650000Y-58420000D02*
X121920000Y-57150000D01*
X120650000Y-87630000D02*
X120650000Y-58420000D01*
X106680000Y-38735000D02*
X107950000Y-40005000D01*
X104775000Y-38735000D02*
X106680000Y-38735000D01*
X104140000Y-39370000D02*
X104775000Y-38735000D01*
X104140000Y-45720000D02*
X104140000Y-39370000D01*
X109220000Y-50800000D02*
X104140000Y-45720000D01*
X113030000Y-50800000D02*
X109220000Y-50800000D01*
X114300000Y-52070000D02*
X113030000Y-50800000D01*
X114300000Y-57150000D02*
X114300000Y-52070000D01*
X116840000Y-87630000D02*
X113030000Y-83820000D01*
X113030000Y-58420000D02*
X114300000Y-57150000D01*
X113030000Y-83820000D02*
X113030000Y-58420000D01*
X116840000Y-88265000D02*
X116840000Y-87630000D01*
X111125000Y-40640000D02*
X110490000Y-40005000D01*
X111125000Y-41275000D02*
X111125000Y-40640000D01*
X111760000Y-41910000D02*
X111125000Y-41275000D01*
X111760000Y-43815000D02*
X111760000Y-41910000D01*
X113665000Y-45720000D02*
X111760000Y-43815000D01*
X121920000Y-45720000D02*
X113665000Y-45720000D01*
X128524000Y-57531000D02*
X128524000Y-52324000D01*
X128524000Y-52324000D02*
X121920000Y-45720000D01*
X128270000Y-57785000D02*
X128524000Y-57531000D01*
X128270000Y-63500000D02*
X128270000Y-57785000D01*
X141605000Y-76835000D02*
X128270000Y-63500000D01*
X143510000Y-76835000D02*
X141605000Y-76835000D01*
X92710000Y-99060000D02*
X92710000Y-99161600D01*
X88900000Y-95250000D02*
X92710000Y-99060000D01*
X88900000Y-81280000D02*
X88900000Y-95250000D01*
X87630000Y-80010000D02*
X88900000Y-81280000D01*
X95250000Y-99060000D02*
X95250000Y-99161600D01*
X91440000Y-95250000D02*
X95250000Y-99060000D01*
X91440000Y-81788000D02*
X91440000Y-95250000D01*
X91440000Y-81280000D02*
X91440000Y-81788000D01*
X88900000Y-78740000D02*
X91440000Y-81280000D01*
X97790000Y-98425000D02*
X97790000Y-99161600D01*
X93980000Y-94615000D02*
X97790000Y-98425000D01*
X93980000Y-76835000D02*
X93980000Y-94615000D01*
X88900000Y-71755000D02*
X93980000Y-76835000D01*
X90170000Y-99060000D02*
X90170000Y-99161600D01*
M02*
