M48
; DRILL file {KiCad (5.1.8-0-10_14)} date Thursday, November 12, 2020 at 09:26:08 AM
; FORMAT={-:-/ absolute / metric / decimal}
; #@! TF.CreationDate,2020-11-12T09:26:08+09:00
; #@! TF.GenerationSoftware,Kicad,Pcbnew,(5.1.8-0-10_14)
; #@! TF.FileFunction,Plated,1,2,PTH
FMAT,2
METRIC
T1C0.400
T2C1.000
T3C2.200
T4C3.200
T5C3.200
%
G90
G05
T1
X81.28Y-75.565
X81.915Y-118.745
X82.55Y-73.025
X83.185Y-81.28
X83.82Y-66.675
X83.82Y-70.485
X85.09Y-65.405
X87.63Y-77.47
X87.63Y-80.01
X88.265Y-50.165
X88.9Y-71.755
X88.9Y-78.74
X91.44Y-50.165
X92.075Y-66.675
X92.075Y-70.485
X93.281Y-119.951
X94.615Y-121.285
X96.456Y-47.689
X97.155Y-122.555
X97.79Y-74.295
X100.33Y-77.47
X101.536Y-47.689
X106.045Y-125.095
X108.585Y-47.625
X108.585Y-123.825
X109.855Y-86.36
X109.855Y-120.015
X111.125Y-118.745
X114.935Y-114.935
X114.935Y-116.84
X116.84Y-81.915
X116.84Y-88.265
X117.475Y-84.455
X118.11Y-121.514
X120.65Y-87.63
X123.19Y-88.9
X125.095Y-55.88
X128.905Y-69.85
X128.905Y-74.93
X130.175Y-47.625
X130.81Y-71.12
X130.81Y-73.66
X132.08Y-106.045
X143.51Y-76.835
X144.78Y-49.53
X145.415Y-76.835
X145.415Y-90.17
X145.415Y-99.06
X147.32Y-50.8
X147.32Y-76.835
X153.67Y-60.325
X153.67Y-64.77
X158.75Y-97.79
X160.02Y-100.33
X161.925Y-122.555
X167.005Y-124.46
X176.53Y-116.84
X179.07Y-118.745
X181.61Y-120.65
X184.15Y-118.745
X186.69Y-114.935
X196.215Y-127.0
X201.295Y-128.905
X202.565Y-55.88
X202.565Y-66.04
X202.565Y-76.2
X202.565Y-88.9
X202.565Y-99.06
X202.565Y-114.935
X203.835Y-53.34
X203.835Y-63.5
X203.835Y-73.66
X203.835Y-86.36
X203.835Y-96.52
X203.835Y-116.84
X205.105Y-48.26
X205.105Y-50.8
X205.105Y-60.96
X205.105Y-71.12
X205.105Y-83.82
X205.105Y-93.98
X205.105Y-118.745
X206.375Y-58.42
X206.375Y-68.58
X206.375Y-81.28
X206.375Y-91.44
X206.375Y-120.65
X207.645Y-101.6
X207.645Y-130.81
X208.28Y-52.07
X209.042Y-101.6
X210.185Y-80.01
X212.725Y-132.715
X215.9Y-135.255
X217.17Y-55.88
X217.17Y-60.96
X217.17Y-83.82
X217.17Y-88.9
X218.44Y-58.42
X218.44Y-81.28
X218.44Y-86.36
X218.44Y-53.34
X229.87Y-131.445
X231.14Y-130.81
X232.41Y-55.88
X232.41Y-60.96
X232.41Y-66.04
X232.41Y-71.12
X232.41Y-76.2
X232.41Y-83.82
X232.41Y-88.9
X232.41Y-93.98
X232.41Y-99.06
X232.41Y-106.68
X232.41Y-111.76
X233.68Y-53.34
X233.68Y-58.42
X233.68Y-63.5
X233.68Y-68.58
X233.68Y-73.66
X233.68Y-81.28
X233.68Y-86.36
X233.68Y-91.44
X233.68Y-96.52
X233.68Y-104.14
X233.68Y-109.22
T2
X79.375Y-127.0
X81.915Y-127.0
X84.455Y-127.0
X86.995Y-127.0
X89.535Y-127.0
X92.075Y-127.0
X94.615Y-127.0
X97.155Y-127.0
X99.695Y-127.0
X102.235Y-127.0
X104.775Y-127.0
X107.315Y-127.0
X109.855Y-127.0
X112.395Y-127.0
X114.935Y-127.0
X161.84Y-137.16
X164.38Y-137.16
X166.92Y-137.16
X123.19Y-99.06
X123.19Y-101.6
X125.73Y-99.06
X125.73Y-101.6
X128.27Y-99.06
X128.27Y-101.6
X130.81Y-99.06
X130.81Y-101.6
X133.35Y-99.06
X133.35Y-101.6
X135.89Y-99.06
X135.89Y-101.6
X138.43Y-99.06
X138.43Y-101.6
X140.97Y-99.06
X140.97Y-101.6
X173.99Y-137.16
X176.53Y-137.16
X179.07Y-137.16
X181.61Y-137.16
X184.15Y-137.16
X186.69Y-137.16
X189.23Y-137.16
X79.375Y-111.76
X81.915Y-111.76
X84.455Y-111.76
X86.995Y-111.76
X89.535Y-111.76
X92.075Y-111.76
X94.615Y-111.76
X97.155Y-111.76
X99.695Y-111.76
X102.235Y-111.76
X104.775Y-111.76
X107.315Y-111.76
X109.855Y-111.76
X112.395Y-111.76
X114.935Y-111.76
X77.47Y-90.805
X77.47Y-93.345
X80.01Y-90.805
X80.01Y-93.345
X82.55Y-90.805
X82.55Y-93.345
X85.09Y-90.805
X85.09Y-93.345
X87.63Y-90.805
X87.63Y-93.345
X90.17Y-90.805
X90.17Y-93.345
X92.71Y-90.805
X92.71Y-93.345
X95.25Y-90.805
X95.25Y-93.345
X97.79Y-90.805
X97.79Y-93.345
X100.33Y-90.805
X100.33Y-93.345
X102.87Y-90.805
X102.87Y-93.345
X105.41Y-90.805
X105.41Y-93.345
X107.95Y-90.805
X107.95Y-93.345
X110.49Y-90.805
X110.49Y-93.345
X113.03Y-90.805
X113.03Y-93.345
X115.57Y-90.805
X115.57Y-93.345
X118.11Y-90.805
X118.11Y-93.345
X120.65Y-90.805
X120.65Y-93.345
X123.19Y-90.805
X123.19Y-93.345
X125.73Y-90.805
X125.73Y-93.345
X128.27Y-90.805
X128.27Y-93.345
X130.81Y-90.805
X130.81Y-93.345
X133.35Y-90.805
X133.35Y-93.345
X135.89Y-90.805
X135.89Y-93.345
X138.43Y-90.805
X138.43Y-93.345
X77.47Y-40.005
X77.47Y-42.545
X80.01Y-40.005
X80.01Y-42.545
X82.55Y-40.005
X82.55Y-42.545
X85.09Y-40.005
X85.09Y-42.545
X87.63Y-40.005
X87.63Y-42.545
X90.17Y-40.005
X90.17Y-42.545
X92.71Y-40.005
X92.71Y-42.545
X95.25Y-40.005
X95.25Y-42.545
X97.79Y-40.005
X97.79Y-42.545
X100.33Y-40.005
X100.33Y-42.545
X102.87Y-40.005
X102.87Y-42.545
X105.41Y-40.005
X105.41Y-42.545
X107.95Y-40.005
X107.95Y-42.545
X110.49Y-40.005
X110.49Y-42.545
X113.03Y-40.005
X113.03Y-42.545
X115.57Y-40.005
X115.57Y-42.545
X118.11Y-40.005
X118.11Y-42.545
X120.65Y-40.005
X120.65Y-42.545
X123.19Y-40.005
X123.19Y-42.545
X125.73Y-40.005
X125.73Y-42.545
X128.27Y-40.005
X128.27Y-42.545
X130.81Y-40.005
X130.81Y-42.545
X133.35Y-40.005
X133.35Y-42.545
X135.89Y-40.005
X135.89Y-42.545
X138.43Y-40.005
X138.43Y-42.545
X190.5Y-48.26
X190.5Y-50.8
X190.5Y-53.34
X190.5Y-55.88
X190.5Y-58.42
X190.5Y-60.96
X190.5Y-63.5
X190.5Y-66.04
X190.5Y-68.58
X190.5Y-71.12
X190.5Y-73.66
X190.5Y-76.2
X193.04Y-48.26
X193.04Y-50.8
X193.04Y-53.34
X193.04Y-55.88
X193.04Y-58.42
X193.04Y-60.96
X193.04Y-63.5
X193.04Y-66.04
X193.04Y-68.58
X193.04Y-71.12
X193.04Y-73.66
X193.04Y-76.2
X82.55Y-99.06
X82.55Y-101.6
X85.09Y-99.06
X85.09Y-101.6
X87.63Y-99.06
X87.63Y-101.6
X90.17Y-99.06
X90.17Y-101.6
X92.71Y-99.06
X92.71Y-101.6
X95.25Y-99.06
X95.25Y-101.6
X97.79Y-99.06
X97.79Y-101.6
X100.33Y-99.06
X100.33Y-101.6
X102.87Y-99.06
X102.87Y-101.6
X105.41Y-99.06
X105.41Y-101.6
X107.95Y-99.06
X107.95Y-101.6
X110.49Y-99.06
X110.49Y-101.6
X113.03Y-99.06
X113.03Y-101.6
X115.57Y-99.06
X115.57Y-101.6
X118.11Y-99.06
X118.11Y-101.6
X77.47Y-106.68
X80.01Y-106.68
X82.55Y-106.68
X85.09Y-106.68
X87.63Y-106.68
X90.17Y-106.68
X92.71Y-106.68
X95.25Y-106.68
X97.79Y-106.68
X100.33Y-106.68
X102.87Y-106.68
X105.41Y-106.68
X107.95Y-106.68
X110.49Y-106.68
X113.03Y-106.68
X115.57Y-106.68
X118.11Y-106.68
X120.65Y-106.68
X123.19Y-106.68
X83.82Y-59.055
X83.82Y-61.595
X86.36Y-59.055
X86.36Y-61.595
X88.9Y-59.055
X88.9Y-61.595
X91.44Y-59.055
X91.44Y-61.595
X93.98Y-59.055
X93.98Y-61.595
X96.52Y-59.055
X96.52Y-61.595
X99.06Y-59.055
X99.06Y-61.595
X101.6Y-59.055
X101.6Y-61.595
X104.14Y-59.055
X104.14Y-61.595
X106.68Y-59.055
X106.68Y-61.595
X109.22Y-59.055
X109.22Y-61.595
X111.76Y-59.055
X111.76Y-61.595
X114.3Y-59.055
X114.3Y-61.595
X116.84Y-59.055
X116.84Y-61.595
X119.38Y-59.055
X119.38Y-61.595
X121.92Y-59.055
X121.92Y-61.595
X124.46Y-59.055
X124.46Y-61.595
X127.0Y-59.055
X127.0Y-61.595
X129.54Y-59.055
X129.54Y-61.595
X132.08Y-59.055
X132.08Y-61.595
X212.09Y-53.34
X212.09Y-55.88
X212.09Y-58.42
X212.09Y-60.96
X214.63Y-53.34
X214.63Y-55.88
X214.63Y-58.42
X214.63Y-60.96
X218.44Y-124.46
X218.44Y-127.0
X220.98Y-124.46
X220.98Y-127.0
X223.52Y-124.46
X223.52Y-127.0
X226.06Y-124.46
X226.06Y-127.0
X228.6Y-124.46
X228.6Y-127.0
X231.14Y-124.46
X231.14Y-127.0
X233.68Y-124.46
X233.68Y-127.0
X236.22Y-124.46
X236.22Y-127.0
X195.58Y-38.1
X195.58Y-40.64
X198.12Y-38.1
X198.12Y-40.64
X190.5Y-38.1
X190.5Y-40.64
X227.33Y-53.34
X227.33Y-55.88
X227.33Y-58.42
X227.33Y-60.96
X227.33Y-63.5
X227.33Y-66.04
X227.33Y-68.58
X227.33Y-71.12
X227.33Y-73.66
X227.33Y-76.2
X229.87Y-53.34
X229.87Y-55.88
X229.87Y-58.42
X229.87Y-60.96
X229.87Y-63.5
X229.87Y-66.04
X229.87Y-68.58
X229.87Y-71.12
X229.87Y-73.66
X229.87Y-76.2
X82.55Y-53.34
X82.55Y-55.88
X85.09Y-53.34
X85.09Y-55.88
X87.63Y-53.34
X87.63Y-55.88
X90.17Y-53.34
X90.17Y-55.88
X92.71Y-53.34
X92.71Y-55.88
X95.25Y-53.34
X95.25Y-55.88
X97.79Y-53.34
X97.79Y-55.88
X100.33Y-53.34
X100.33Y-55.88
X102.87Y-53.34
X102.87Y-55.88
X105.41Y-53.34
X105.41Y-55.88
X107.95Y-53.34
X107.95Y-55.88
X110.49Y-53.34
X110.49Y-55.88
X113.03Y-53.34
X113.03Y-55.88
X115.57Y-53.34
X115.57Y-55.88
X118.11Y-53.34
X118.11Y-55.88
X120.65Y-53.34
X120.65Y-55.88
X123.19Y-53.34
X123.19Y-55.88
X212.09Y-81.28
X212.09Y-83.82
X212.09Y-86.36
X212.09Y-88.9
X214.63Y-81.28
X214.63Y-83.82
X214.63Y-86.36
X214.63Y-88.9
X196.215Y-137.16
X198.755Y-137.16
X201.295Y-137.16
X193.04Y-38.1
X193.04Y-40.64
X127.271Y-53.322
X127.271Y-55.862
X129.811Y-53.322
X129.811Y-55.862
X132.351Y-53.322
X132.351Y-55.862
X134.891Y-53.322
X134.891Y-55.862
X137.431Y-53.322
X137.431Y-55.862
X139.971Y-53.322
X139.971Y-55.862
X142.511Y-53.322
X142.511Y-55.862
X145.051Y-53.322
X145.051Y-55.862
X147.591Y-53.322
X147.591Y-55.862
X150.131Y-53.322
X150.131Y-55.862
X227.33Y-81.28
X227.33Y-83.82
X227.33Y-86.36
X227.33Y-88.9
X227.33Y-91.44
X227.33Y-93.98
X227.33Y-96.52
X227.33Y-99.06
X229.87Y-81.28
X229.87Y-83.82
X229.87Y-86.36
X229.87Y-88.9
X229.87Y-91.44
X229.87Y-93.98
X229.87Y-96.52
X229.87Y-99.06
X77.47Y-132.08
X80.01Y-132.08
X82.55Y-132.08
X85.09Y-132.08
X87.63Y-132.08
X90.17Y-132.08
X92.71Y-132.08
X95.25Y-132.08
X97.79Y-132.08
X100.33Y-132.08
X102.87Y-132.08
X105.41Y-132.08
X107.95Y-132.08
X110.49Y-132.08
X113.03Y-132.08
X115.57Y-132.08
X118.11Y-132.08
X120.65Y-132.08
X123.19Y-132.08
X190.5Y-81.28
X190.5Y-83.82
X190.5Y-86.36
X190.5Y-88.9
X190.5Y-91.44
X190.5Y-93.98
X190.5Y-96.52
X190.5Y-99.06
X193.04Y-81.28
X193.04Y-83.82
X193.04Y-86.36
X193.04Y-88.9
X193.04Y-91.44
X193.04Y-93.98
X193.04Y-96.52
X193.04Y-99.06
X207.645Y-137.16
X210.185Y-137.16
X212.725Y-137.16
X227.33Y-104.14
X227.33Y-106.68
X227.33Y-109.22
X227.33Y-111.76
X229.87Y-104.14
X229.87Y-106.68
X229.87Y-109.22
X229.87Y-111.76
X200.66Y-38.1
X200.66Y-40.64
T3
X213.995Y-38.1
X222.25Y-38.1
T4
X107.315Y-137.795
X107.315Y-35.56
X234.315Y-137.795
X234.315Y-35.56
T5
X78.95Y-83.333
X78.74Y-54.61
X155.016Y-101.6
X136.95Y-60.325
X78.953Y-60.325
X102.87Y-68.58
X136.957Y-111.252
X136.95Y-83.333
X153.67Y-53.34
X110.155Y-79.04
T0
M30
