M48
INCH,TZ
T1C0.0157
T2C0.0394
T3C0.0866
T4C0.1260
T5C0.1260
%
G90
G05
T1
X32000Y-29750
X32500Y-28750
X32750Y-32000
X33000Y-26250
X33000Y-27750
X33500Y-25750
X34500Y-30500
X34500Y-31500
X34750Y-19750
X35000Y-28250
X35000Y-31000
X35750Y-47750
X36000Y-19750
X36250Y-26250
X36250Y-27750
X37975Y-18775
X38500Y-29250
X39500Y-30500
X39975Y-18775
X40250Y-48250
X40250Y-49000
X40750Y-47250
X41750Y-46750
X42750Y-18750
X43250Y-34000
X46000Y-32250
X46000Y-34750
X46250Y-33250
X47500Y-34500
X47750Y-45250
X48500Y-35000
X49250Y-22000
X49250Y-45250
X50750Y-27500
X50750Y-29500
X51250Y-18750
X51500Y-28000
X51500Y-29000
X52000Y-41750
X52500Y-50000
X53000Y-50750
X55000Y-50000
X55000Y-50750
X56500Y-30250
X57000Y-19500
X57250Y-30250
X57250Y-35500
X57250Y-39500
X58000Y-20000
X58000Y-30250
X60500Y-23750
X60500Y-25500
X62500Y-38500
X63000Y-39500
X63750Y-48250
X65750Y-49000
X69500Y-46000
X70500Y-46750
X71500Y-47500
X72500Y-46750
X73500Y-45250
X77250Y-50000
X79250Y-50750
X79750Y-22000
X79750Y-26000
X79750Y-30000
X79750Y-35000
X79750Y-39000
X79750Y-45250
X80250Y-21000
X80250Y-25000
X80250Y-29000
X80250Y-34000
X80250Y-38000
X80250Y-46000
X80750Y-19000
X80750Y-20000
X80750Y-24000
X80750Y-28000
X80750Y-33000
X80750Y-37000
X80750Y-46750
X81250Y-23000
X81250Y-27000
X81250Y-32000
X81250Y-36000
X81250Y-47500
X81750Y-40000
X81750Y-51500
X82000Y-20500
X82250Y-40500
X82750Y-32000
X82750Y-33000
X83750Y-52250
X85000Y-53250
X86000Y-22000
X86000Y-24000
X86000Y-33000
X86000Y-35000
X87000Y-21000
X87000Y-23000
X87000Y-32000
X87000Y-34000
X90500Y-51750
X91000Y-51500
X92000Y-22000
X92000Y-24000
X92000Y-26000
X92000Y-28000
X92000Y-30000
X92000Y-33000
X92000Y-35000
X92000Y-37000
X92000Y-39000
X92000Y-42000
X92000Y-44000
X93000Y-21000
X93000Y-23000
X93000Y-25000
X93000Y-27000
X93000Y-29000
X93000Y-32000
X93000Y-34000
X93000Y-36000
X93000Y-38000
X93000Y-41000
X93000Y-43000
T2
X89500Y-41000
X89500Y-42000
X89500Y-43000
X89500Y-44000
X90500Y-41000
X90500Y-42000
X90500Y-43000
X90500Y-44000
X50107Y-20993
X50107Y-21993
X51107Y-20993
X51107Y-21993
X52107Y-20993
X52107Y-21993
X53107Y-20993
X53107Y-21993
X54107Y-20993
X54107Y-21993
X55107Y-20993
X55107Y-21993
X56107Y-20993
X56107Y-21993
X57107Y-20993
X57107Y-21993
X58107Y-20993
X58107Y-21993
X59107Y-20993
X59107Y-21993
X75000Y-32000
X75000Y-33000
X75000Y-34000
X75000Y-35000
X75000Y-36000
X75000Y-37000
X75000Y-38000
X75000Y-39000
X76000Y-32000
X76000Y-33000
X76000Y-34000
X76000Y-35000
X76000Y-36000
X76000Y-37000
X76000Y-38000
X76000Y-39000
X81750Y-54000
X82750Y-54000
X83750Y-54000
X32500Y-39000
X32500Y-40000
X33500Y-39000
X33500Y-40000
X34500Y-39000
X34500Y-40000
X35500Y-39000
X35500Y-40000
X36500Y-39000
X36500Y-40000
X37500Y-39000
X37500Y-40000
X38500Y-39000
X38500Y-40000
X39500Y-39000
X39500Y-40000
X40500Y-39000
X40500Y-40000
X41500Y-39000
X41500Y-40000
X42500Y-39000
X42500Y-40000
X43500Y-39000
X43500Y-40000
X44500Y-39000
X44500Y-40000
X45500Y-39000
X45500Y-40000
X46500Y-39000
X46500Y-40000
X75000Y-15000
X75000Y-16000
X30500Y-15750
X30500Y-16750
X31500Y-15750
X31500Y-16750
X32500Y-15750
X32500Y-16750
X33500Y-15750
X33500Y-16750
X34500Y-15750
X34500Y-16750
X35500Y-15750
X35500Y-16750
X36500Y-15750
X36500Y-16750
X37500Y-15750
X37500Y-16750
X38500Y-15750
X38500Y-16750
X39500Y-15750
X39500Y-16750
X40500Y-15750
X40500Y-16750
X41500Y-15750
X41500Y-16750
X42500Y-15750
X42500Y-16750
X43500Y-15750
X43500Y-16750
X44500Y-15750
X44500Y-16750
X45500Y-15750
X45500Y-16750
X46500Y-15750
X46500Y-16750
X47500Y-15750
X47500Y-16750
X48500Y-15750
X48500Y-16750
X49500Y-15750
X49500Y-16750
X50500Y-15750
X50500Y-16750
X51500Y-15750
X51500Y-16750
X52500Y-15750
X52500Y-16750
X53500Y-15750
X53500Y-16750
X54500Y-15750
X54500Y-16750
X86000Y-49000
X86000Y-50000
X87000Y-49000
X87000Y-50000
X88000Y-49000
X88000Y-50000
X89000Y-49000
X89000Y-50000
X90000Y-49000
X90000Y-50000
X91000Y-49000
X91000Y-50000
X92000Y-49000
X92000Y-50000
X93000Y-49000
X93000Y-50000
X30500Y-42000
X31500Y-42000
X32500Y-42000
X33500Y-42000
X34500Y-42000
X35500Y-42000
X36500Y-42000
X37500Y-42000
X38500Y-42000
X39500Y-42000
X40500Y-42000
X41500Y-42000
X42500Y-42000
X43500Y-42000
X44500Y-42000
X45500Y-42000
X46500Y-42000
X47500Y-42000
X48500Y-42000
X77250Y-54000
X78250Y-54000
X79250Y-54000
X68500Y-54000
X69500Y-54000
X70500Y-54000
X71500Y-54000
X72500Y-54000
X73500Y-54000
X74500Y-54000
X30500Y-35750
X30500Y-36750
X31500Y-35750
X31500Y-36750
X32500Y-35750
X32500Y-36750
X33500Y-35750
X33500Y-36750
X34500Y-35750
X34500Y-36750
X35500Y-35750
X35500Y-36750
X36500Y-35750
X36500Y-36750
X37500Y-35750
X37500Y-36750
X38500Y-35750
X38500Y-36750
X39500Y-35750
X39500Y-36750
X40500Y-35750
X40500Y-36750
X41500Y-35750
X41500Y-36750
X42500Y-35750
X42500Y-36750
X43500Y-35750
X43500Y-36750
X44500Y-35750
X44500Y-36750
X45500Y-35750
X45500Y-36750
X46500Y-35750
X46500Y-36750
X47500Y-35750
X47500Y-36750
X48500Y-35750
X48500Y-36750
X49500Y-35750
X49500Y-36750
X50500Y-35750
X50500Y-36750
X51500Y-35750
X51500Y-36750
X52500Y-35750
X52500Y-36750
X53500Y-35750
X53500Y-36750
X54500Y-35750
X54500Y-36750
X75000Y-19000
X75000Y-20000
X75000Y-21000
X75000Y-22000
X75000Y-23000
X75000Y-24000
X75000Y-25000
X75000Y-26000
X75000Y-27000
X75000Y-28000
X75000Y-29000
X75000Y-30000
X76000Y-19000
X76000Y-20000
X76000Y-21000
X76000Y-22000
X76000Y-23000
X76000Y-24000
X76000Y-25000
X76000Y-26000
X76000Y-27000
X76000Y-28000
X76000Y-29000
X76000Y-30000
X83500Y-21000
X83500Y-22000
X83500Y-23000
X83500Y-24000
X84500Y-21000
X84500Y-22000
X84500Y-23000
X84500Y-24000
X31250Y-44000
X32250Y-44000
X33250Y-44000
X34250Y-44000
X35250Y-44000
X36250Y-44000
X37250Y-44000
X38250Y-44000
X39250Y-44000
X40250Y-44000
X41250Y-44000
X42250Y-44000
X43250Y-44000
X44250Y-44000
X45250Y-44000
X83500Y-32000
X83500Y-33000
X83500Y-34000
X83500Y-35000
X84500Y-32000
X84500Y-33000
X84500Y-34000
X84500Y-35000
X63717Y-54000
X64717Y-54000
X65717Y-54000
X78000Y-15000
X78000Y-16000
X32500Y-21000
X32500Y-22000
X33500Y-21000
X33500Y-22000
X34500Y-21000
X34500Y-22000
X35500Y-21000
X35500Y-22000
X36500Y-21000
X36500Y-22000
X37500Y-21000
X37500Y-22000
X38500Y-21000
X38500Y-22000
X39500Y-21000
X39500Y-22000
X40500Y-21000
X40500Y-22000
X41500Y-21000
X41500Y-22000
X42500Y-21000
X42500Y-22000
X43500Y-21000
X43500Y-22000
X44500Y-21000
X44500Y-22000
X45500Y-21000
X45500Y-22000
X46500Y-21000
X46500Y-22000
X47500Y-21000
X47500Y-22000
X48500Y-21000
X48500Y-22000
X89500Y-21000
X89500Y-22000
X89500Y-23000
X89500Y-24000
X89500Y-25000
X89500Y-26000
X89500Y-27000
X89500Y-28000
X89500Y-29000
X89500Y-30000
X90500Y-21000
X90500Y-22000
X90500Y-23000
X90500Y-24000
X90500Y-25000
X90500Y-26000
X90500Y-27000
X90500Y-28000
X90500Y-29000
X90500Y-30000
X79000Y-15000
X79000Y-16000
X30500Y-52000
X31500Y-52000
X32500Y-52000
X33500Y-52000
X34500Y-52000
X35500Y-52000
X36500Y-52000
X37500Y-52000
X38500Y-52000
X39500Y-52000
X40500Y-52000
X41500Y-52000
X42500Y-52000
X43500Y-52000
X44500Y-52000
X45500Y-52000
X46500Y-52000
X47500Y-52000
X48500Y-52000
X31250Y-50000
X32250Y-50000
X33250Y-50000
X34250Y-50000
X35250Y-50000
X36250Y-50000
X37250Y-50000
X38250Y-50000
X39250Y-50000
X40250Y-50000
X41250Y-50000
X42250Y-50000
X43250Y-50000
X44250Y-50000
X45250Y-50000
X77000Y-15000
X77000Y-16000
X89500Y-32000
X89500Y-33000
X89500Y-34000
X89500Y-35000
X89500Y-36000
X89500Y-37000
X89500Y-38000
X89500Y-39000
X90500Y-32000
X90500Y-33000
X90500Y-34000
X90500Y-35000
X90500Y-36000
X90500Y-37000
X90500Y-38000
X90500Y-39000
X76000Y-15000
X76000Y-16000
X33000Y-23250
X33000Y-24250
X34000Y-23250
X34000Y-24250
X35000Y-23250
X35000Y-24250
X36000Y-23250
X36000Y-24250
X37000Y-23250
X37000Y-24250
X38000Y-23250
X38000Y-24250
X39000Y-23250
X39000Y-24250
X40000Y-23250
X40000Y-24250
X41000Y-23250
X41000Y-24250
X42000Y-23250
X42000Y-24250
X43000Y-23250
X43000Y-24250
X44000Y-23250
X44000Y-24250
X45000Y-23250
X45000Y-24250
X46000Y-23250
X46000Y-24250
X47000Y-23250
X47000Y-24250
X48000Y-23250
X48000Y-24250
X49000Y-23250
X49000Y-24250
X50000Y-23250
X50000Y-24250
X51000Y-23250
X51000Y-24250
X52000Y-23250
X52000Y-24250
X48500Y-39000
X48500Y-40000
X49500Y-39000
X49500Y-40000
X50500Y-39000
X50500Y-40000
X51500Y-39000
X51500Y-40000
X52500Y-39000
X52500Y-40000
X53500Y-39000
X53500Y-40000
X54500Y-39000
X54500Y-40000
X55500Y-39000
X55500Y-40000
T3
X84250Y-15000
X87500Y-15000
T4
X42250Y-14000
X42250Y-54250
X92250Y-14000
X92250Y-54250
T5
X31000Y-21500
X61030Y-40000
X43368Y-31118
X53917Y-32808
X60500Y-21000
X53917Y-23750
X40500Y-27000
X31084Y-23750
X53920Y-43800
X31083Y-32808
T0
M30
