G04 #@! TF.GenerationSoftware,KiCad,Pcbnew,(5.1.5-0-10_14)*
G04 #@! TF.CreationDate,2020-04-11T18:37:10+09:00*
G04 #@! TF.ProjectId,hybohat,6879626f-6861-4742-9e6b-696361645f70,rev?*
G04 #@! TF.SameCoordinates,Original*
G04 #@! TF.FileFunction,Legend,Bot*
G04 #@! TF.FilePolarity,Positive*
%FSLAX46Y46*%
G04 Gerber Fmt 4.6, Leading zero omitted, Abs format (unit mm)*
G04 Created by KiCad (PCBNEW (5.1.5-0-10_14)) date 2020-04-11 18:37:10*
%MOMM*%
%LPD*%
G04 APERTURE LIST*
%ADD10C,0.381000*%
%ADD11C,0.254000*%
%ADD12C,1.270000*%
%ADD13C,0.200000*%
%ADD14C,0.150000*%
G04 APERTURE END LIST*
D10*
X76708000Y-33655000D02*
X77343000Y-33655000D01*
X80518000Y-33655000D02*
X81153000Y-33655000D01*
X79248000Y-33655000D02*
X79883000Y-33655000D01*
X77978000Y-33655000D02*
X78613000Y-33655000D01*
X76835000Y-44196000D02*
X77470000Y-44196000D01*
X78105000Y-44196000D02*
X78740000Y-44196000D01*
X80645000Y-44196000D02*
X81280000Y-44196000D01*
X79375000Y-44196000D02*
X80010000Y-44196000D01*
X76708000Y-57785000D02*
X77343000Y-57785000D01*
X77978000Y-57785000D02*
X78613000Y-57785000D01*
X80518000Y-57785000D02*
X81153000Y-57785000D01*
X79248000Y-57785000D02*
X79883000Y-57785000D01*
X76835000Y-100330000D02*
X77470000Y-100330000D01*
X80645000Y-100330000D02*
X81280000Y-100330000D01*
X79375000Y-100330000D02*
X80010000Y-100330000D01*
X78105000Y-100330000D02*
X78740000Y-100330000D01*
X76835000Y-113284000D02*
X77470000Y-113284000D01*
X80645000Y-113284000D02*
X81280000Y-113284000D01*
X79375000Y-113284000D02*
X80010000Y-113284000D01*
X78105000Y-113284000D02*
X78740000Y-113284000D01*
X79375000Y-114808000D02*
X80010000Y-114808000D01*
X78105000Y-114808000D02*
X78740000Y-114808000D01*
X76835000Y-114808000D02*
X77470000Y-114808000D01*
X80645000Y-114808000D02*
X81280000Y-114808000D01*
X118745000Y-128270000D02*
X118745000Y-110490000D01*
X124460000Y-132080000D02*
X124460000Y-128397000D01*
X124460000Y-128397000D02*
X128524000Y-128397000D01*
X124460000Y-110363000D02*
X128524000Y-110363000D01*
X128524000Y-128397000D02*
X128524000Y-110363000D01*
X124460000Y-110363000D02*
X124460000Y-106680000D01*
X76200000Y-132080000D02*
X76200000Y-106680000D01*
X124460000Y-132080000D02*
G75*
G02X123190000Y-133350000I-1270000J0D01*
G01*
X123190000Y-105410000D02*
G75*
G02X124460000Y-106680000I0J-1270000D01*
G01*
X76200000Y-106680000D02*
G75*
G02X77470000Y-105410000I1270000J0D01*
G01*
X77470000Y-133350000D02*
G75*
G02X76200000Y-132080000I0J1270000D01*
G01*
X76200000Y-128270000D02*
X118745000Y-128270000D01*
X76200000Y-110490000D02*
X118745000Y-110490000D01*
X77470000Y-133350000D02*
X123190000Y-133350000D01*
X77470000Y-105410000D02*
X123190000Y-105410000D01*
D11*
X119361857Y-34562142D02*
X119579571Y-34489571D01*
X119942428Y-34489571D01*
X120087571Y-34562142D01*
X120160142Y-34634714D01*
X120232714Y-34779857D01*
X120232714Y-34925000D01*
X120160142Y-35070142D01*
X120087571Y-35142714D01*
X119942428Y-35215285D01*
X119652142Y-35287857D01*
X119507000Y-35360428D01*
X119434428Y-35433000D01*
X119361857Y-35578142D01*
X119361857Y-35723285D01*
X119434428Y-35868428D01*
X119507000Y-35941000D01*
X119652142Y-36013571D01*
X120015000Y-36013571D01*
X120232714Y-35941000D01*
X120668142Y-36013571D02*
X121539000Y-36013571D01*
X121103571Y-34489571D02*
X121103571Y-36013571D01*
X122047000Y-34489571D02*
X122047000Y-36013571D01*
X122555000Y-34925000D01*
X123063000Y-36013571D01*
X123063000Y-34489571D01*
X123643571Y-36013571D02*
X124587000Y-36013571D01*
X124079000Y-35433000D01*
X124296714Y-35433000D01*
X124441857Y-35360428D01*
X124514428Y-35287857D01*
X124587000Y-35142714D01*
X124587000Y-34779857D01*
X124514428Y-34634714D01*
X124441857Y-34562142D01*
X124296714Y-34489571D01*
X123861285Y-34489571D01*
X123716142Y-34562142D01*
X123643571Y-34634714D01*
X125167571Y-35868428D02*
X125240142Y-35941000D01*
X125385285Y-36013571D01*
X125748142Y-36013571D01*
X125893285Y-35941000D01*
X125965857Y-35868428D01*
X126038428Y-35723285D01*
X126038428Y-35578142D01*
X125965857Y-35360428D01*
X125095000Y-34489571D01*
X126038428Y-34489571D01*
X127199571Y-35287857D02*
X126691571Y-35287857D01*
X126691571Y-34489571D02*
X126691571Y-36013571D01*
X127417285Y-36013571D01*
X128651000Y-35505571D02*
X128651000Y-34489571D01*
X128288142Y-36086142D02*
X127925285Y-34997571D01*
X128868714Y-34997571D01*
X129449285Y-35070142D02*
X130610428Y-35070142D01*
X131336142Y-34489571D02*
X131336142Y-36013571D01*
X131699000Y-36013571D01*
X131916714Y-35941000D01*
X132061857Y-35795857D01*
X132134428Y-35650714D01*
X132207000Y-35360428D01*
X132207000Y-35142714D01*
X132134428Y-34852428D01*
X132061857Y-34707285D01*
X131916714Y-34562142D01*
X131699000Y-34489571D01*
X131336142Y-34489571D01*
X132860142Y-34489571D02*
X132860142Y-36013571D01*
X133513285Y-34562142D02*
X133731000Y-34489571D01*
X134093857Y-34489571D01*
X134239000Y-34562142D01*
X134311571Y-34634714D01*
X134384142Y-34779857D01*
X134384142Y-34925000D01*
X134311571Y-35070142D01*
X134239000Y-35142714D01*
X134093857Y-35215285D01*
X133803571Y-35287857D01*
X133658428Y-35360428D01*
X133585857Y-35433000D01*
X133513285Y-35578142D01*
X133513285Y-35723285D01*
X133585857Y-35868428D01*
X133658428Y-35941000D01*
X133803571Y-36013571D01*
X134166428Y-36013571D01*
X134384142Y-35941000D01*
X135908142Y-34634714D02*
X135835571Y-34562142D01*
X135617857Y-34489571D01*
X135472714Y-34489571D01*
X135255000Y-34562142D01*
X135109857Y-34707285D01*
X135037285Y-34852428D01*
X134964714Y-35142714D01*
X134964714Y-35360428D01*
X135037285Y-35650714D01*
X135109857Y-35795857D01*
X135255000Y-35941000D01*
X135472714Y-36013571D01*
X135617857Y-36013571D01*
X135835571Y-35941000D01*
X135908142Y-35868428D01*
X136851571Y-36013571D02*
X137141857Y-36013571D01*
X137287000Y-35941000D01*
X137432142Y-35795857D01*
X137504714Y-35505571D01*
X137504714Y-34997571D01*
X137432142Y-34707285D01*
X137287000Y-34562142D01*
X137141857Y-34489571D01*
X136851571Y-34489571D01*
X136706428Y-34562142D01*
X136561285Y-34707285D01*
X136488714Y-34997571D01*
X136488714Y-35505571D01*
X136561285Y-35795857D01*
X136706428Y-35941000D01*
X136851571Y-36013571D01*
X137940142Y-36013571D02*
X138448142Y-34489571D01*
X138956142Y-36013571D01*
X139464142Y-35287857D02*
X139972142Y-35287857D01*
X140189857Y-34489571D02*
X139464142Y-34489571D01*
X139464142Y-36013571D01*
X140189857Y-36013571D01*
X141713857Y-34489571D02*
X141205857Y-35215285D01*
X140843000Y-34489571D02*
X140843000Y-36013571D01*
X141423571Y-36013571D01*
X141568714Y-35941000D01*
X141641285Y-35868428D01*
X141713857Y-35723285D01*
X141713857Y-35505571D01*
X141641285Y-35360428D01*
X141568714Y-35287857D01*
X141423571Y-35215285D01*
X140843000Y-35215285D01*
X142657285Y-35215285D02*
X142657285Y-34489571D01*
X142149285Y-36013571D02*
X142657285Y-35215285D01*
X143165285Y-36013571D01*
X114681000Y-115243428D02*
X114681000Y-115969142D01*
X115116428Y-115098285D02*
X113592428Y-115606285D01*
X115116428Y-116114285D01*
X115116428Y-117493142D02*
X114390714Y-116985142D01*
X115116428Y-116622285D02*
X113592428Y-116622285D01*
X113592428Y-117202857D01*
X113665000Y-117348000D01*
X113737571Y-117420571D01*
X113882714Y-117493142D01*
X114100428Y-117493142D01*
X114245571Y-117420571D01*
X114318142Y-117348000D01*
X114390714Y-117202857D01*
X114390714Y-116622285D01*
X115116428Y-118146285D02*
X113592428Y-118146285D01*
X113592428Y-118509142D01*
X113665000Y-118726857D01*
X113810142Y-118872000D01*
X113955285Y-118944571D01*
X114245571Y-119017142D01*
X114463285Y-119017142D01*
X114753571Y-118944571D01*
X114898714Y-118872000D01*
X115043857Y-118726857D01*
X115116428Y-118509142D01*
X115116428Y-118146285D01*
X113592428Y-119670285D02*
X114826142Y-119670285D01*
X114971285Y-119742857D01*
X115043857Y-119815428D01*
X115116428Y-119960571D01*
X115116428Y-120250857D01*
X115043857Y-120396000D01*
X114971285Y-120468571D01*
X114826142Y-120541142D01*
X113592428Y-120541142D01*
X115116428Y-121266857D02*
X113592428Y-121266857D01*
X115116428Y-121992571D02*
X113592428Y-121992571D01*
X115116428Y-122863428D01*
X113592428Y-122863428D01*
X113592428Y-123879428D02*
X113592428Y-124169714D01*
X113665000Y-124314857D01*
X113810142Y-124460000D01*
X114100428Y-124532571D01*
X114608428Y-124532571D01*
X114898714Y-124460000D01*
X115043857Y-124314857D01*
X115116428Y-124169714D01*
X115116428Y-123879428D01*
X115043857Y-123734285D01*
X114898714Y-123589142D01*
X114608428Y-123516571D01*
X114100428Y-123516571D01*
X113810142Y-123589142D01*
X113665000Y-123734285D01*
X113592428Y-123879428D01*
X117656428Y-117202857D02*
X116132428Y-117202857D01*
X117656428Y-118073714D01*
X116132428Y-118073714D01*
X117221000Y-118726857D02*
X117221000Y-119452571D01*
X117656428Y-118581714D02*
X116132428Y-119089714D01*
X117656428Y-119597714D01*
X117656428Y-120105714D02*
X116132428Y-120105714D01*
X117656428Y-120976571D01*
X116132428Y-120976571D01*
X116132428Y-121992571D02*
X116132428Y-122282857D01*
X116205000Y-122428000D01*
X116350142Y-122573142D01*
X116640428Y-122645714D01*
X117148428Y-122645714D01*
X117438714Y-122573142D01*
X117583857Y-122428000D01*
X117656428Y-122282857D01*
X117656428Y-121992571D01*
X117583857Y-121847428D01*
X117438714Y-121702285D01*
X117148428Y-121629714D01*
X116640428Y-121629714D01*
X116350142Y-121702285D01*
X116205000Y-121847428D01*
X116132428Y-121992571D01*
X126854857Y-126963714D02*
X126854857Y-126455714D01*
X126056571Y-126238000D02*
X126056571Y-126963714D01*
X127580571Y-126963714D01*
X127580571Y-126238000D01*
X126129142Y-125657428D02*
X126056571Y-125439714D01*
X126056571Y-125076857D01*
X126129142Y-124931714D01*
X126201714Y-124859142D01*
X126346857Y-124786571D01*
X126492000Y-124786571D01*
X126637142Y-124859142D01*
X126709714Y-124931714D01*
X126782285Y-125076857D01*
X126854857Y-125367142D01*
X126927428Y-125512285D01*
X127000000Y-125584857D01*
X127145142Y-125657428D01*
X127290285Y-125657428D01*
X127435428Y-125584857D01*
X127508000Y-125512285D01*
X127580571Y-125367142D01*
X127580571Y-125004285D01*
X127508000Y-124786571D01*
X126056571Y-124133428D02*
X127580571Y-124133428D01*
X127580571Y-123552857D01*
X127508000Y-123407714D01*
X127435428Y-123335142D01*
X127290285Y-123262571D01*
X127072571Y-123262571D01*
X126927428Y-123335142D01*
X126854857Y-123407714D01*
X126782285Y-123552857D01*
X126782285Y-124133428D01*
X127580571Y-122754571D02*
X127580571Y-121811142D01*
X127000000Y-122319142D01*
X127000000Y-122101428D01*
X126927428Y-121956285D01*
X126854857Y-121883714D01*
X126709714Y-121811142D01*
X126346857Y-121811142D01*
X126201714Y-121883714D01*
X126129142Y-121956285D01*
X126056571Y-122101428D01*
X126056571Y-122536857D01*
X126129142Y-122682000D01*
X126201714Y-122754571D01*
X127435428Y-121230571D02*
X127508000Y-121158000D01*
X127580571Y-121012857D01*
X127580571Y-120650000D01*
X127508000Y-120504857D01*
X127435428Y-120432285D01*
X127290285Y-120359714D01*
X127145142Y-120359714D01*
X126927428Y-120432285D01*
X126056571Y-121303142D01*
X126056571Y-120359714D01*
X138176000Y-48006000D02*
X138901714Y-48006000D01*
X138030857Y-47570571D02*
X138538857Y-49094571D01*
X139046857Y-47570571D01*
X140425714Y-47570571D02*
X139917714Y-48296285D01*
X139554857Y-47570571D02*
X139554857Y-49094571D01*
X140135428Y-49094571D01*
X140280571Y-49022000D01*
X140353142Y-48949428D01*
X140425714Y-48804285D01*
X140425714Y-48586571D01*
X140353142Y-48441428D01*
X140280571Y-48368857D01*
X140135428Y-48296285D01*
X139554857Y-48296285D01*
X141078857Y-47570571D02*
X141078857Y-49094571D01*
X141441714Y-49094571D01*
X141659428Y-49022000D01*
X141804571Y-48876857D01*
X141877142Y-48731714D01*
X141949714Y-48441428D01*
X141949714Y-48223714D01*
X141877142Y-47933428D01*
X141804571Y-47788285D01*
X141659428Y-47643142D01*
X141441714Y-47570571D01*
X141078857Y-47570571D01*
X142602857Y-49094571D02*
X142602857Y-47860857D01*
X142675428Y-47715714D01*
X142748000Y-47643142D01*
X142893142Y-47570571D01*
X143183428Y-47570571D01*
X143328571Y-47643142D01*
X143401142Y-47715714D01*
X143473714Y-47860857D01*
X143473714Y-49094571D01*
X144199428Y-47570571D02*
X144199428Y-49094571D01*
X144925142Y-47570571D02*
X144925142Y-49094571D01*
X145796000Y-47570571D01*
X145796000Y-49094571D01*
X146812000Y-49094571D02*
X147102285Y-49094571D01*
X147247428Y-49022000D01*
X147392571Y-48876857D01*
X147465142Y-48586571D01*
X147465142Y-48078571D01*
X147392571Y-47788285D01*
X147247428Y-47643142D01*
X147102285Y-47570571D01*
X146812000Y-47570571D01*
X146666857Y-47643142D01*
X146521714Y-47788285D01*
X146449142Y-48078571D01*
X146449142Y-48586571D01*
X146521714Y-48876857D01*
X146666857Y-49022000D01*
X146812000Y-49094571D01*
X149279428Y-49094571D02*
X149279428Y-47860857D01*
X149352000Y-47715714D01*
X149424571Y-47643142D01*
X149569714Y-47570571D01*
X149860000Y-47570571D01*
X150005142Y-47643142D01*
X150077714Y-47715714D01*
X150150285Y-47860857D01*
X150150285Y-49094571D01*
X150876000Y-47570571D02*
X150876000Y-49094571D01*
X151746857Y-47570571D01*
X151746857Y-49094571D01*
X152762857Y-49094571D02*
X153053142Y-49094571D01*
X153198285Y-49022000D01*
X153343428Y-48876857D01*
X153416000Y-48586571D01*
X153416000Y-48078571D01*
X153343428Y-47788285D01*
X153198285Y-47643142D01*
X153053142Y-47570571D01*
X152762857Y-47570571D01*
X152617714Y-47643142D01*
X152472571Y-47788285D01*
X152400000Y-48078571D01*
X152400000Y-48586571D01*
X152472571Y-48876857D01*
X152617714Y-49022000D01*
X152762857Y-49094571D01*
X137486571Y-45030571D02*
X137486571Y-46554571D01*
X138357428Y-45030571D01*
X138357428Y-46554571D01*
X139083142Y-46554571D02*
X139083142Y-45320857D01*
X139155714Y-45175714D01*
X139228285Y-45103142D01*
X139373428Y-45030571D01*
X139663714Y-45030571D01*
X139808857Y-45103142D01*
X139881428Y-45175714D01*
X139954000Y-45320857D01*
X139954000Y-46554571D01*
X141550571Y-45175714D02*
X141478000Y-45103142D01*
X141260285Y-45030571D01*
X141115142Y-45030571D01*
X140897428Y-45103142D01*
X140752285Y-45248285D01*
X140679714Y-45393428D01*
X140607142Y-45683714D01*
X140607142Y-45901428D01*
X140679714Y-46191714D01*
X140752285Y-46336857D01*
X140897428Y-46482000D01*
X141115142Y-46554571D01*
X141260285Y-46554571D01*
X141478000Y-46482000D01*
X141550571Y-46409428D01*
X142929428Y-45030571D02*
X142203714Y-45030571D01*
X142203714Y-46554571D01*
X143437428Y-45828857D02*
X143945428Y-45828857D01*
X144163142Y-45030571D02*
X143437428Y-45030571D01*
X143437428Y-46554571D01*
X144163142Y-46554571D01*
X145106571Y-46554571D02*
X145396857Y-46554571D01*
X145542000Y-46482000D01*
X145687142Y-46336857D01*
X145759714Y-46046571D01*
X145759714Y-45538571D01*
X145687142Y-45248285D01*
X145542000Y-45103142D01*
X145396857Y-45030571D01*
X145106571Y-45030571D01*
X144961428Y-45103142D01*
X144816285Y-45248285D01*
X144743714Y-45538571D01*
X144743714Y-46046571D01*
X144816285Y-46336857D01*
X144961428Y-46482000D01*
X145106571Y-46554571D01*
X146412857Y-45611142D02*
X147574000Y-45611142D01*
X148952857Y-46046571D02*
X148952857Y-45030571D01*
X148590000Y-46627142D02*
X148227142Y-45538571D01*
X149170571Y-45538571D01*
X149678571Y-46409428D02*
X149751142Y-46482000D01*
X149896285Y-46554571D01*
X150259142Y-46554571D01*
X150404285Y-46482000D01*
X150476857Y-46409428D01*
X150549428Y-46264285D01*
X150549428Y-46119142D01*
X150476857Y-45901428D01*
X149606000Y-45030571D01*
X150549428Y-45030571D01*
X151275142Y-45030571D02*
X151565428Y-45030571D01*
X151710571Y-45103142D01*
X151783142Y-45175714D01*
X151928285Y-45393428D01*
X152000857Y-45683714D01*
X152000857Y-46264285D01*
X151928285Y-46409428D01*
X151855714Y-46482000D01*
X151710571Y-46554571D01*
X151420285Y-46554571D01*
X151275142Y-46482000D01*
X151202571Y-46409428D01*
X151130000Y-46264285D01*
X151130000Y-45901428D01*
X151202571Y-45756285D01*
X151275142Y-45683714D01*
X151420285Y-45611142D01*
X151710571Y-45611142D01*
X151855714Y-45683714D01*
X151928285Y-45756285D01*
X152000857Y-45901428D01*
X152508857Y-46554571D02*
X153524857Y-46554571D01*
X152508857Y-45030571D01*
X153524857Y-45030571D01*
X154105428Y-45030571D02*
X154105428Y-46554571D01*
X137214428Y-69469000D02*
X135690428Y-69469000D01*
X135690428Y-70049571D01*
X135763000Y-70194714D01*
X135835571Y-70267285D01*
X135980714Y-70339857D01*
X136198428Y-70339857D01*
X136343571Y-70267285D01*
X136416142Y-70194714D01*
X136488714Y-70049571D01*
X136488714Y-69469000D01*
X137214428Y-70993000D02*
X135690428Y-70993000D01*
X135690428Y-72734714D02*
X135690428Y-73750714D01*
X137214428Y-72734714D01*
X137214428Y-73750714D01*
X136416142Y-74331285D02*
X136416142Y-74839285D01*
X137214428Y-75057000D02*
X137214428Y-74331285D01*
X135690428Y-74331285D01*
X135690428Y-75057000D01*
X137214428Y-76581000D02*
X136488714Y-76073000D01*
X137214428Y-75710142D02*
X135690428Y-75710142D01*
X135690428Y-76290714D01*
X135763000Y-76435857D01*
X135835571Y-76508428D01*
X135980714Y-76581000D01*
X136198428Y-76581000D01*
X136343571Y-76508428D01*
X136416142Y-76435857D01*
X136488714Y-76290714D01*
X136488714Y-75710142D01*
X135690428Y-77524428D02*
X135690428Y-77814714D01*
X135763000Y-77959857D01*
X135908142Y-78105000D01*
X136198428Y-78177571D01*
X136706428Y-78177571D01*
X136996714Y-78105000D01*
X137141857Y-77959857D01*
X137214428Y-77814714D01*
X137214428Y-77524428D01*
X137141857Y-77379285D01*
X136996714Y-77234142D01*
X136706428Y-77161571D01*
X136198428Y-77161571D01*
X135908142Y-77234142D01*
X135763000Y-77379285D01*
X135690428Y-77524428D01*
X139754428Y-66783857D02*
X139028714Y-66275857D01*
X139754428Y-65913000D02*
X138230428Y-65913000D01*
X138230428Y-66493571D01*
X138303000Y-66638714D01*
X138375571Y-66711285D01*
X138520714Y-66783857D01*
X138738428Y-66783857D01*
X138883571Y-66711285D01*
X138956142Y-66638714D01*
X139028714Y-66493571D01*
X139028714Y-65913000D01*
X139319000Y-67364428D02*
X139319000Y-68090142D01*
X139754428Y-67219285D02*
X138230428Y-67727285D01*
X139754428Y-68235285D01*
X139681857Y-68670714D02*
X139754428Y-68888428D01*
X139754428Y-69251285D01*
X139681857Y-69396428D01*
X139609285Y-69469000D01*
X139464142Y-69541571D01*
X139319000Y-69541571D01*
X139173857Y-69469000D01*
X139101285Y-69396428D01*
X139028714Y-69251285D01*
X138956142Y-68961000D01*
X138883571Y-68815857D01*
X138811000Y-68743285D01*
X138665857Y-68670714D01*
X138520714Y-68670714D01*
X138375571Y-68743285D01*
X138303000Y-68815857D01*
X138230428Y-68961000D01*
X138230428Y-69323857D01*
X138303000Y-69541571D01*
X139754428Y-70194714D02*
X138230428Y-70194714D01*
X138230428Y-70775285D01*
X138303000Y-70920428D01*
X138375571Y-70993000D01*
X138520714Y-71065571D01*
X138738428Y-71065571D01*
X138883571Y-70993000D01*
X138956142Y-70920428D01*
X139028714Y-70775285D01*
X139028714Y-70194714D01*
X138956142Y-72226714D02*
X139028714Y-72444428D01*
X139101285Y-72517000D01*
X139246428Y-72589571D01*
X139464142Y-72589571D01*
X139609285Y-72517000D01*
X139681857Y-72444428D01*
X139754428Y-72299285D01*
X139754428Y-71718714D01*
X138230428Y-71718714D01*
X138230428Y-72226714D01*
X138303000Y-72371857D01*
X138375571Y-72444428D01*
X138520714Y-72517000D01*
X138665857Y-72517000D01*
X138811000Y-72444428D01*
X138883571Y-72371857D01*
X138956142Y-72226714D01*
X138956142Y-71718714D01*
X138956142Y-73242714D02*
X138956142Y-73750714D01*
X139754428Y-73968428D02*
X139754428Y-73242714D01*
X138230428Y-73242714D01*
X138230428Y-73968428D01*
X139754428Y-75492428D02*
X139028714Y-74984428D01*
X139754428Y-74621571D02*
X138230428Y-74621571D01*
X138230428Y-75202142D01*
X138303000Y-75347285D01*
X138375571Y-75419857D01*
X138520714Y-75492428D01*
X138738428Y-75492428D01*
X138883571Y-75419857D01*
X138956142Y-75347285D01*
X139028714Y-75202142D01*
X139028714Y-74621571D01*
X139754428Y-77016428D02*
X139028714Y-76508428D01*
X139754428Y-76145571D02*
X138230428Y-76145571D01*
X138230428Y-76726142D01*
X138303000Y-76871285D01*
X138375571Y-76943857D01*
X138520714Y-77016428D01*
X138738428Y-77016428D01*
X138883571Y-76943857D01*
X138956142Y-76871285D01*
X139028714Y-76726142D01*
X139028714Y-76145571D01*
X139028714Y-77959857D02*
X139754428Y-77959857D01*
X138230428Y-77451857D02*
X139028714Y-77959857D01*
X138230428Y-78467857D01*
X139754428Y-80137000D02*
X138230428Y-80137000D01*
X138230428Y-80717571D01*
X138303000Y-80862714D01*
X138375571Y-80935285D01*
X138520714Y-81007857D01*
X138738428Y-81007857D01*
X138883571Y-80935285D01*
X138956142Y-80862714D01*
X139028714Y-80717571D01*
X139028714Y-80137000D01*
X139754428Y-81661000D02*
X138230428Y-81661000D01*
D10*
X171450000Y-33655000D02*
X171450000Y-100330000D01*
X81915000Y-100330000D02*
X171450000Y-100330000D01*
X81788000Y-33655000D02*
X171450000Y-33655000D01*
X158369000Y-69977000D02*
X158369000Y-61976000D01*
X157353000Y-69977000D02*
X157353000Y-61976000D01*
X157353000Y-61976000D02*
G75*
G02X158369000Y-61976000I508000J0D01*
G01*
X158369000Y-57912000D02*
G75*
G02X157353000Y-57912000I-508000J0D01*
G01*
X158369000Y-69977000D02*
G75*
G02X157353000Y-69977000I-508000J0D01*
G01*
X157353000Y-74422000D02*
G75*
G02X158369000Y-74422000I508000J0D01*
G01*
X158369000Y-93472000D02*
G75*
G02X157353000Y-93472000I-508000J0D01*
G01*
X158369000Y-74422000D02*
X158369000Y-93472000D01*
X157353000Y-74422000D02*
X157353000Y-93472000D01*
X157353000Y-96901000D02*
G75*
G02X158369000Y-96901000I508000J0D01*
G01*
X158369000Y-113284000D02*
X158369000Y-96901000D01*
X157353000Y-113284000D02*
X157353000Y-96901000D01*
X81915000Y-113284000D02*
X157353000Y-113284000D01*
X158369000Y-113284000D02*
X182880000Y-113284000D01*
X182880000Y-44196000D02*
X182880000Y-113284000D01*
X158369000Y-44196000D02*
X182880000Y-44196000D01*
X158369000Y-57912000D02*
X158369000Y-44196000D01*
X157353000Y-57912000D02*
X157353000Y-44196000D01*
X81915000Y-44196000D02*
X157353000Y-44196000D01*
X81915000Y-114808000D02*
X143274190Y-114789810D01*
X140462000Y-111252000D02*
G75*
G02X136924190Y-114789810I-3537810J0D01*
G01*
X76835000Y-61322810D02*
X76835000Y-85217000D01*
X76835000Y-61322810D02*
G75*
G02X80372810Y-57785000I3537810J0D01*
G01*
X80264000Y-88754810D02*
X136924190Y-88754810D01*
X80372810Y-88754810D02*
G75*
G02X76835000Y-85217000I0J3537810D01*
G01*
X136779000Y-57785000D02*
X81153000Y-57785000D01*
X140335000Y-61468000D02*
X140462000Y-111252000D01*
X140462000Y-85217000D02*
G75*
G02X136924190Y-88754810I-3537810J0D01*
G01*
X136778989Y-57803237D02*
G75*
G02X140335000Y-61341000I18201J-3537763D01*
G01*
X101600000Y-64262000D02*
X101600000Y-50800000D01*
X99060000Y-67183000D02*
X101600000Y-64262000D01*
X99060000Y-99314000D02*
X99060000Y-67183000D01*
X101600000Y-102235000D02*
X99060000Y-99314000D01*
X101600000Y-104140000D02*
X101600000Y-102235000D01*
X168910000Y-104140000D02*
X101600000Y-104140000D01*
X168910000Y-50800000D02*
X168910000Y-104140000D01*
X101600000Y-50800000D02*
X168910000Y-50800000D01*
X161426071Y-117883214D02*
X161426071Y-119788214D01*
X162242500Y-117883214D02*
X162242500Y-118881071D01*
X162151785Y-119062500D01*
X161970357Y-119153214D01*
X161698214Y-119153214D01*
X161516785Y-119062500D01*
X161426071Y-118971785D01*
X162877500Y-119153214D02*
X163603214Y-119153214D01*
X163149642Y-119788214D02*
X163149642Y-118155357D01*
X163240357Y-117973928D01*
X163421785Y-117883214D01*
X163603214Y-117883214D01*
X163966071Y-119153214D02*
X164691785Y-119153214D01*
X164238214Y-119788214D02*
X164238214Y-118155357D01*
X164328928Y-117973928D01*
X164510357Y-117883214D01*
X164691785Y-117883214D01*
X165326785Y-119153214D02*
X165326785Y-117248214D01*
X165326785Y-119062500D02*
X165508214Y-119153214D01*
X165871071Y-119153214D01*
X166052500Y-119062500D01*
X166143214Y-118971785D01*
X166233928Y-118790357D01*
X166233928Y-118246071D01*
X166143214Y-118064642D01*
X166052500Y-117973928D01*
X165871071Y-117883214D01*
X165508214Y-117883214D01*
X165326785Y-117973928D01*
X166959642Y-117973928D02*
X167141071Y-117883214D01*
X167503928Y-117883214D01*
X167685357Y-117973928D01*
X167776071Y-118155357D01*
X167776071Y-118246071D01*
X167685357Y-118427500D01*
X167503928Y-118518214D01*
X167231785Y-118518214D01*
X167050357Y-118608928D01*
X166959642Y-118790357D01*
X166959642Y-118881071D01*
X167050357Y-119062500D01*
X167231785Y-119153214D01*
X167503928Y-119153214D01*
X167685357Y-119062500D01*
X168592500Y-118064642D02*
X168683214Y-117973928D01*
X168592500Y-117883214D01*
X168501785Y-117973928D01*
X168592500Y-118064642D01*
X168592500Y-117883214D01*
X168592500Y-119062500D02*
X168683214Y-118971785D01*
X168592500Y-118881071D01*
X168501785Y-118971785D01*
X168592500Y-119062500D01*
X168592500Y-118881071D01*
X170860357Y-119878928D02*
X169227500Y-117429642D01*
X172856071Y-119878928D02*
X171223214Y-117429642D01*
X173309642Y-119153214D02*
X173672500Y-117883214D01*
X174035357Y-118790357D01*
X174398214Y-117883214D01*
X174761071Y-119153214D01*
X175305357Y-119153214D02*
X175668214Y-117883214D01*
X176031071Y-118790357D01*
X176393928Y-117883214D01*
X176756785Y-119153214D01*
X177301071Y-119153214D02*
X177663928Y-117883214D01*
X178026785Y-118790357D01*
X178389642Y-117883214D01*
X178752500Y-119153214D01*
X179478214Y-118064642D02*
X179568928Y-117973928D01*
X179478214Y-117883214D01*
X179387500Y-117973928D01*
X179478214Y-118064642D01*
X179478214Y-117883214D01*
X180385357Y-117883214D02*
X180385357Y-119788214D01*
X181201785Y-117883214D02*
X181201785Y-118881071D01*
X181111071Y-119062500D01*
X180929642Y-119153214D01*
X180657500Y-119153214D01*
X180476071Y-119062500D01*
X180385357Y-118971785D01*
X181927500Y-119153214D02*
X182381071Y-117883214D01*
X182834642Y-119153214D02*
X182381071Y-117883214D01*
X182199642Y-117429642D01*
X182108928Y-117338928D01*
X181927500Y-117248214D01*
X183560357Y-117883214D02*
X183560357Y-119788214D01*
X183560357Y-119062500D02*
X183741785Y-119153214D01*
X184104642Y-119153214D01*
X184286071Y-119062500D01*
X184376785Y-118971785D01*
X184467500Y-118790357D01*
X184467500Y-118246071D01*
X184376785Y-118064642D01*
X184286071Y-117973928D01*
X184104642Y-117883214D01*
X183741785Y-117883214D01*
X183560357Y-117973928D01*
X185556071Y-117883214D02*
X185374642Y-117973928D01*
X185283928Y-118064642D01*
X185193214Y-118246071D01*
X185193214Y-118790357D01*
X185283928Y-118971785D01*
X185374642Y-119062500D01*
X185556071Y-119153214D01*
X185828214Y-119153214D01*
X186009642Y-119062500D01*
X186100357Y-118971785D01*
X186191071Y-118790357D01*
X186191071Y-118246071D01*
X186100357Y-118064642D01*
X186009642Y-117973928D01*
X185828214Y-117883214D01*
X185556071Y-117883214D01*
X187007500Y-118064642D02*
X187098214Y-117973928D01*
X187007500Y-117883214D01*
X186916785Y-117973928D01*
X187007500Y-118064642D01*
X187007500Y-117883214D01*
X188731071Y-117973928D02*
X188549642Y-117883214D01*
X188186785Y-117883214D01*
X188005357Y-117973928D01*
X187914642Y-118064642D01*
X187823928Y-118246071D01*
X187823928Y-118790357D01*
X187914642Y-118971785D01*
X188005357Y-119062500D01*
X188186785Y-119153214D01*
X188549642Y-119153214D01*
X188731071Y-119062500D01*
X189819642Y-117883214D02*
X189638214Y-117973928D01*
X189547500Y-118064642D01*
X189456785Y-118246071D01*
X189456785Y-118790357D01*
X189547500Y-118971785D01*
X189638214Y-119062500D01*
X189819642Y-119153214D01*
X190091785Y-119153214D01*
X190273214Y-119062500D01*
X190363928Y-118971785D01*
X190454642Y-118790357D01*
X190454642Y-118246071D01*
X190363928Y-118064642D01*
X190273214Y-117973928D01*
X190091785Y-117883214D01*
X189819642Y-117883214D01*
D12*
X148257380Y-122857380D02*
X148257380Y-129207380D01*
X148257380Y-126183571D02*
X151885952Y-126183571D01*
X151885952Y-122857380D02*
X151885952Y-129207380D01*
X154305000Y-127090714D02*
X155816904Y-122857380D01*
X157328809Y-127090714D02*
X155816904Y-122857380D01*
X155212142Y-121345476D01*
X154909761Y-121043095D01*
X154305000Y-120740714D01*
X159747857Y-122857380D02*
X159747857Y-129207380D01*
X159747857Y-126788333D02*
X160352619Y-127090714D01*
X161562142Y-127090714D01*
X162166904Y-126788333D01*
X162469285Y-126485952D01*
X162771666Y-125881190D01*
X162771666Y-124066904D01*
X162469285Y-123462142D01*
X162166904Y-123159761D01*
X161562142Y-122857380D01*
X160352619Y-122857380D01*
X159747857Y-123159761D01*
X166400238Y-122857380D02*
X165795476Y-123159761D01*
X165493095Y-123462142D01*
X165190714Y-124066904D01*
X165190714Y-125881190D01*
X165493095Y-126485952D01*
X165795476Y-126788333D01*
X166400238Y-127090714D01*
X167307380Y-127090714D01*
X167912142Y-126788333D01*
X168214523Y-126485952D01*
X168516904Y-125881190D01*
X168516904Y-124066904D01*
X168214523Y-123462142D01*
X167912142Y-123159761D01*
X167307380Y-122857380D01*
X166400238Y-122857380D01*
X171238333Y-125276428D02*
X176076428Y-125276428D01*
X179100238Y-122857380D02*
X179100238Y-129207380D01*
X179100238Y-126183571D02*
X182728809Y-126183571D01*
X182728809Y-122857380D02*
X182728809Y-129207380D01*
X188474047Y-122857380D02*
X188474047Y-126183571D01*
X188171666Y-126788333D01*
X187566904Y-127090714D01*
X186357380Y-127090714D01*
X185752619Y-126788333D01*
X188474047Y-123159761D02*
X187869285Y-122857380D01*
X186357380Y-122857380D01*
X185752619Y-123159761D01*
X185450238Y-123764523D01*
X185450238Y-124369285D01*
X185752619Y-124974047D01*
X186357380Y-125276428D01*
X187869285Y-125276428D01*
X188474047Y-125578809D01*
X190590714Y-127090714D02*
X193009761Y-127090714D01*
X191497857Y-129207380D02*
X191497857Y-123764523D01*
X191800238Y-123159761D01*
X192405000Y-122857380D01*
X193009761Y-122857380D01*
D13*
X265320000Y-126500000D02*
X265320000Y-141500000D01*
X265320000Y-100500000D02*
X265320000Y-31500000D01*
X265320000Y-113500000D02*
X265320000Y-111500000D01*
X265320000Y-126500000D02*
X265320000Y-118500000D01*
X265820000Y-100500000D02*
X265820000Y-111500000D01*
X264820000Y-100500000D02*
X265820000Y-100500000D01*
X264820000Y-111500000D02*
X264820000Y-100500000D01*
X265820000Y-111500000D02*
X264820000Y-111500000D01*
X265820000Y-118500000D02*
X265820000Y-113500000D01*
X264820000Y-118500000D02*
X265820000Y-118500000D01*
X264820000Y-113500000D02*
X264820000Y-118500000D01*
X265820000Y-113500000D02*
X264820000Y-113500000D01*
X240320000Y-138500000D02*
X265320000Y-138500000D01*
X265320000Y-126500000D02*
X240320000Y-126500000D01*
X264481904Y-44161903D02*
G75*
G03X264481904Y-44161903I-11661904J0D01*
G01*
X240320000Y-31500000D02*
X265320000Y-31500000D01*
X240320000Y-141500000D02*
X240320000Y-31500000D01*
X265320000Y-141500000D02*
X240320000Y-141500000D01*
D14*
X264534285Y-30666666D02*
X264058095Y-30666666D01*
X264629523Y-30952380D02*
X264296190Y-29952380D01*
X263962857Y-30952380D01*
X263105714Y-30952380D02*
X263677142Y-30952380D01*
X263391428Y-30952380D02*
X263391428Y-29952380D01*
X263486666Y-30095238D01*
X263581904Y-30190476D01*
X263677142Y-30238095D01*
M02*
