G04 #@! TF.GenerationSoftware,KiCad,Pcbnew,(5.1.8-0-10_14)*
G04 #@! TF.CreationDate,2020-11-12T09:26:00+09:00*
G04 #@! TF.ProjectId,hybohat,6879626f-6861-4742-9e6b-696361645f70,rev?*
G04 #@! TF.SameCoordinates,Original*
G04 #@! TF.FileFunction,Copper,L2,Bot*
G04 #@! TF.FilePolarity,Positive*
%FSLAX46Y46*%
G04 Gerber Fmt 4.6, Leading zero omitted, Abs format (unit mm)*
G04 Created by KiCad (PCBNEW (5.1.8-0-10_14)) date 2020-11-12 09:26:00*
%MOMM*%
%LPD*%
G01*
G04 APERTURE LIST*
%ADD10C,0.100000*%
%ADD11C,0.150000*%
%ADD12C,0.300000*%
%ADD13C,0.400000*%
G04 #@! TA.AperFunction,NonConductor*
%ADD14C,0.300000*%
G04 #@! TD*
G04 #@! TA.AperFunction,ComponentPad*
%ADD15O,1.700000X1.700000*%
G04 #@! TD*
G04 #@! TA.AperFunction,ComponentPad*
%ADD16R,1.700000X1.700000*%
G04 #@! TD*
G04 #@! TA.AperFunction,ComponentPad*
%ADD17C,5.000000*%
G04 #@! TD*
G04 #@! TA.AperFunction,ComponentPad*
%ADD18C,3.810000*%
G04 #@! TD*
G04 #@! TA.AperFunction,ComponentPad*
%ADD19R,3.300001X4.445000*%
G04 #@! TD*
G04 #@! TA.AperFunction,ComponentPad*
%ADD20O,3.300001X4.445000*%
G04 #@! TD*
G04 #@! TA.AperFunction,ViaPad*
%ADD21C,0.800000*%
G04 #@! TD*
G04 #@! TA.AperFunction,ViaPad*
%ADD22C,1.016000*%
G04 #@! TD*
G04 #@! TA.AperFunction,Conductor*
%ADD23C,1.270000*%
G04 #@! TD*
G04 #@! TA.AperFunction,Conductor*
%ADD24C,0.635000*%
G04 #@! TD*
G04 #@! TA.AperFunction,Conductor*
%ADD25C,0.304800*%
G04 #@! TD*
G04 #@! TA.AperFunction,Conductor*
%ADD26C,0.250000*%
G04 #@! TD*
G04 APERTURE END LIST*
D10*
D11*
X299989000Y-253002200D02*
X299989000Y-285002200D01*
X407989000Y-285002200D01*
X407989000Y-253002200D01*
X299989000Y-253002200D01*
D10*
D11*
X10000000Y-10000000D02*
X10000000Y-287002200D01*
X409989000Y-287002200D01*
X409989000Y-10000000D01*
X10000000Y-10000000D01*
D10*
D11*
X12000000Y-12000000D02*
X12000000Y-285002200D01*
X407989000Y-285002200D01*
X407989000Y-12000000D01*
X12000000Y-12000000D01*
D10*
D11*
X60000000Y-12000000D02*
X60000000Y-10000000D01*
D10*
D11*
X110000000Y-12000000D02*
X110000000Y-10000000D01*
D10*
D11*
X160000000Y-12000000D02*
X160000000Y-10000000D01*
D10*
D11*
X210000000Y-12000000D02*
X210000000Y-10000000D01*
D10*
D11*
X260000000Y-12000000D02*
X260000000Y-10000000D01*
D10*
D11*
X310000000Y-12000000D02*
X310000000Y-10000000D01*
D10*
D11*
X360000000Y-12000000D02*
X360000000Y-10000000D01*
D10*
D11*
X36065476Y-11588095D02*
X35322619Y-11588095D01*
X35694047Y-11588095D02*
X35694047Y-10288095D01*
X35570238Y-10473809D01*
X35446428Y-10597619D01*
X35322619Y-10659523D01*
D10*
D11*
X85322619Y-10411904D02*
X85384523Y-10350000D01*
X85508333Y-10288095D01*
X85817857Y-10288095D01*
X85941666Y-10350000D01*
X86003571Y-10411904D01*
X86065476Y-10535714D01*
X86065476Y-10659523D01*
X86003571Y-10845238D01*
X85260714Y-11588095D01*
X86065476Y-11588095D01*
D10*
D11*
X135260714Y-10288095D02*
X136065476Y-10288095D01*
X135632142Y-10783333D01*
X135817857Y-10783333D01*
X135941666Y-10845238D01*
X136003571Y-10907142D01*
X136065476Y-11030952D01*
X136065476Y-11340476D01*
X136003571Y-11464285D01*
X135941666Y-11526190D01*
X135817857Y-11588095D01*
X135446428Y-11588095D01*
X135322619Y-11526190D01*
X135260714Y-11464285D01*
D10*
D11*
X185941666Y-10721428D02*
X185941666Y-11588095D01*
X185632142Y-10226190D02*
X185322619Y-11154761D01*
X186127380Y-11154761D01*
D10*
D11*
X236003571Y-10288095D02*
X235384523Y-10288095D01*
X235322619Y-10907142D01*
X235384523Y-10845238D01*
X235508333Y-10783333D01*
X235817857Y-10783333D01*
X235941666Y-10845238D01*
X236003571Y-10907142D01*
X236065476Y-11030952D01*
X236065476Y-11340476D01*
X236003571Y-11464285D01*
X235941666Y-11526190D01*
X235817857Y-11588095D01*
X235508333Y-11588095D01*
X235384523Y-11526190D01*
X235322619Y-11464285D01*
D10*
D11*
X285941666Y-10288095D02*
X285694047Y-10288095D01*
X285570238Y-10350000D01*
X285508333Y-10411904D01*
X285384523Y-10597619D01*
X285322619Y-10845238D01*
X285322619Y-11340476D01*
X285384523Y-11464285D01*
X285446428Y-11526190D01*
X285570238Y-11588095D01*
X285817857Y-11588095D01*
X285941666Y-11526190D01*
X286003571Y-11464285D01*
X286065476Y-11340476D01*
X286065476Y-11030952D01*
X286003571Y-10907142D01*
X285941666Y-10845238D01*
X285817857Y-10783333D01*
X285570238Y-10783333D01*
X285446428Y-10845238D01*
X285384523Y-10907142D01*
X285322619Y-11030952D01*
D10*
D11*
X335260714Y-10288095D02*
X336127380Y-10288095D01*
X335570238Y-11588095D01*
D10*
D11*
X385570238Y-10845238D02*
X385446428Y-10783333D01*
X385384523Y-10721428D01*
X385322619Y-10597619D01*
X385322619Y-10535714D01*
X385384523Y-10411904D01*
X385446428Y-10350000D01*
X385570238Y-10288095D01*
X385817857Y-10288095D01*
X385941666Y-10350000D01*
X386003571Y-10411904D01*
X386065476Y-10535714D01*
X386065476Y-10597619D01*
X386003571Y-10721428D01*
X385941666Y-10783333D01*
X385817857Y-10845238D01*
X385570238Y-10845238D01*
X385446428Y-10907142D01*
X385384523Y-10969047D01*
X385322619Y-11092857D01*
X385322619Y-11340476D01*
X385384523Y-11464285D01*
X385446428Y-11526190D01*
X385570238Y-11588095D01*
X385817857Y-11588095D01*
X385941666Y-11526190D01*
X386003571Y-11464285D01*
X386065476Y-11340476D01*
X386065476Y-11092857D01*
X386003571Y-10969047D01*
X385941666Y-10907142D01*
X385817857Y-10845238D01*
D10*
D11*
X60000000Y-285002200D02*
X60000000Y-287002200D01*
D10*
D11*
X110000000Y-285002200D02*
X110000000Y-287002200D01*
D10*
D11*
X160000000Y-285002200D02*
X160000000Y-287002200D01*
D10*
D11*
X210000000Y-285002200D02*
X210000000Y-287002200D01*
D10*
D11*
X260000000Y-285002200D02*
X260000000Y-287002200D01*
D10*
D11*
X310000000Y-285002200D02*
X310000000Y-287002200D01*
D10*
D11*
X360000000Y-285002200D02*
X360000000Y-287002200D01*
D10*
D11*
X36065476Y-286590295D02*
X35322619Y-286590295D01*
X35694047Y-286590295D02*
X35694047Y-285290295D01*
X35570238Y-285476009D01*
X35446428Y-285599819D01*
X35322619Y-285661723D01*
D10*
D11*
X85322619Y-285414104D02*
X85384523Y-285352200D01*
X85508333Y-285290295D01*
X85817857Y-285290295D01*
X85941666Y-285352200D01*
X86003571Y-285414104D01*
X86065476Y-285537914D01*
X86065476Y-285661723D01*
X86003571Y-285847438D01*
X85260714Y-286590295D01*
X86065476Y-286590295D01*
D10*
D11*
X135260714Y-285290295D02*
X136065476Y-285290295D01*
X135632142Y-285785533D01*
X135817857Y-285785533D01*
X135941666Y-285847438D01*
X136003571Y-285909342D01*
X136065476Y-286033152D01*
X136065476Y-286342676D01*
X136003571Y-286466485D01*
X135941666Y-286528390D01*
X135817857Y-286590295D01*
X135446428Y-286590295D01*
X135322619Y-286528390D01*
X135260714Y-286466485D01*
D10*
D11*
X185941666Y-285723628D02*
X185941666Y-286590295D01*
X185632142Y-285228390D02*
X185322619Y-286156961D01*
X186127380Y-286156961D01*
D10*
D11*
X236003571Y-285290295D02*
X235384523Y-285290295D01*
X235322619Y-285909342D01*
X235384523Y-285847438D01*
X235508333Y-285785533D01*
X235817857Y-285785533D01*
X235941666Y-285847438D01*
X236003571Y-285909342D01*
X236065476Y-286033152D01*
X236065476Y-286342676D01*
X236003571Y-286466485D01*
X235941666Y-286528390D01*
X235817857Y-286590295D01*
X235508333Y-286590295D01*
X235384523Y-286528390D01*
X235322619Y-286466485D01*
D10*
D11*
X285941666Y-285290295D02*
X285694047Y-285290295D01*
X285570238Y-285352200D01*
X285508333Y-285414104D01*
X285384523Y-285599819D01*
X285322619Y-285847438D01*
X285322619Y-286342676D01*
X285384523Y-286466485D01*
X285446428Y-286528390D01*
X285570238Y-286590295D01*
X285817857Y-286590295D01*
X285941666Y-286528390D01*
X286003571Y-286466485D01*
X286065476Y-286342676D01*
X286065476Y-286033152D01*
X286003571Y-285909342D01*
X285941666Y-285847438D01*
X285817857Y-285785533D01*
X285570238Y-285785533D01*
X285446428Y-285847438D01*
X285384523Y-285909342D01*
X285322619Y-286033152D01*
D10*
D11*
X335260714Y-285290295D02*
X336127380Y-285290295D01*
X335570238Y-286590295D01*
D10*
D11*
X385570238Y-285847438D02*
X385446428Y-285785533D01*
X385384523Y-285723628D01*
X385322619Y-285599819D01*
X385322619Y-285537914D01*
X385384523Y-285414104D01*
X385446428Y-285352200D01*
X385570238Y-285290295D01*
X385817857Y-285290295D01*
X385941666Y-285352200D01*
X386003571Y-285414104D01*
X386065476Y-285537914D01*
X386065476Y-285599819D01*
X386003571Y-285723628D01*
X385941666Y-285785533D01*
X385817857Y-285847438D01*
X385570238Y-285847438D01*
X385446428Y-285909342D01*
X385384523Y-285971247D01*
X385322619Y-286095057D01*
X385322619Y-286342676D01*
X385384523Y-286466485D01*
X385446428Y-286528390D01*
X385570238Y-286590295D01*
X385817857Y-286590295D01*
X385941666Y-286528390D01*
X386003571Y-286466485D01*
X386065476Y-286342676D01*
X386065476Y-286095057D01*
X386003571Y-285971247D01*
X385941666Y-285909342D01*
X385817857Y-285847438D01*
D10*
D11*
X10000000Y-60000000D02*
X12000000Y-60000000D01*
D10*
D11*
X10000000Y-110000000D02*
X12000000Y-110000000D01*
D10*
D11*
X10000000Y-160000000D02*
X12000000Y-160000000D01*
D10*
D11*
X10000000Y-210000000D02*
X12000000Y-210000000D01*
D10*
D11*
X10000000Y-260000000D02*
X12000000Y-260000000D01*
D10*
D11*
X10690476Y-35216666D02*
X11309523Y-35216666D01*
X10566666Y-35588095D02*
X11000000Y-34288095D01*
X11433333Y-35588095D01*
D10*
D11*
X11092857Y-84907142D02*
X11278571Y-84969047D01*
X11340476Y-85030952D01*
X11402380Y-85154761D01*
X11402380Y-85340476D01*
X11340476Y-85464285D01*
X11278571Y-85526190D01*
X11154761Y-85588095D01*
X10659523Y-85588095D01*
X10659523Y-84288095D01*
X11092857Y-84288095D01*
X11216666Y-84350000D01*
X11278571Y-84411904D01*
X11340476Y-84535714D01*
X11340476Y-84659523D01*
X11278571Y-84783333D01*
X11216666Y-84845238D01*
X11092857Y-84907142D01*
X10659523Y-84907142D01*
D10*
D11*
X11402380Y-135464285D02*
X11340476Y-135526190D01*
X11154761Y-135588095D01*
X11030952Y-135588095D01*
X10845238Y-135526190D01*
X10721428Y-135402380D01*
X10659523Y-135278571D01*
X10597619Y-135030952D01*
X10597619Y-134845238D01*
X10659523Y-134597619D01*
X10721428Y-134473809D01*
X10845238Y-134350000D01*
X11030952Y-134288095D01*
X11154761Y-134288095D01*
X11340476Y-134350000D01*
X11402380Y-134411904D01*
D10*
D11*
X10659523Y-185588095D02*
X10659523Y-184288095D01*
X10969047Y-184288095D01*
X11154761Y-184350000D01*
X11278571Y-184473809D01*
X11340476Y-184597619D01*
X11402380Y-184845238D01*
X11402380Y-185030952D01*
X11340476Y-185278571D01*
X11278571Y-185402380D01*
X11154761Y-185526190D01*
X10969047Y-185588095D01*
X10659523Y-185588095D01*
D10*
D11*
X10721428Y-234907142D02*
X11154761Y-234907142D01*
X11340476Y-235588095D02*
X10721428Y-235588095D01*
X10721428Y-234288095D01*
X11340476Y-234288095D01*
D10*
D11*
X11185714Y-284907142D02*
X10752380Y-284907142D01*
X10752380Y-285588095D02*
X10752380Y-284288095D01*
X11371428Y-284288095D01*
D10*
D11*
X409989000Y-60000000D02*
X407989000Y-60000000D01*
D10*
D11*
X409989000Y-110000000D02*
X407989000Y-110000000D01*
D10*
D11*
X409989000Y-160000000D02*
X407989000Y-160000000D01*
D10*
D11*
X409989000Y-210000000D02*
X407989000Y-210000000D01*
D10*
D11*
X409989000Y-260000000D02*
X407989000Y-260000000D01*
D10*
D11*
X408679476Y-35216666D02*
X409298523Y-35216666D01*
X408555666Y-35588095D02*
X408989000Y-34288095D01*
X409422333Y-35588095D01*
D10*
D11*
X409081857Y-84907142D02*
X409267571Y-84969047D01*
X409329476Y-85030952D01*
X409391380Y-85154761D01*
X409391380Y-85340476D01*
X409329476Y-85464285D01*
X409267571Y-85526190D01*
X409143761Y-85588095D01*
X408648523Y-85588095D01*
X408648523Y-84288095D01*
X409081857Y-84288095D01*
X409205666Y-84350000D01*
X409267571Y-84411904D01*
X409329476Y-84535714D01*
X409329476Y-84659523D01*
X409267571Y-84783333D01*
X409205666Y-84845238D01*
X409081857Y-84907142D01*
X408648523Y-84907142D01*
D10*
D11*
X409391380Y-135464285D02*
X409329476Y-135526190D01*
X409143761Y-135588095D01*
X409019952Y-135588095D01*
X408834238Y-135526190D01*
X408710428Y-135402380D01*
X408648523Y-135278571D01*
X408586619Y-135030952D01*
X408586619Y-134845238D01*
X408648523Y-134597619D01*
X408710428Y-134473809D01*
X408834238Y-134350000D01*
X409019952Y-134288095D01*
X409143761Y-134288095D01*
X409329476Y-134350000D01*
X409391380Y-134411904D01*
D10*
D11*
X408648523Y-185588095D02*
X408648523Y-184288095D01*
X408958047Y-184288095D01*
X409143761Y-184350000D01*
X409267571Y-184473809D01*
X409329476Y-184597619D01*
X409391380Y-184845238D01*
X409391380Y-185030952D01*
X409329476Y-185278571D01*
X409267571Y-185402380D01*
X409143761Y-185526190D01*
X408958047Y-185588095D01*
X408648523Y-185588095D01*
D10*
D11*
X408710428Y-234907142D02*
X409143761Y-234907142D01*
X409329476Y-235588095D02*
X408710428Y-235588095D01*
X408710428Y-234288095D01*
X409329476Y-234288095D01*
D10*
D11*
X409174714Y-284907142D02*
X408741380Y-284907142D01*
X408741380Y-285588095D02*
X408741380Y-284288095D01*
X409360428Y-284288095D01*
D10*
D11*
X323421142Y-280780771D02*
X323421142Y-279280771D01*
X323778285Y-279280771D01*
X323992571Y-279352200D01*
X324135428Y-279495057D01*
X324206857Y-279637914D01*
X324278285Y-279923628D01*
X324278285Y-280137914D01*
X324206857Y-280423628D01*
X324135428Y-280566485D01*
X323992571Y-280709342D01*
X323778285Y-280780771D01*
X323421142Y-280780771D01*
X325564000Y-280780771D02*
X325564000Y-279995057D01*
X325492571Y-279852200D01*
X325349714Y-279780771D01*
X325064000Y-279780771D01*
X324921142Y-279852200D01*
X325564000Y-280709342D02*
X325421142Y-280780771D01*
X325064000Y-280780771D01*
X324921142Y-280709342D01*
X324849714Y-280566485D01*
X324849714Y-280423628D01*
X324921142Y-280280771D01*
X325064000Y-280209342D01*
X325421142Y-280209342D01*
X325564000Y-280137914D01*
X326064000Y-279780771D02*
X326635428Y-279780771D01*
X326278285Y-279280771D02*
X326278285Y-280566485D01*
X326349714Y-280709342D01*
X326492571Y-280780771D01*
X326635428Y-280780771D01*
X327706857Y-280709342D02*
X327564000Y-280780771D01*
X327278285Y-280780771D01*
X327135428Y-280709342D01*
X327064000Y-280566485D01*
X327064000Y-279995057D01*
X327135428Y-279852200D01*
X327278285Y-279780771D01*
X327564000Y-279780771D01*
X327706857Y-279852200D01*
X327778285Y-279995057D01*
X327778285Y-280137914D01*
X327064000Y-280280771D01*
X328421142Y-280637914D02*
X328492571Y-280709342D01*
X328421142Y-280780771D01*
X328349714Y-280709342D01*
X328421142Y-280637914D01*
X328421142Y-280780771D01*
X328421142Y-279852200D02*
X328492571Y-279923628D01*
X328421142Y-279995057D01*
X328349714Y-279923628D01*
X328421142Y-279852200D01*
X328421142Y-279995057D01*
D10*
D11*
X299989000Y-281502200D02*
X407989000Y-281502200D01*
D10*
D11*
X301421142Y-283580771D02*
X301421142Y-282080771D01*
X302278285Y-283580771D02*
X301635428Y-282723628D01*
X302278285Y-282080771D02*
X301421142Y-282937914D01*
X302921142Y-283580771D02*
X302921142Y-282580771D01*
X302921142Y-282080771D02*
X302849714Y-282152200D01*
X302921142Y-282223628D01*
X302992571Y-282152200D01*
X302921142Y-282080771D01*
X302921142Y-282223628D01*
X304492571Y-283437914D02*
X304421142Y-283509342D01*
X304206857Y-283580771D01*
X304064000Y-283580771D01*
X303849714Y-283509342D01*
X303706857Y-283366485D01*
X303635428Y-283223628D01*
X303564000Y-282937914D01*
X303564000Y-282723628D01*
X303635428Y-282437914D01*
X303706857Y-282295057D01*
X303849714Y-282152200D01*
X304064000Y-282080771D01*
X304206857Y-282080771D01*
X304421142Y-282152200D01*
X304492571Y-282223628D01*
X305778285Y-283580771D02*
X305778285Y-282795057D01*
X305706857Y-282652200D01*
X305564000Y-282580771D01*
X305278285Y-282580771D01*
X305135428Y-282652200D01*
X305778285Y-283509342D02*
X305635428Y-283580771D01*
X305278285Y-283580771D01*
X305135428Y-283509342D01*
X305064000Y-283366485D01*
X305064000Y-283223628D01*
X305135428Y-283080771D01*
X305278285Y-283009342D01*
X305635428Y-283009342D01*
X305778285Y-282937914D01*
X307135428Y-283580771D02*
X307135428Y-282080771D01*
X307135428Y-283509342D02*
X306992571Y-283580771D01*
X306706857Y-283580771D01*
X306564000Y-283509342D01*
X306492571Y-283437914D01*
X306421142Y-283295057D01*
X306421142Y-282866485D01*
X306492571Y-282723628D01*
X306564000Y-282652200D01*
X306706857Y-282580771D01*
X306992571Y-282580771D01*
X307135428Y-282652200D01*
X308992571Y-282795057D02*
X309492571Y-282795057D01*
X309706857Y-283580771D02*
X308992571Y-283580771D01*
X308992571Y-282080771D01*
X309706857Y-282080771D01*
X310349714Y-283437914D02*
X310421142Y-283509342D01*
X310349714Y-283580771D01*
X310278285Y-283509342D01*
X310349714Y-283437914D01*
X310349714Y-283580771D01*
X311064000Y-283580771D02*
X311064000Y-282080771D01*
X311421142Y-282080771D01*
X311635428Y-282152200D01*
X311778285Y-282295057D01*
X311849714Y-282437914D01*
X311921142Y-282723628D01*
X311921142Y-282937914D01*
X311849714Y-283223628D01*
X311778285Y-283366485D01*
X311635428Y-283509342D01*
X311421142Y-283580771D01*
X311064000Y-283580771D01*
X312564000Y-283437914D02*
X312635428Y-283509342D01*
X312564000Y-283580771D01*
X312492571Y-283509342D01*
X312564000Y-283437914D01*
X312564000Y-283580771D01*
X313206857Y-283152200D02*
X313921142Y-283152200D01*
X313064000Y-283580771D02*
X313564000Y-282080771D01*
X314064000Y-283580771D01*
X314564000Y-283437914D02*
X314635428Y-283509342D01*
X314564000Y-283580771D01*
X314492571Y-283509342D01*
X314564000Y-283437914D01*
X314564000Y-283580771D01*
X317564000Y-283580771D02*
X317564000Y-282080771D01*
X317706857Y-283009342D02*
X318135428Y-283580771D01*
X318135428Y-282580771D02*
X317564000Y-283152200D01*
X318778285Y-283580771D02*
X318778285Y-282580771D01*
X318778285Y-282080771D02*
X318706857Y-282152200D01*
X318778285Y-282223628D01*
X318849714Y-282152200D01*
X318778285Y-282080771D01*
X318778285Y-282223628D01*
X320135428Y-283509342D02*
X319992571Y-283580771D01*
X319706857Y-283580771D01*
X319564000Y-283509342D01*
X319492571Y-283437914D01*
X319421142Y-283295057D01*
X319421142Y-282866485D01*
X319492571Y-282723628D01*
X319564000Y-282652200D01*
X319706857Y-282580771D01*
X319992571Y-282580771D01*
X320135428Y-282652200D01*
X321421142Y-283580771D02*
X321421142Y-282795057D01*
X321349714Y-282652200D01*
X321206857Y-282580771D01*
X320921142Y-282580771D01*
X320778285Y-282652200D01*
X321421142Y-283509342D02*
X321278285Y-283580771D01*
X320921142Y-283580771D01*
X320778285Y-283509342D01*
X320706857Y-283366485D01*
X320706857Y-283223628D01*
X320778285Y-283080771D01*
X320921142Y-283009342D01*
X321278285Y-283009342D01*
X321421142Y-282937914D01*
X322778285Y-283580771D02*
X322778285Y-282080771D01*
X322778285Y-283509342D02*
X322635428Y-283580771D01*
X322349714Y-283580771D01*
X322206857Y-283509342D01*
X322135428Y-283437914D01*
X322064000Y-283295057D01*
X322064000Y-282866485D01*
X322135428Y-282723628D01*
X322206857Y-282652200D01*
X322349714Y-282580771D01*
X322635428Y-282580771D01*
X322778285Y-282652200D01*
X325064000Y-284152200D02*
X324992571Y-284080771D01*
X324849714Y-283866485D01*
X324778285Y-283723628D01*
X324706857Y-283509342D01*
X324635428Y-283152200D01*
X324635428Y-282866485D01*
X324706857Y-282509342D01*
X324778285Y-282295057D01*
X324849714Y-282152200D01*
X324992571Y-281937914D01*
X325064000Y-281866485D01*
X326349714Y-282080771D02*
X325635428Y-282080771D01*
X325564000Y-282795057D01*
X325635428Y-282723628D01*
X325778285Y-282652200D01*
X326135428Y-282652200D01*
X326278285Y-282723628D01*
X326349714Y-282795057D01*
X326421142Y-282937914D01*
X326421142Y-283295057D01*
X326349714Y-283437914D01*
X326278285Y-283509342D01*
X326135428Y-283580771D01*
X325778285Y-283580771D01*
X325635428Y-283509342D01*
X325564000Y-283437914D01*
X327064000Y-283437914D02*
X327135428Y-283509342D01*
X327064000Y-283580771D01*
X326992571Y-283509342D01*
X327064000Y-283437914D01*
X327064000Y-283580771D01*
X328564000Y-283580771D02*
X327706857Y-283580771D01*
X328135428Y-283580771D02*
X328135428Y-282080771D01*
X327992571Y-282295057D01*
X327849714Y-282437914D01*
X327706857Y-282509342D01*
X329206857Y-283437914D02*
X329278285Y-283509342D01*
X329206857Y-283580771D01*
X329135428Y-283509342D01*
X329206857Y-283437914D01*
X329206857Y-283580771D01*
X330135428Y-282723628D02*
X329992571Y-282652200D01*
X329921142Y-282580771D01*
X329849714Y-282437914D01*
X329849714Y-282366485D01*
X329921142Y-282223628D01*
X329992571Y-282152200D01*
X330135428Y-282080771D01*
X330421142Y-282080771D01*
X330564000Y-282152200D01*
X330635428Y-282223628D01*
X330706857Y-282366485D01*
X330706857Y-282437914D01*
X330635428Y-282580771D01*
X330564000Y-282652200D01*
X330421142Y-282723628D01*
X330135428Y-282723628D01*
X329992571Y-282795057D01*
X329921142Y-282866485D01*
X329849714Y-283009342D01*
X329849714Y-283295057D01*
X329921142Y-283437914D01*
X329992571Y-283509342D01*
X330135428Y-283580771D01*
X330421142Y-283580771D01*
X330564000Y-283509342D01*
X330635428Y-283437914D01*
X330706857Y-283295057D01*
X330706857Y-283009342D01*
X330635428Y-282866485D01*
X330564000Y-282795057D01*
X330421142Y-282723628D01*
X331349714Y-283009342D02*
X332492571Y-283009342D01*
X333492571Y-282080771D02*
X333635428Y-282080771D01*
X333778285Y-282152200D01*
X333849714Y-282223628D01*
X333921142Y-282366485D01*
X333992571Y-282652200D01*
X333992571Y-283009342D01*
X333921142Y-283295057D01*
X333849714Y-283437914D01*
X333778285Y-283509342D01*
X333635428Y-283580771D01*
X333492571Y-283580771D01*
X333349714Y-283509342D01*
X333278285Y-283437914D01*
X333206857Y-283295057D01*
X333135428Y-283009342D01*
X333135428Y-282652200D01*
X333206857Y-282366485D01*
X333278285Y-282223628D01*
X333349714Y-282152200D01*
X333492571Y-282080771D01*
X334635428Y-283009342D02*
X335778285Y-283009342D01*
X337278285Y-283580771D02*
X336421142Y-283580771D01*
X336849714Y-283580771D02*
X336849714Y-282080771D01*
X336706857Y-282295057D01*
X336564000Y-282437914D01*
X336421142Y-282509342D01*
X338206857Y-282080771D02*
X338349714Y-282080771D01*
X338492571Y-282152200D01*
X338564000Y-282223628D01*
X338635428Y-282366485D01*
X338706857Y-282652200D01*
X338706857Y-283009342D01*
X338635428Y-283295057D01*
X338564000Y-283437914D01*
X338492571Y-283509342D01*
X338349714Y-283580771D01*
X338206857Y-283580771D01*
X338064000Y-283509342D01*
X337992571Y-283437914D01*
X337921142Y-283295057D01*
X337849714Y-283009342D01*
X337849714Y-282652200D01*
X337921142Y-282366485D01*
X337992571Y-282223628D01*
X338064000Y-282152200D01*
X338206857Y-282080771D01*
X338992571Y-283723628D02*
X340135428Y-283723628D01*
X341278285Y-283580771D02*
X340421142Y-283580771D01*
X340849714Y-283580771D02*
X340849714Y-282080771D01*
X340706857Y-282295057D01*
X340564000Y-282437914D01*
X340421142Y-282509342D01*
X342564000Y-282580771D02*
X342564000Y-283580771D01*
X342206857Y-282009342D02*
X341849714Y-283080771D01*
X342778285Y-283080771D01*
X343206857Y-284152200D02*
X343278285Y-284080771D01*
X343421142Y-283866485D01*
X343492571Y-283723628D01*
X343564000Y-283509342D01*
X343635428Y-283152200D01*
X343635428Y-282866485D01*
X343564000Y-282509342D01*
X343492571Y-282295057D01*
X343421142Y-282152200D01*
X343278285Y-281937914D01*
X343206857Y-281866485D01*
D10*
D11*
X299989000Y-278502200D02*
X407989000Y-278502200D01*
D10*
D12*
X387398285Y-280780771D02*
X386898285Y-280066485D01*
X386541142Y-280780771D02*
X386541142Y-279280771D01*
X387112571Y-279280771D01*
X387255428Y-279352200D01*
X387326857Y-279423628D01*
X387398285Y-279566485D01*
X387398285Y-279780771D01*
X387326857Y-279923628D01*
X387255428Y-279995057D01*
X387112571Y-280066485D01*
X386541142Y-280066485D01*
X388612571Y-280709342D02*
X388469714Y-280780771D01*
X388184000Y-280780771D01*
X388041142Y-280709342D01*
X387969714Y-280566485D01*
X387969714Y-279995057D01*
X388041142Y-279852200D01*
X388184000Y-279780771D01*
X388469714Y-279780771D01*
X388612571Y-279852200D01*
X388684000Y-279995057D01*
X388684000Y-280137914D01*
X387969714Y-280280771D01*
X389184000Y-279780771D02*
X389541142Y-280780771D01*
X389898285Y-279780771D01*
X390469714Y-280637914D02*
X390541142Y-280709342D01*
X390469714Y-280780771D01*
X390398285Y-280709342D01*
X390469714Y-280637914D01*
X390469714Y-280780771D01*
X390469714Y-279852200D02*
X390541142Y-279923628D01*
X390469714Y-279995057D01*
X390398285Y-279923628D01*
X390469714Y-279852200D01*
X390469714Y-279995057D01*
D10*
D11*
X301349714Y-280709342D02*
X301564000Y-280780771D01*
X301921142Y-280780771D01*
X302064000Y-280709342D01*
X302135428Y-280637914D01*
X302206857Y-280495057D01*
X302206857Y-280352200D01*
X302135428Y-280209342D01*
X302064000Y-280137914D01*
X301921142Y-280066485D01*
X301635428Y-279995057D01*
X301492571Y-279923628D01*
X301421142Y-279852200D01*
X301349714Y-279709342D01*
X301349714Y-279566485D01*
X301421142Y-279423628D01*
X301492571Y-279352200D01*
X301635428Y-279280771D01*
X301992571Y-279280771D01*
X302206857Y-279352200D01*
X302849714Y-280780771D02*
X302849714Y-279780771D01*
X302849714Y-279280771D02*
X302778285Y-279352200D01*
X302849714Y-279423628D01*
X302921142Y-279352200D01*
X302849714Y-279280771D01*
X302849714Y-279423628D01*
X303421142Y-279780771D02*
X304206857Y-279780771D01*
X303421142Y-280780771D01*
X304206857Y-280780771D01*
X305349714Y-280709342D02*
X305206857Y-280780771D01*
X304921142Y-280780771D01*
X304778285Y-280709342D01*
X304706857Y-280566485D01*
X304706857Y-279995057D01*
X304778285Y-279852200D01*
X304921142Y-279780771D01*
X305206857Y-279780771D01*
X305349714Y-279852200D01*
X305421142Y-279995057D01*
X305421142Y-280137914D01*
X304706857Y-280280771D01*
X306064000Y-280637914D02*
X306135428Y-280709342D01*
X306064000Y-280780771D01*
X305992571Y-280709342D01*
X306064000Y-280637914D01*
X306064000Y-280780771D01*
X306064000Y-279852200D02*
X306135428Y-279923628D01*
X306064000Y-279995057D01*
X305992571Y-279923628D01*
X306064000Y-279852200D01*
X306064000Y-279995057D01*
X307849714Y-280352200D02*
X308564000Y-280352200D01*
X307706857Y-280780771D02*
X308206857Y-279280771D01*
X308706857Y-280780771D01*
X309064000Y-279280771D02*
X309992571Y-279280771D01*
X309492571Y-279852200D01*
X309706857Y-279852200D01*
X309849714Y-279923628D01*
X309921142Y-279995057D01*
X309992571Y-280137914D01*
X309992571Y-280495057D01*
X309921142Y-280637914D01*
X309849714Y-280709342D01*
X309706857Y-280780771D01*
X309278285Y-280780771D01*
X309135428Y-280709342D01*
X309064000Y-280637914D01*
D10*
D11*
X386421142Y-283580771D02*
X386421142Y-282080771D01*
X387778285Y-283580771D02*
X387778285Y-282080771D01*
X387778285Y-283509342D02*
X387635428Y-283580771D01*
X387349714Y-283580771D01*
X387206857Y-283509342D01*
X387135428Y-283437914D01*
X387064000Y-283295057D01*
X387064000Y-282866485D01*
X387135428Y-282723628D01*
X387206857Y-282652200D01*
X387349714Y-282580771D01*
X387635428Y-282580771D01*
X387778285Y-282652200D01*
X388492571Y-283437914D02*
X388564000Y-283509342D01*
X388492571Y-283580771D01*
X388421142Y-283509342D01*
X388492571Y-283437914D01*
X388492571Y-283580771D01*
X388492571Y-282652200D02*
X388564000Y-282723628D01*
X388492571Y-282795057D01*
X388421142Y-282723628D01*
X388492571Y-282652200D01*
X388492571Y-282795057D01*
X391135428Y-283580771D02*
X390278285Y-283580771D01*
X390706857Y-283580771D02*
X390706857Y-282080771D01*
X390564000Y-282295057D01*
X390421142Y-282437914D01*
X390278285Y-282509342D01*
X392849714Y-282009342D02*
X391564000Y-283937914D01*
X394135428Y-283580771D02*
X393278285Y-283580771D01*
X393706857Y-283580771D02*
X393706857Y-282080771D01*
X393564000Y-282295057D01*
X393421142Y-282437914D01*
X393278285Y-282509342D01*
D10*
D11*
X299989000Y-274502200D02*
X407989000Y-274502200D01*
D10*
D13*
X301701380Y-275206961D02*
X302844238Y-275206961D01*
X302022809Y-277206961D02*
X302272809Y-275206961D01*
X303260904Y-277206961D02*
X303427571Y-275873628D01*
X303510904Y-275206961D02*
X303403761Y-275302200D01*
X303487095Y-275397438D01*
X303594238Y-275302200D01*
X303510904Y-275206961D01*
X303487095Y-275397438D01*
X304094238Y-275873628D02*
X304856142Y-275873628D01*
X304463285Y-275206961D02*
X304249000Y-276921247D01*
X304320428Y-277111723D01*
X304499000Y-277206961D01*
X304689476Y-277206961D01*
X305641857Y-277206961D02*
X305463285Y-277111723D01*
X305391857Y-276921247D01*
X305606142Y-275206961D01*
X307177571Y-277111723D02*
X306975190Y-277206961D01*
X306594238Y-277206961D01*
X306415666Y-277111723D01*
X306344238Y-276921247D01*
X306439476Y-276159342D01*
X306558523Y-275968866D01*
X306760904Y-275873628D01*
X307141857Y-275873628D01*
X307320428Y-275968866D01*
X307391857Y-276159342D01*
X307368047Y-276349819D01*
X306391857Y-276540295D01*
X308141857Y-277016485D02*
X308225190Y-277111723D01*
X308118047Y-277206961D01*
X308034714Y-277111723D01*
X308141857Y-277016485D01*
X308118047Y-277206961D01*
X308272809Y-275968866D02*
X308356142Y-276064104D01*
X308249000Y-276159342D01*
X308165666Y-276064104D01*
X308272809Y-275968866D01*
X308249000Y-276159342D01*
D10*
D11*
X301921142Y-272595057D02*
X301421142Y-272595057D01*
X301421142Y-273380771D02*
X301421142Y-271880771D01*
X302135428Y-271880771D01*
X302706857Y-273380771D02*
X302706857Y-272380771D01*
X302706857Y-271880771D02*
X302635428Y-271952200D01*
X302706857Y-272023628D01*
X302778285Y-271952200D01*
X302706857Y-271880771D01*
X302706857Y-272023628D01*
X303635428Y-273380771D02*
X303492571Y-273309342D01*
X303421142Y-273166485D01*
X303421142Y-271880771D01*
X304778285Y-273309342D02*
X304635428Y-273380771D01*
X304349714Y-273380771D01*
X304206857Y-273309342D01*
X304135428Y-273166485D01*
X304135428Y-272595057D01*
X304206857Y-272452200D01*
X304349714Y-272380771D01*
X304635428Y-272380771D01*
X304778285Y-272452200D01*
X304849714Y-272595057D01*
X304849714Y-272737914D01*
X304135428Y-272880771D01*
X305492571Y-273237914D02*
X305564000Y-273309342D01*
X305492571Y-273380771D01*
X305421142Y-273309342D01*
X305492571Y-273237914D01*
X305492571Y-273380771D01*
X305492571Y-272452200D02*
X305564000Y-272523628D01*
X305492571Y-272595057D01*
X305421142Y-272523628D01*
X305492571Y-272452200D01*
X305492571Y-272595057D01*
X307349714Y-273380771D02*
X307349714Y-271880771D01*
X307992571Y-273380771D02*
X307992571Y-272595057D01*
X307921142Y-272452200D01*
X307778285Y-272380771D01*
X307564000Y-272380771D01*
X307421142Y-272452200D01*
X307349714Y-272523628D01*
X308564000Y-272380771D02*
X308921142Y-273380771D01*
X309278285Y-272380771D02*
X308921142Y-273380771D01*
X308778285Y-273737914D01*
X308706857Y-273809342D01*
X308564000Y-273880771D01*
X309849714Y-273380771D02*
X309849714Y-271880771D01*
X309849714Y-272452200D02*
X309992571Y-272380771D01*
X310278285Y-272380771D01*
X310421142Y-272452200D01*
X310492571Y-272523628D01*
X310564000Y-272666485D01*
X310564000Y-273095057D01*
X310492571Y-273237914D01*
X310421142Y-273309342D01*
X310278285Y-273380771D01*
X309992571Y-273380771D01*
X309849714Y-273309342D01*
X311421142Y-273380771D02*
X311278285Y-273309342D01*
X311206857Y-273237914D01*
X311135428Y-273095057D01*
X311135428Y-272666485D01*
X311206857Y-272523628D01*
X311278285Y-272452200D01*
X311421142Y-272380771D01*
X311635428Y-272380771D01*
X311778285Y-272452200D01*
X311849714Y-272523628D01*
X311921142Y-272666485D01*
X311921142Y-273095057D01*
X311849714Y-273237914D01*
X311778285Y-273309342D01*
X311635428Y-273380771D01*
X311421142Y-273380771D01*
X312564000Y-273380771D02*
X312564000Y-271880771D01*
X313206857Y-273380771D02*
X313206857Y-272595057D01*
X313135428Y-272452200D01*
X312992571Y-272380771D01*
X312778285Y-272380771D01*
X312635428Y-272452200D01*
X312564000Y-272523628D01*
X314564000Y-273380771D02*
X314564000Y-272595057D01*
X314492571Y-272452200D01*
X314349714Y-272380771D01*
X314064000Y-272380771D01*
X313921142Y-272452200D01*
X314564000Y-273309342D02*
X314421142Y-273380771D01*
X314064000Y-273380771D01*
X313921142Y-273309342D01*
X313849714Y-273166485D01*
X313849714Y-273023628D01*
X313921142Y-272880771D01*
X314064000Y-272809342D01*
X314421142Y-272809342D01*
X314564000Y-272737914D01*
X315064000Y-272380771D02*
X315635428Y-272380771D01*
X315278285Y-271880771D02*
X315278285Y-273166485D01*
X315349714Y-273309342D01*
X315492571Y-273380771D01*
X315635428Y-273380771D01*
X316135428Y-273237914D02*
X316206857Y-273309342D01*
X316135428Y-273380771D01*
X316064000Y-273309342D01*
X316135428Y-273237914D01*
X316135428Y-273380771D01*
X316849714Y-273380771D02*
X316849714Y-271880771D01*
X316992571Y-272809342D02*
X317421142Y-273380771D01*
X317421142Y-272380771D02*
X316849714Y-272952200D01*
X318064000Y-273380771D02*
X318064000Y-272380771D01*
X318064000Y-271880771D02*
X317992571Y-271952200D01*
X318064000Y-272023628D01*
X318135428Y-271952200D01*
X318064000Y-271880771D01*
X318064000Y-272023628D01*
X319421142Y-273309342D02*
X319278285Y-273380771D01*
X318992571Y-273380771D01*
X318849714Y-273309342D01*
X318778285Y-273237914D01*
X318706857Y-273095057D01*
X318706857Y-272666485D01*
X318778285Y-272523628D01*
X318849714Y-272452200D01*
X318992571Y-272380771D01*
X319278285Y-272380771D01*
X319421142Y-272452200D01*
X320706857Y-273380771D02*
X320706857Y-272595057D01*
X320635428Y-272452200D01*
X320492571Y-272380771D01*
X320206857Y-272380771D01*
X320064000Y-272452200D01*
X320706857Y-273309342D02*
X320564000Y-273380771D01*
X320206857Y-273380771D01*
X320064000Y-273309342D01*
X319992571Y-273166485D01*
X319992571Y-273023628D01*
X320064000Y-272880771D01*
X320206857Y-272809342D01*
X320564000Y-272809342D01*
X320706857Y-272737914D01*
X322064000Y-273380771D02*
X322064000Y-271880771D01*
X322064000Y-273309342D02*
X321921142Y-273380771D01*
X321635428Y-273380771D01*
X321492571Y-273309342D01*
X321421142Y-273237914D01*
X321349714Y-273095057D01*
X321349714Y-272666485D01*
X321421142Y-272523628D01*
X321492571Y-272452200D01*
X321635428Y-272380771D01*
X321921142Y-272380771D01*
X322064000Y-272452200D01*
X322421142Y-273523628D02*
X323564000Y-273523628D01*
X323921142Y-272380771D02*
X323921142Y-273880771D01*
X323921142Y-272452200D02*
X324064000Y-272380771D01*
X324349714Y-272380771D01*
X324492571Y-272452200D01*
X324564000Y-272523628D01*
X324635428Y-272666485D01*
X324635428Y-273095057D01*
X324564000Y-273237914D01*
X324492571Y-273309342D01*
X324349714Y-273380771D01*
X324064000Y-273380771D01*
X323921142Y-273309342D01*
X325921142Y-273309342D02*
X325778285Y-273380771D01*
X325492571Y-273380771D01*
X325349714Y-273309342D01*
X325278285Y-273237914D01*
X325206857Y-273095057D01*
X325206857Y-272666485D01*
X325278285Y-272523628D01*
X325349714Y-272452200D01*
X325492571Y-272380771D01*
X325778285Y-272380771D01*
X325921142Y-272452200D01*
X326564000Y-273380771D02*
X326564000Y-271880771D01*
X326564000Y-272452200D02*
X326706857Y-272380771D01*
X326992571Y-272380771D01*
X327135428Y-272452200D01*
X327206857Y-272523628D01*
X327278285Y-272666485D01*
X327278285Y-273095057D01*
X327206857Y-273237914D01*
X327135428Y-273309342D01*
X326992571Y-273380771D01*
X326706857Y-273380771D01*
X326564000Y-273309342D01*
D10*
D11*
X299989000Y-268502200D02*
X407989000Y-268502200D01*
D10*
D11*
X301349714Y-270609342D02*
X301564000Y-270680771D01*
X301921142Y-270680771D01*
X302064000Y-270609342D01*
X302135428Y-270537914D01*
X302206857Y-270395057D01*
X302206857Y-270252200D01*
X302135428Y-270109342D01*
X302064000Y-270037914D01*
X301921142Y-269966485D01*
X301635428Y-269895057D01*
X301492571Y-269823628D01*
X301421142Y-269752200D01*
X301349714Y-269609342D01*
X301349714Y-269466485D01*
X301421142Y-269323628D01*
X301492571Y-269252200D01*
X301635428Y-269180771D01*
X301992571Y-269180771D01*
X302206857Y-269252200D01*
X302849714Y-270680771D02*
X302849714Y-269180771D01*
X303492571Y-270680771D02*
X303492571Y-269895057D01*
X303421142Y-269752200D01*
X303278285Y-269680771D01*
X303064000Y-269680771D01*
X302921142Y-269752200D01*
X302849714Y-269823628D01*
X304778285Y-270609342D02*
X304635428Y-270680771D01*
X304349714Y-270680771D01*
X304206857Y-270609342D01*
X304135428Y-270466485D01*
X304135428Y-269895057D01*
X304206857Y-269752200D01*
X304349714Y-269680771D01*
X304635428Y-269680771D01*
X304778285Y-269752200D01*
X304849714Y-269895057D01*
X304849714Y-270037914D01*
X304135428Y-270180771D01*
X306064000Y-270609342D02*
X305921142Y-270680771D01*
X305635428Y-270680771D01*
X305492571Y-270609342D01*
X305421142Y-270466485D01*
X305421142Y-269895057D01*
X305492571Y-269752200D01*
X305635428Y-269680771D01*
X305921142Y-269680771D01*
X306064000Y-269752200D01*
X306135428Y-269895057D01*
X306135428Y-270037914D01*
X305421142Y-270180771D01*
X306564000Y-269680771D02*
X307135428Y-269680771D01*
X306778285Y-269180771D02*
X306778285Y-270466485D01*
X306849714Y-270609342D01*
X306992571Y-270680771D01*
X307135428Y-270680771D01*
X307635428Y-270537914D02*
X307706857Y-270609342D01*
X307635428Y-270680771D01*
X307564000Y-270609342D01*
X307635428Y-270537914D01*
X307635428Y-270680771D01*
X307635428Y-269752200D02*
X307706857Y-269823628D01*
X307635428Y-269895057D01*
X307564000Y-269823628D01*
X307635428Y-269752200D01*
X307635428Y-269895057D01*
D10*
D11*
X319989000Y-278502200D02*
X319989000Y-281502200D01*
D10*
D11*
X383989000Y-278502200D02*
X383989000Y-285002200D01*
D14*
X94022857Y-139743571D02*
X94022857Y-138243571D01*
X93451428Y-138243571D01*
X93308571Y-138315000D01*
X93237142Y-138386428D01*
X93165714Y-138529285D01*
X93165714Y-138743571D01*
X93237142Y-138886428D01*
X93308571Y-138957857D01*
X93451428Y-139029285D01*
X94022857Y-139029285D01*
X92522857Y-139743571D02*
X92522857Y-138243571D01*
X91665714Y-139743571D01*
X91665714Y-138243571D01*
X90951428Y-139600714D02*
X90880000Y-139672142D01*
X90951428Y-139743571D01*
X91022857Y-139672142D01*
X90951428Y-139600714D01*
X90951428Y-139743571D01*
X90951428Y-138815000D02*
X90880000Y-138886428D01*
X90951428Y-138957857D01*
X91022857Y-138886428D01*
X90951428Y-138815000D01*
X90951428Y-138957857D01*
X88308571Y-139743571D02*
X89165714Y-139743571D01*
X88737142Y-139743571D02*
X88737142Y-138243571D01*
X88880000Y-138457857D01*
X89022857Y-138600714D01*
X89165714Y-138672142D01*
X87737142Y-138386428D02*
X87665714Y-138315000D01*
X87522857Y-138243571D01*
X87165714Y-138243571D01*
X87022857Y-138315000D01*
X86951428Y-138386428D01*
X86880000Y-138529285D01*
X86880000Y-138672142D01*
X86951428Y-138886428D01*
X87808571Y-139743571D01*
X86880000Y-139743571D01*
X86380000Y-138243571D02*
X85380000Y-138243571D01*
X86022857Y-139743571D01*
X84094285Y-138243571D02*
X84808571Y-138243571D01*
X84880000Y-138957857D01*
X84808571Y-138886428D01*
X84665714Y-138815000D01*
X84308571Y-138815000D01*
X84165714Y-138886428D01*
X84094285Y-138957857D01*
X84022857Y-139100714D01*
X84022857Y-139457857D01*
X84094285Y-139600714D01*
X84165714Y-139672142D01*
X84308571Y-139743571D01*
X84665714Y-139743571D01*
X84808571Y-139672142D01*
X84880000Y-139600714D01*
X83165714Y-138886428D02*
X83308571Y-138815000D01*
X83380000Y-138743571D01*
X83451428Y-138600714D01*
X83451428Y-138529285D01*
X83380000Y-138386428D01*
X83308571Y-138315000D01*
X83165714Y-138243571D01*
X82880000Y-138243571D01*
X82737142Y-138315000D01*
X82665714Y-138386428D01*
X82594285Y-138529285D01*
X82594285Y-138600714D01*
X82665714Y-138743571D01*
X82737142Y-138815000D01*
X82880000Y-138886428D01*
X83165714Y-138886428D01*
X83308571Y-138957857D01*
X83380000Y-139029285D01*
X83451428Y-139172142D01*
X83451428Y-139457857D01*
X83380000Y-139600714D01*
X83308571Y-139672142D01*
X83165714Y-139743571D01*
X82880000Y-139743571D01*
X82737142Y-139672142D01*
X82665714Y-139600714D01*
X82594285Y-139457857D01*
X82594285Y-139172142D01*
X82665714Y-139029285D01*
X82737142Y-138957857D01*
X82880000Y-138886428D01*
X81165714Y-139743571D02*
X82022857Y-139743571D01*
X81594285Y-139743571D02*
X81594285Y-138243571D01*
X81737142Y-138457857D01*
X81880000Y-138600714D01*
X82022857Y-138672142D01*
D15*
X123190000Y-99060000D03*
X123190000Y-101600000D03*
X125730000Y-99060000D03*
X125730000Y-101600000D03*
X128270000Y-99060000D03*
X128270000Y-101600000D03*
X130810000Y-99060000D03*
X130810000Y-101600000D03*
X133350000Y-99060000D03*
X133350000Y-101600000D03*
X135890000Y-99060000D03*
X135890000Y-101600000D03*
X138430000Y-99060000D03*
X138430000Y-101600000D03*
X140970000Y-99060000D03*
D16*
X140970000Y-101600000D03*
D17*
X107315000Y-35560000D03*
D18*
X78952540Y-60325000D03*
X136950000Y-83333000D03*
X136950000Y-60325000D03*
X136956800Y-111252000D03*
D15*
X82550000Y-99060000D03*
X82550000Y-101600000D03*
X85090000Y-99060000D03*
X85090000Y-101600000D03*
X87630000Y-99060000D03*
X87630000Y-101600000D03*
X90170000Y-99060000D03*
X90170000Y-101600000D03*
X92710000Y-99060000D03*
X92710000Y-101600000D03*
X95250000Y-99060000D03*
X95250000Y-101600000D03*
X97790000Y-99060000D03*
X97790000Y-101600000D03*
X100330000Y-99060000D03*
X100330000Y-101600000D03*
X102870000Y-99060000D03*
X102870000Y-101600000D03*
X105410000Y-99060000D03*
X105410000Y-101600000D03*
X107950000Y-99060000D03*
X107950000Y-101600000D03*
X110490000Y-99060000D03*
X110490000Y-101600000D03*
X113030000Y-99060000D03*
X113030000Y-101600000D03*
X115570000Y-99060000D03*
X115570000Y-101600000D03*
X118110000Y-99060000D03*
D16*
X118110000Y-101600000D03*
D18*
X102870000Y-68580000D03*
X78740000Y-54610000D03*
D19*
X213995000Y-38100000D03*
D20*
X222250000Y-38100000D03*
D15*
X198120000Y-40640000D03*
D16*
X198120000Y-38100000D03*
D15*
X195580000Y-40640000D03*
D16*
X195580000Y-38100000D03*
D15*
X190500000Y-40640000D03*
D16*
X190500000Y-38100000D03*
D15*
X193040000Y-40640000D03*
D16*
X193040000Y-38100000D03*
D15*
X200660000Y-40640000D03*
D16*
X200660000Y-38100000D03*
D18*
X153670000Y-53340000D03*
X78950000Y-83333000D03*
X155016200Y-101600000D03*
D17*
X234315000Y-35560000D03*
D15*
X114935000Y-127000000D03*
X112395000Y-127000000D03*
X109855000Y-127000000D03*
X107315000Y-127000000D03*
X104775000Y-127000000D03*
X102235000Y-127000000D03*
X99695000Y-127000000D03*
X97155000Y-127000000D03*
X94615000Y-127000000D03*
X92075000Y-127000000D03*
X89535000Y-127000000D03*
X86995000Y-127000000D03*
X84455000Y-127000000D03*
X81915000Y-127000000D03*
D16*
X79375000Y-127000000D03*
D15*
X138430000Y-42545000D03*
X138430000Y-40005000D03*
X135890000Y-42545000D03*
X135890000Y-40005000D03*
X133350000Y-42545000D03*
X133350000Y-40005000D03*
X130810000Y-42545000D03*
X130810000Y-40005000D03*
X128270000Y-42545000D03*
X128270000Y-40005000D03*
X125730000Y-42545000D03*
X125730000Y-40005000D03*
X123190000Y-42545000D03*
X123190000Y-40005000D03*
X120650000Y-42545000D03*
X120650000Y-40005000D03*
X118110000Y-42545000D03*
X118110000Y-40005000D03*
X115570000Y-42545000D03*
X115570000Y-40005000D03*
X113030000Y-42545000D03*
X113030000Y-40005000D03*
X110490000Y-42545000D03*
X110490000Y-40005000D03*
X107950000Y-42545000D03*
X107950000Y-40005000D03*
X105410000Y-42545000D03*
X105410000Y-40005000D03*
X102870000Y-42545000D03*
X102870000Y-40005000D03*
X100330000Y-42545000D03*
X100330000Y-40005000D03*
X97790000Y-42545000D03*
X97790000Y-40005000D03*
X95250000Y-42545000D03*
X95250000Y-40005000D03*
X92710000Y-42545000D03*
X92710000Y-40005000D03*
X90170000Y-42545000D03*
X90170000Y-40005000D03*
X87630000Y-42545000D03*
X87630000Y-40005000D03*
X85090000Y-42545000D03*
X85090000Y-40005000D03*
X82550000Y-42545000D03*
X82550000Y-40005000D03*
X80010000Y-42545000D03*
X80010000Y-40005000D03*
X77470000Y-42545000D03*
D16*
X77470000Y-40005000D03*
D15*
X166920000Y-137160000D03*
X164380000Y-137160000D03*
D16*
X161840000Y-137160000D03*
D15*
X189230000Y-137160000D03*
X186690000Y-137160000D03*
X184150000Y-137160000D03*
X181610000Y-137160000D03*
X179070000Y-137160000D03*
X176530000Y-137160000D03*
D16*
X173990000Y-137160000D03*
D15*
X201295000Y-137160000D03*
X198755000Y-137160000D03*
D16*
X196215000Y-137160000D03*
D15*
X212725000Y-137160000D03*
X210185000Y-137160000D03*
D16*
X207645000Y-137160000D03*
D15*
X218440000Y-127000000D03*
X218440000Y-124460000D03*
X220980000Y-127000000D03*
X220980000Y-124460000D03*
X223520000Y-127000000D03*
X223520000Y-124460000D03*
X226060000Y-127000000D03*
X226060000Y-124460000D03*
X228600000Y-127000000D03*
X228600000Y-124460000D03*
X231140000Y-127000000D03*
X231140000Y-124460000D03*
X233680000Y-127000000D03*
X233680000Y-124460000D03*
X236220000Y-127000000D03*
D16*
X236220000Y-124460000D03*
D15*
X214630000Y-88900000D03*
X212090000Y-88900000D03*
X214630000Y-86360000D03*
X212090000Y-86360000D03*
X214630000Y-83820000D03*
X212090000Y-83820000D03*
X214630000Y-81280000D03*
D16*
X212090000Y-81280000D03*
D15*
X229870000Y-111760000D03*
X227330000Y-111760000D03*
X229870000Y-109220000D03*
X227330000Y-109220000D03*
X229870000Y-106680000D03*
X227330000Y-106680000D03*
X229870000Y-104140000D03*
D16*
X227330000Y-104140000D03*
D15*
X214630000Y-60960000D03*
X212090000Y-60960000D03*
X214630000Y-58420000D03*
X212090000Y-58420000D03*
X214630000Y-55880000D03*
X212090000Y-55880000D03*
X214630000Y-53340000D03*
D16*
X212090000Y-53340000D03*
D15*
X229870000Y-99060000D03*
X227330000Y-99060000D03*
X229870000Y-96520000D03*
X227330000Y-96520000D03*
X229870000Y-93980000D03*
X227330000Y-93980000D03*
X229870000Y-91440000D03*
X227330000Y-91440000D03*
X229870000Y-88900000D03*
X227330000Y-88900000D03*
X229870000Y-86360000D03*
X227330000Y-86360000D03*
X229870000Y-83820000D03*
X227330000Y-83820000D03*
X229870000Y-81280000D03*
D16*
X227330000Y-81280000D03*
D15*
X229870000Y-76200000D03*
X227330000Y-76200000D03*
X229870000Y-73660000D03*
X227330000Y-73660000D03*
X229870000Y-71120000D03*
X227330000Y-71120000D03*
X229870000Y-68580000D03*
X227330000Y-68580000D03*
X229870000Y-66040000D03*
X227330000Y-66040000D03*
X229870000Y-63500000D03*
X227330000Y-63500000D03*
X229870000Y-60960000D03*
X227330000Y-60960000D03*
X229870000Y-58420000D03*
X227330000Y-58420000D03*
X229870000Y-55880000D03*
X227330000Y-55880000D03*
X229870000Y-53340000D03*
D16*
X227330000Y-53340000D03*
D15*
X193040000Y-99060000D03*
X190500000Y-99060000D03*
X193040000Y-96520000D03*
X190500000Y-96520000D03*
X193040000Y-93980000D03*
X190500000Y-93980000D03*
X193040000Y-91440000D03*
X190500000Y-91440000D03*
X193040000Y-88900000D03*
X190500000Y-88900000D03*
X193040000Y-86360000D03*
X190500000Y-86360000D03*
X193040000Y-83820000D03*
X190500000Y-83820000D03*
X193040000Y-81280000D03*
D16*
X190500000Y-81280000D03*
D15*
X193040000Y-76200000D03*
X190500000Y-76200000D03*
X193040000Y-73660000D03*
X190500000Y-73660000D03*
X193040000Y-71120000D03*
X190500000Y-71120000D03*
X193040000Y-68580000D03*
X190500000Y-68580000D03*
X193040000Y-66040000D03*
X190500000Y-66040000D03*
X193040000Y-63500000D03*
X190500000Y-63500000D03*
X193040000Y-60960000D03*
X190500000Y-60960000D03*
X193040000Y-58420000D03*
X190500000Y-58420000D03*
X193040000Y-55880000D03*
X190500000Y-55880000D03*
X193040000Y-53340000D03*
X190500000Y-53340000D03*
X193040000Y-50800000D03*
X190500000Y-50800000D03*
X193040000Y-48260000D03*
D16*
X190500000Y-48260000D03*
D15*
X77470000Y-132080000D03*
X80010000Y-132080000D03*
X82550000Y-132080000D03*
X85090000Y-132080000D03*
X87630000Y-132080000D03*
X90170000Y-132080000D03*
X92710000Y-132080000D03*
X95250000Y-132080000D03*
X97790000Y-132080000D03*
X100330000Y-132080000D03*
X102870000Y-132080000D03*
X105410000Y-132080000D03*
X107950000Y-132080000D03*
X110490000Y-132080000D03*
X113030000Y-132080000D03*
X115570000Y-132080000D03*
X118110000Y-132080000D03*
X120650000Y-132080000D03*
D16*
X123190000Y-132080000D03*
D15*
X77470000Y-106680000D03*
X80010000Y-106680000D03*
X82550000Y-106680000D03*
X85090000Y-106680000D03*
X87630000Y-106680000D03*
X90170000Y-106680000D03*
X92710000Y-106680000D03*
X95250000Y-106680000D03*
X97790000Y-106680000D03*
X100330000Y-106680000D03*
X102870000Y-106680000D03*
X105410000Y-106680000D03*
X107950000Y-106680000D03*
X110490000Y-106680000D03*
X113030000Y-106680000D03*
X115570000Y-106680000D03*
X118110000Y-106680000D03*
X120650000Y-106680000D03*
D16*
X123190000Y-106680000D03*
D15*
X132080000Y-61595000D03*
X132080000Y-59055000D03*
X129540000Y-61595000D03*
X129540000Y-59055000D03*
X127000000Y-61595000D03*
X127000000Y-59055000D03*
X124460000Y-61595000D03*
X124460000Y-59055000D03*
X121920000Y-61595000D03*
X121920000Y-59055000D03*
X119380000Y-61595000D03*
X119380000Y-59055000D03*
X116840000Y-61595000D03*
X116840000Y-59055000D03*
X114300000Y-61595000D03*
X114300000Y-59055000D03*
X111760000Y-61595000D03*
X111760000Y-59055000D03*
X109220000Y-61595000D03*
X109220000Y-59055000D03*
X106680000Y-61595000D03*
X106680000Y-59055000D03*
X104140000Y-61595000D03*
X104140000Y-59055000D03*
X101600000Y-61595000D03*
X101600000Y-59055000D03*
X99060000Y-61595000D03*
X99060000Y-59055000D03*
X96520000Y-61595000D03*
X96520000Y-59055000D03*
X93980000Y-61595000D03*
X93980000Y-59055000D03*
X91440000Y-61595000D03*
X91440000Y-59055000D03*
X88900000Y-61595000D03*
X88900000Y-59055000D03*
X86360000Y-61595000D03*
X86360000Y-59055000D03*
X83820000Y-61595000D03*
D16*
X83820000Y-59055000D03*
D15*
X114935000Y-111760000D03*
X112395000Y-111760000D03*
X109855000Y-111760000D03*
X107315000Y-111760000D03*
X104775000Y-111760000D03*
X102235000Y-111760000D03*
X99695000Y-111760000D03*
X97155000Y-111760000D03*
X94615000Y-111760000D03*
X92075000Y-111760000D03*
X89535000Y-111760000D03*
X86995000Y-111760000D03*
X84455000Y-111760000D03*
X81915000Y-111760000D03*
D16*
X79375000Y-111760000D03*
D15*
X138430000Y-93345000D03*
X138430000Y-90805000D03*
X135890000Y-93345000D03*
X135890000Y-90805000D03*
X133350000Y-93345000D03*
X133350000Y-90805000D03*
X130810000Y-93345000D03*
X130810000Y-90805000D03*
X128270000Y-93345000D03*
X128270000Y-90805000D03*
X125730000Y-93345000D03*
X125730000Y-90805000D03*
X123190000Y-93345000D03*
X123190000Y-90805000D03*
X120650000Y-93345000D03*
X120650000Y-90805000D03*
X118110000Y-93345000D03*
X118110000Y-90805000D03*
X115570000Y-93345000D03*
X115570000Y-90805000D03*
X113030000Y-93345000D03*
X113030000Y-90805000D03*
X110490000Y-93345000D03*
X110490000Y-90805000D03*
X107950000Y-93345000D03*
X107950000Y-90805000D03*
X105410000Y-93345000D03*
X105410000Y-90805000D03*
X102870000Y-93345000D03*
X102870000Y-90805000D03*
X100330000Y-93345000D03*
X100330000Y-90805000D03*
X97790000Y-93345000D03*
X97790000Y-90805000D03*
X95250000Y-93345000D03*
X95250000Y-90805000D03*
X92710000Y-93345000D03*
X92710000Y-90805000D03*
X90170000Y-93345000D03*
X90170000Y-90805000D03*
X87630000Y-93345000D03*
X87630000Y-90805000D03*
X85090000Y-93345000D03*
X85090000Y-90805000D03*
X82550000Y-93345000D03*
X82550000Y-90805000D03*
X80010000Y-93345000D03*
X80010000Y-90805000D03*
X77470000Y-93345000D03*
D16*
X77470000Y-90805000D03*
D17*
X107315000Y-137795000D03*
X234315000Y-137795000D03*
D15*
X127270623Y-53321652D03*
X127270623Y-55861652D03*
X129810623Y-53321652D03*
X129810623Y-55861652D03*
X132350623Y-53321652D03*
X132350623Y-55861652D03*
X134890623Y-53321652D03*
X134890623Y-55861652D03*
X137430623Y-53321652D03*
X137430623Y-55861652D03*
X139970623Y-53321652D03*
X139970623Y-55861652D03*
X142510623Y-53321652D03*
X142510623Y-55861652D03*
X145050623Y-53321652D03*
X145050623Y-55861652D03*
X147590623Y-53321652D03*
X147590623Y-55861652D03*
X150130623Y-53321652D03*
D16*
X150130623Y-55861652D03*
D15*
X82550000Y-53340000D03*
X82550000Y-55880000D03*
X85090000Y-53340000D03*
X85090000Y-55880000D03*
X87630000Y-53340000D03*
X87630000Y-55880000D03*
X90170000Y-53340000D03*
X90170000Y-55880000D03*
X92710000Y-53340000D03*
X92710000Y-55880000D03*
X95250000Y-53340000D03*
X95250000Y-55880000D03*
X97790000Y-53340000D03*
X97790000Y-55880000D03*
X100330000Y-53340000D03*
X100330000Y-55880000D03*
X102870000Y-53340000D03*
X102870000Y-55880000D03*
X105410000Y-53340000D03*
X105410000Y-55880000D03*
X107950000Y-53340000D03*
X107950000Y-55880000D03*
X110490000Y-53340000D03*
X110490000Y-55880000D03*
X113030000Y-53340000D03*
X113030000Y-55880000D03*
X115570000Y-53340000D03*
X115570000Y-55880000D03*
X118110000Y-53340000D03*
X118110000Y-55880000D03*
X120650000Y-53340000D03*
X120650000Y-55880000D03*
X123190000Y-53340000D03*
D16*
X123190000Y-55880000D03*
D18*
X110155001Y-79040001D03*
D21*
X215900000Y-135255000D03*
D22*
X96455601Y-47689399D03*
X101535601Y-47689399D03*
X108585000Y-47625000D03*
X130175000Y-47625000D03*
X153670000Y-64770000D03*
X153670000Y-60325000D03*
X132080000Y-106045000D03*
X201295000Y-128905000D03*
X106045000Y-125095000D03*
D21*
X232410000Y-111760000D03*
X232410000Y-106680000D03*
X232410000Y-99060000D03*
X232410000Y-93980000D03*
X232410000Y-88900000D03*
X232410000Y-83820000D03*
X232410000Y-76200000D03*
X232410000Y-71120000D03*
X232410000Y-66040000D03*
X232410000Y-60960004D03*
X232410000Y-55880000D03*
D22*
X196215000Y-127000000D03*
X108585000Y-123825000D03*
D21*
X233680000Y-109220000D03*
X233680000Y-104140000D03*
X233680000Y-96520000D03*
X233680000Y-91440000D03*
X233680000Y-86360000D03*
X233680000Y-81280000D03*
X233680000Y-73660000D03*
X233680000Y-68580000D03*
X233680000Y-63500000D03*
X233680000Y-58420000D03*
X233680000Y-53340006D03*
D22*
X145415000Y-76835000D03*
D21*
X210185000Y-80010000D03*
D22*
X147320000Y-76835004D03*
X145415000Y-90170000D03*
X145415000Y-99060000D03*
D21*
X207645000Y-101600000D03*
X209042000Y-101600000D03*
D22*
X147320000Y-50800000D03*
D21*
X208280000Y-52070000D03*
D22*
X123190000Y-88900000D03*
X158750000Y-97790000D03*
X160020000Y-100330000D03*
X109855000Y-86360000D03*
X116840000Y-81915000D03*
X130810000Y-73660000D03*
X128905000Y-74930000D03*
X128905000Y-69850000D03*
X130810000Y-71120000D03*
X82550000Y-73025000D03*
X81280000Y-75565000D03*
X117475000Y-84455000D03*
X83185000Y-81280000D03*
X97790000Y-74295000D03*
X91440000Y-50165000D03*
X88265000Y-50165000D03*
X125095000Y-55880000D03*
X144780000Y-49530000D03*
X212725000Y-132715000D03*
X83820000Y-66675000D03*
D21*
X229870000Y-131445000D03*
D22*
X207645000Y-130810000D03*
X85090000Y-65405000D03*
D21*
X231140000Y-130810000D03*
X205105000Y-48260000D03*
D22*
X92075000Y-70485000D03*
D21*
X206375000Y-81280000D03*
X206375000Y-91440000D03*
X206375000Y-68580000D03*
X206375000Y-58420000D03*
D22*
X181610000Y-120650000D03*
D21*
X206375000Y-120650000D03*
D22*
X93280601Y-119950601D03*
X109855000Y-120015000D03*
D21*
X202565000Y-99060000D03*
X202565000Y-88900000D03*
X202565000Y-76200000D03*
X202565000Y-66040000D03*
X202565000Y-55880000D03*
D22*
X186690000Y-114935000D03*
D21*
X202565000Y-114935000D03*
D22*
X114935000Y-114934986D03*
X92075000Y-66675000D03*
D21*
X203835000Y-86360000D03*
X203835000Y-53340000D03*
X203835000Y-63500000D03*
X203835000Y-73660000D03*
X203835000Y-96520000D03*
D22*
X176530000Y-116840000D03*
D21*
X203835000Y-116840000D03*
D22*
X114935000Y-116840000D03*
D21*
X161925000Y-122555000D03*
D22*
X100330000Y-77470000D03*
X87630000Y-77470000D03*
D21*
X167005000Y-124460000D03*
D22*
X83820000Y-70485000D03*
D21*
X205105000Y-93980000D03*
X205105000Y-83820000D03*
X205105000Y-71120000D03*
X205105000Y-60960000D03*
X205105000Y-50800000D03*
X205105000Y-118745000D03*
D22*
X179070000Y-118745000D03*
X184150000Y-118745000D03*
X94615000Y-121285000D03*
D21*
X218440000Y-86360000D03*
X218440000Y-81280000D03*
X218440000Y-58420000D03*
X218440002Y-53340000D03*
D22*
X118110006Y-121513610D03*
X97155000Y-122554992D03*
D21*
X217170000Y-88900000D03*
X217170000Y-83820000D03*
X217170000Y-55880000D03*
X217170000Y-60960000D03*
D22*
X81915000Y-118745000D03*
X111125000Y-118745000D03*
X120650000Y-87630000D03*
X116840000Y-88265000D03*
X143510000Y-76835000D03*
X87630000Y-80010000D03*
X88900000Y-78740000D03*
X88900000Y-71755000D03*
D23*
X200660000Y-38100000D02*
X198120000Y-38100000D01*
X198120000Y-38100000D02*
X195580000Y-38100000D01*
X195580000Y-38100000D02*
X193040000Y-38100000D01*
X193040000Y-38100000D02*
X190500000Y-38100000D01*
X200660000Y-38100000D02*
X213995000Y-38100000D01*
X224790000Y-48895000D02*
X213995000Y-38100000D01*
X235585000Y-48895000D02*
X224790000Y-48895000D01*
X239395000Y-52705000D02*
X235585000Y-48895000D01*
X239395000Y-129540000D02*
X239395000Y-52705000D01*
X236220000Y-132715000D02*
X239395000Y-129540000D01*
X218440000Y-132715000D02*
X236220000Y-132715000D01*
X215900000Y-135255000D02*
X218440000Y-132715000D01*
D24*
X210185000Y-137160000D02*
X210185000Y-139700000D01*
X198755000Y-137160000D02*
X198755000Y-139700000D01*
D23*
X102870000Y-35560000D02*
X100965000Y-33655000D01*
X111760000Y-35560000D02*
X102870000Y-35560000D01*
X113665000Y-33655000D02*
X111760000Y-35560000D01*
X227965000Y-33655000D02*
X219710000Y-33655000D01*
X229870000Y-35560000D02*
X227965000Y-33655000D01*
X234315000Y-35560000D02*
X229870000Y-35560000D01*
X239077500Y-35560000D02*
X234315000Y-35560000D01*
X240982500Y-33655000D02*
X239077500Y-35560000D01*
X262890000Y-33655000D02*
X240982500Y-33655000D01*
X264160000Y-34925000D02*
X262890000Y-33655000D01*
X264160000Y-137795000D02*
X264160000Y-34925000D01*
X262255000Y-139700000D02*
X264160000Y-137795000D01*
X240665000Y-139700000D02*
X262255000Y-139700000D01*
X238760000Y-137795000D02*
X240665000Y-139700000D01*
X234315000Y-137795000D02*
X238760000Y-137795000D01*
X229870000Y-137795000D02*
X227965000Y-139700000D01*
X234315000Y-137795000D02*
X229870000Y-137795000D01*
D24*
X164380000Y-137160000D02*
X164380000Y-139615000D01*
D25*
X164380000Y-139615000D02*
X164465000Y-139700000D01*
X173990000Y-139065000D02*
X174625000Y-139700000D01*
D24*
X173990000Y-137160000D02*
X173990000Y-139065000D01*
X189230000Y-137160000D02*
X189230000Y-139700000D01*
D23*
X227965000Y-139700000D02*
X189230000Y-139700000D01*
X77470000Y-33655000D02*
X77470000Y-40005000D01*
X77470000Y-40005000D02*
X77470000Y-42545000D01*
X100965000Y-33655000D02*
X88900000Y-33655000D01*
X88900000Y-33655000D02*
X77470000Y-33655000D01*
X77470000Y-47625000D02*
X130175000Y-47625000D01*
X77470000Y-42545000D02*
X77470000Y-47625000D01*
X138430000Y-42545000D02*
X138430000Y-40005000D01*
X138430000Y-40005000D02*
X138430000Y-33655000D01*
X138430000Y-33655000D02*
X113665000Y-33655000D01*
X154940000Y-33655000D02*
X138430000Y-33655000D01*
X77470000Y-88900000D02*
X77470000Y-90805000D01*
D25*
X106680000Y-92075000D02*
X105410000Y-90805000D01*
X105410000Y-99060000D02*
X106680000Y-97790000D01*
X106680000Y-97790000D02*
X106680000Y-92075000D01*
D23*
X222250000Y-33655000D02*
X219710000Y-33655000D01*
X222250000Y-38100000D02*
X222250000Y-33655000D01*
X78740000Y-54610000D02*
X78740000Y-57785000D01*
X77470000Y-50165000D02*
X77470000Y-47625000D01*
X78740000Y-51435000D02*
X77470000Y-50165000D01*
X78740000Y-54610000D02*
X78740000Y-51435000D01*
X78943200Y-85242400D02*
X78943200Y-84023200D01*
X78740000Y-85217000D02*
X78740000Y-57785000D01*
X79121000Y-68580000D02*
X102870000Y-68580000D01*
X77470000Y-88900000D02*
X78613000Y-87757000D01*
X78613000Y-87757000D02*
X78613000Y-86233000D01*
X82550000Y-90805000D02*
X82550000Y-85344000D01*
X104140000Y-85090000D02*
X79248000Y-85090000D01*
X110155001Y-79074999D02*
X104140000Y-85090000D01*
X79248000Y-85090000D02*
X78613000Y-85725000D01*
X110155001Y-79040001D02*
X110155001Y-79074999D01*
X77470000Y-93345000D02*
X77470000Y-90932000D01*
X77470000Y-90932000D02*
X77597000Y-90805000D01*
D24*
X102870000Y-55880000D02*
X101282500Y-57467500D01*
D23*
X106680000Y-64770000D02*
X106680000Y-61595000D01*
X102870000Y-68580000D02*
X106680000Y-64770000D01*
D25*
X90170000Y-55880000D02*
X90170000Y-57150000D01*
X90170000Y-57150000D02*
X89852500Y-57467500D01*
D24*
X89852500Y-57467500D02*
X79375000Y-57467500D01*
D25*
X93980000Y-59055000D02*
X93980000Y-57785000D01*
D24*
X93662500Y-57467500D02*
X89852500Y-57467500D01*
D25*
X93980000Y-57785000D02*
X93662500Y-57467500D01*
D24*
X101282500Y-57467500D02*
X93662500Y-57467500D01*
D25*
X88900000Y-61595000D02*
X90170000Y-60325000D01*
X90170000Y-60325000D02*
X90170000Y-57150000D01*
X99060000Y-61595000D02*
X98425000Y-61595000D01*
X99060000Y-61595000D02*
X97790000Y-60325000D01*
X97790000Y-60325000D02*
X97790000Y-57785000D01*
X119380000Y-61595000D02*
X119380000Y-64770000D01*
X124460000Y-61595000D02*
X124460000Y-64770000D01*
D24*
X136956800Y-60325000D02*
X133985000Y-60325000D01*
X133985000Y-60325000D02*
X133350000Y-60325000D01*
X133350000Y-60325000D02*
X132080000Y-59055000D01*
X137160000Y-60325000D02*
X153670000Y-60325000D01*
X115570000Y-64770000D02*
X153670000Y-64770000D01*
D25*
X115570000Y-60325000D02*
X115570000Y-64770000D01*
X114300000Y-59055000D02*
X115570000Y-60325000D01*
D23*
X127000000Y-106045000D02*
X132080000Y-106045000D01*
X126365000Y-106680000D02*
X127000000Y-106045000D01*
X123190000Y-106680000D02*
X126365000Y-106680000D01*
X219710000Y-33655000D02*
X154940000Y-33655000D01*
D25*
X153035000Y-53340000D02*
X153670000Y-53340000D01*
X151765000Y-54610000D02*
X153035000Y-53340000D01*
X144018000Y-54610000D02*
X151765000Y-54610000D01*
X143798971Y-54610000D02*
X144145000Y-54610000D01*
X142510623Y-53321652D02*
X143798971Y-54610000D01*
X91440000Y-100330000D02*
X90170000Y-101600000D01*
X92075000Y-97155000D02*
X91440000Y-97790000D01*
X91440000Y-97790000D02*
X91440000Y-100330000D01*
X103505000Y-97155000D02*
X92075000Y-97155000D01*
X105410000Y-99060000D02*
X103505000Y-97155000D01*
X105410000Y-99060000D02*
X106680000Y-100330000D01*
D23*
X77470000Y-93345000D02*
X77470000Y-104140000D01*
D25*
X87630000Y-104140000D02*
X90170000Y-101600000D01*
X77470000Y-104140000D02*
X78740000Y-104140000D01*
X78740000Y-108585000D02*
X78105000Y-109220000D01*
X78740000Y-104140000D02*
X78740000Y-108585000D01*
D23*
X78105000Y-109220000D02*
X77470000Y-109220000D01*
D25*
X81280000Y-104140000D02*
X81280000Y-109220000D01*
D23*
X81280000Y-109220000D02*
X78105000Y-109220000D01*
X83820000Y-104140000D02*
X87630000Y-104140000D01*
X77470000Y-104140000D02*
X83820000Y-104140000D01*
D25*
X83820000Y-104140000D02*
X83820000Y-109220000D01*
D23*
X85725000Y-109220000D02*
X83820000Y-109220000D01*
D25*
X77470000Y-104140000D02*
X76200000Y-105410000D01*
X76200000Y-105410000D02*
X76200000Y-107950000D01*
X76200000Y-107950000D02*
X77470000Y-109220000D01*
D23*
X93345000Y-135255000D02*
X90170000Y-132080000D01*
X93980000Y-135890000D02*
X93345000Y-135255000D01*
X100330000Y-135890000D02*
X93980000Y-135890000D01*
X102235000Y-137795000D02*
X100330000Y-135890000D01*
X113665000Y-139700000D02*
X111760000Y-137795000D01*
X111760000Y-137795000D02*
X102235000Y-137795000D01*
X189230000Y-139700000D02*
X113665000Y-139700000D01*
D25*
X109919399Y-100394399D02*
X124524399Y-100394399D01*
X124524399Y-100394399D02*
X125730000Y-101600000D01*
X109855000Y-100330000D02*
X109919399Y-100394399D01*
X106680000Y-100330000D02*
X109855000Y-100330000D01*
X125730000Y-101600000D02*
X128270000Y-101600000D01*
X107950000Y-107950000D02*
X107950000Y-106680000D01*
X109855000Y-109855000D02*
X107950000Y-107950000D01*
X136956800Y-111252000D02*
X134262724Y-111252000D01*
X111760000Y-110490000D02*
X111125000Y-109855000D01*
X111125000Y-109855000D02*
X109855000Y-109855000D01*
X133500724Y-110490000D02*
X111760000Y-110490000D01*
X134262724Y-111252000D02*
X133500724Y-110490000D01*
D23*
X81915000Y-111760000D02*
X81915000Y-109220000D01*
X81915000Y-109220000D02*
X81280000Y-109220000D01*
X83820000Y-109220000D02*
X81915000Y-109220000D01*
X86995000Y-129540000D02*
X86995000Y-127000000D01*
X77470000Y-128270000D02*
X77470000Y-109220000D01*
X78740000Y-129540000D02*
X77470000Y-128270000D01*
X87630000Y-129540000D02*
X78740000Y-129540000D01*
X90170000Y-132080000D02*
X87630000Y-129540000D01*
D25*
X215265000Y-128905000D02*
X201295000Y-128905000D01*
X236855000Y-129540000D02*
X215900000Y-129540000D01*
X215900000Y-129540000D02*
X215265000Y-128905000D01*
X238125000Y-128270000D02*
X236855000Y-129540000D01*
X237490000Y-123190000D02*
X238125000Y-123825000D01*
X238125000Y-123825000D02*
X238125000Y-128270000D01*
X234950000Y-123190000D02*
X237490000Y-123190000D01*
X233680000Y-124460000D02*
X234950000Y-123190000D01*
X120015000Y-128905000D02*
X201295000Y-128905000D01*
X81915000Y-125730000D02*
X82550000Y-125095000D01*
X116205000Y-125095000D02*
X120015000Y-128905000D01*
X82550000Y-125095000D02*
X116205000Y-125095000D01*
X81915000Y-127000000D02*
X81915000Y-125730000D01*
X229870000Y-111760000D02*
X232410000Y-111760000D01*
X229870000Y-106680000D02*
X232410000Y-106680000D01*
X229870000Y-99060000D02*
X232410000Y-99060000D01*
X229870000Y-93980000D02*
X232410000Y-93980000D01*
X229870000Y-88900000D02*
X232410000Y-88900000D01*
X229870000Y-83820000D02*
X232410000Y-83820000D01*
X229870000Y-76200000D02*
X232410000Y-76200000D01*
X229870000Y-71120000D02*
X232410000Y-71120000D01*
X229870000Y-66040000D02*
X232410000Y-66040000D01*
X229870000Y-60960000D02*
X232409996Y-60960000D01*
X232409996Y-60960000D02*
X232410000Y-60960004D01*
X229870000Y-55880000D02*
X232410000Y-55880000D01*
X237490000Y-125730000D02*
X236220000Y-124460000D01*
X236220000Y-128905000D02*
X237490000Y-127635000D01*
X217170000Y-128905000D02*
X236220000Y-128905000D01*
X215265000Y-127000000D02*
X217170000Y-128905000D01*
X116840000Y-123825000D02*
X120015000Y-127000000D01*
X81280000Y-123825000D02*
X116840000Y-123825000D01*
X120015000Y-127000000D02*
X215265000Y-127000000D01*
X237490000Y-127635000D02*
X237490000Y-125730000D01*
X79375000Y-125730000D02*
X81280000Y-123825000D01*
X79375000Y-127000000D02*
X79375000Y-125730000D01*
X229870000Y-109220000D02*
X233680000Y-109220000D01*
X229870000Y-104140000D02*
X233680000Y-104140000D01*
X229870000Y-96520000D02*
X233680000Y-96520000D01*
X229870000Y-91440000D02*
X233680000Y-91440000D01*
X229870000Y-86360000D02*
X233680000Y-86360000D01*
X229870000Y-81280000D02*
X233680000Y-81280000D01*
X229870000Y-73660000D02*
X233680000Y-73660000D01*
X229870000Y-68580000D02*
X233680000Y-68580000D01*
X229870000Y-63500000D02*
X233680000Y-63500000D01*
X229870000Y-58420000D02*
X233680000Y-58420000D01*
X229870000Y-53340000D02*
X233679994Y-53340000D01*
X233679994Y-53340000D02*
X233680000Y-53340006D01*
X91440000Y-92075000D02*
X92710000Y-93345000D01*
X91440000Y-90170000D02*
X91440000Y-92075000D01*
X93345000Y-88265000D02*
X91440000Y-90170000D01*
X110490000Y-88265000D02*
X93345000Y-88265000D01*
X115570000Y-83185000D02*
X110490000Y-88265000D01*
X118110000Y-83185000D02*
X115570000Y-83185000D01*
X121920000Y-79375000D02*
X118110000Y-83185000D01*
X159385000Y-79375000D02*
X121920000Y-79375000D01*
X162560000Y-82550000D02*
X159385000Y-79375000D01*
X226060000Y-82550000D02*
X162560000Y-82550000D01*
X227330000Y-81280000D02*
X226060000Y-82550000D01*
X94615000Y-88900000D02*
X92710000Y-90805000D01*
X114935000Y-88900000D02*
X94615000Y-88900000D01*
X123190000Y-80645000D02*
X114935000Y-88900000D01*
X158115000Y-80645000D02*
X123190000Y-80645000D01*
X162560000Y-85090000D02*
X158115000Y-80645000D01*
X226060000Y-85090000D02*
X162560000Y-85090000D01*
X227330000Y-83820000D02*
X226060000Y-85090000D01*
X234950000Y-125730000D02*
X236220000Y-127000000D01*
X224790000Y-125730000D02*
X234950000Y-125730000D01*
X223520000Y-127000000D02*
X224790000Y-125730000D01*
X162560000Y-80010000D02*
X208915000Y-80010000D01*
X160655000Y-78105000D02*
X162560000Y-80010000D01*
X146685000Y-78105000D02*
X160655000Y-78105000D01*
X145415000Y-76835000D02*
X146685000Y-78105000D01*
D26*
X208915000Y-80010000D02*
X210185000Y-80010000D01*
D25*
X212090000Y-80125200D02*
X212090000Y-81280000D01*
X210704800Y-78740000D02*
X212090000Y-80125200D01*
X162560000Y-78740000D02*
X210704800Y-78740000D01*
X161290000Y-77470000D02*
X162560000Y-78740000D01*
X147954996Y-77470000D02*
X161290000Y-77470000D01*
X147320000Y-76835004D02*
X147954996Y-77470000D01*
X227330000Y-88900000D02*
X226060000Y-90170000D01*
X226060000Y-90170000D02*
X213360000Y-90170000D01*
X213360000Y-90170000D02*
X212090000Y-88900000D01*
X210820000Y-90170000D02*
X212090000Y-88900000D01*
X145415000Y-90170000D02*
X210820000Y-90170000D01*
X119380000Y-92075000D02*
X119380000Y-93980000D01*
X119380000Y-93980000D02*
X122555000Y-97155000D01*
X141605000Y-97155000D02*
X143510000Y-99060000D01*
X120650000Y-90805000D02*
X119380000Y-92075000D01*
X122555000Y-97155000D02*
X141605000Y-97155000D01*
X143510000Y-99060000D02*
X145415000Y-99060000D01*
X213360000Y-87630000D02*
X212090000Y-86360000D01*
X226060000Y-87630000D02*
X213360000Y-87630000D01*
X227330000Y-86360000D02*
X226060000Y-87630000D01*
X210820000Y-87630000D02*
X212090000Y-86360000D01*
X142240000Y-87630000D02*
X210820000Y-87630000D01*
X141605000Y-86995000D02*
X142240000Y-87630000D01*
X125730000Y-86995000D02*
X141605000Y-86995000D01*
X125095000Y-86360000D02*
X125730000Y-86995000D01*
X120015000Y-86360000D02*
X125095000Y-86360000D01*
X116840000Y-89535000D02*
X120015000Y-86360000D01*
X116840000Y-92075000D02*
X116840000Y-89535000D01*
X118110000Y-93345000D02*
X116840000Y-92075000D01*
X95250000Y-101600000D02*
X95250000Y-102235000D01*
X148590000Y-103505000D02*
X97155000Y-103505000D01*
X156527500Y-99060000D02*
X153035000Y-99060000D01*
X97155000Y-103505000D02*
X95885000Y-102235000D01*
X159067500Y-101600000D02*
X156527500Y-99060000D01*
X153035000Y-99060000D02*
X148590000Y-103505000D01*
X95885000Y-102235000D02*
X95250000Y-101600000D01*
X207645000Y-101600000D02*
X159067500Y-101600000D01*
X207772000Y-102870000D02*
X209042000Y-101600000D01*
X158813500Y-102870000D02*
X207772000Y-102870000D01*
X157543500Y-104140000D02*
X158813500Y-102870000D01*
X95250000Y-104140000D02*
X157543500Y-104140000D01*
X92710000Y-101600000D02*
X95250000Y-104140000D01*
X208280000Y-49530000D02*
X212090000Y-53340000D01*
X148590000Y-49530000D02*
X208280000Y-49530000D01*
X147320000Y-50800000D02*
X148590000Y-49530000D01*
X183515000Y-52070000D02*
X208280000Y-52070000D01*
X182245000Y-50800000D02*
X183515000Y-52070000D01*
X149860000Y-50800000D02*
X182245000Y-50800000D01*
X147574000Y-53086000D02*
X149860000Y-50800000D01*
X147574000Y-53340000D02*
X147574000Y-53086000D01*
X226060000Y-92710000D02*
X226480001Y-92289999D01*
X226480001Y-92289999D02*
X227330000Y-91440000D01*
X143510000Y-92710000D02*
X226060000Y-92710000D01*
X139700000Y-88900000D02*
X143510000Y-92710000D01*
X123190000Y-88900000D02*
X139700000Y-88900000D01*
X227330000Y-93980000D02*
X226060000Y-95250000D01*
X127000000Y-92075000D02*
X128270000Y-90805000D01*
X127000000Y-93980000D02*
X127000000Y-92075000D01*
X128270000Y-95250000D02*
X127000000Y-93980000D01*
X226060000Y-95250000D02*
X128270000Y-95250000D01*
X226060000Y-97790000D02*
X227330000Y-96520000D01*
X158750000Y-97790000D02*
X226060000Y-97790000D01*
X226060000Y-100330000D02*
X227330000Y-99060000D01*
X160020000Y-100330000D02*
X226060000Y-100330000D01*
X226060000Y-74930000D02*
X227330000Y-73660000D01*
X162560000Y-74930000D02*
X226060000Y-74930000D01*
X161925000Y-74295000D02*
X162560000Y-74930000D01*
X141605000Y-74295000D02*
X161925000Y-74295000D01*
X119380000Y-76835000D02*
X139065000Y-76835000D01*
X139065000Y-76835000D02*
X141605000Y-74295000D01*
X109855000Y-86360000D02*
X119380000Y-76835000D01*
X226060000Y-77470000D02*
X227330000Y-76200000D01*
X162560000Y-77470000D02*
X226060000Y-77470000D01*
X160655000Y-75565000D02*
X162560000Y-77470000D01*
X142875000Y-75565000D02*
X160655000Y-75565000D01*
X140335000Y-78105000D02*
X142875000Y-75565000D01*
X120650000Y-78105000D02*
X140335000Y-78105000D01*
X116840000Y-81915000D02*
X120650000Y-78105000D01*
X139065000Y-71755000D02*
X160655000Y-71755000D01*
X160655000Y-71755000D02*
X162560000Y-69850000D01*
X137160000Y-73660000D02*
X139065000Y-71755000D01*
X226060000Y-69850000D02*
X227330000Y-68580000D01*
X162560000Y-69850000D02*
X226060000Y-69850000D01*
X130810000Y-73660000D02*
X137160000Y-73660000D01*
X226060000Y-72390000D02*
X227330000Y-71120000D01*
X162560000Y-72390000D02*
X226060000Y-72390000D01*
X161925000Y-73025000D02*
X162560000Y-72390000D01*
X140335000Y-73025000D02*
X161925000Y-73025000D01*
X137795000Y-75565000D02*
X140335000Y-73025000D01*
X129540000Y-75565000D02*
X137795000Y-75565000D01*
X128905000Y-74930000D02*
X129540000Y-75565000D01*
X158115000Y-69215000D02*
X162560000Y-64770000D01*
X129540000Y-69215000D02*
X158115000Y-69215000D01*
X128905000Y-69850000D02*
X129540000Y-69215000D01*
X226060000Y-64770000D02*
X227330000Y-63500000D01*
X162560000Y-64770000D02*
X226060000Y-64770000D01*
X159385000Y-70485000D02*
X162560000Y-67310000D01*
X226060000Y-67310000D02*
X227330000Y-66040000D01*
X162560000Y-67310000D02*
X226060000Y-67310000D01*
X131445000Y-70485000D02*
X159385000Y-70485000D01*
X130810000Y-71120000D02*
X131445000Y-70485000D01*
X131572000Y-54610000D02*
X131444999Y-54610000D01*
X109220000Y-54610000D02*
X107950000Y-53340000D01*
X109220000Y-56515000D02*
X109220000Y-54610000D01*
X109855000Y-57150000D02*
X109220000Y-56515000D01*
X127889000Y-57150000D02*
X109855000Y-57150000D01*
X128524000Y-56515000D02*
X127889000Y-57150000D01*
X128524000Y-55245000D02*
X128524000Y-56515000D01*
X129159000Y-54610000D02*
X128524000Y-55245000D01*
X131572000Y-54610000D02*
X129159000Y-54610000D01*
X226060000Y-54610000D02*
X227330000Y-53340000D01*
X162560000Y-54610000D02*
X226060000Y-54610000D01*
X158115000Y-59055000D02*
X162560000Y-54610000D01*
X138430000Y-57785000D02*
X139700000Y-59055000D01*
X139700000Y-59055000D02*
X158115000Y-59055000D01*
X137160000Y-57785000D02*
X138430000Y-57785000D01*
X133604000Y-54102000D02*
X133604000Y-52705000D01*
X136144000Y-52705000D02*
X136144000Y-56769000D01*
X134239000Y-52070000D02*
X135509000Y-52070000D01*
X133096000Y-54610000D02*
X133604000Y-54102000D01*
X133604000Y-52705000D02*
X134239000Y-52070000D01*
X136144000Y-56769000D02*
X137160000Y-57785000D01*
X135509000Y-52070000D02*
X136144000Y-52705000D01*
X131572000Y-54610000D02*
X133096000Y-54610000D01*
X105410000Y-53340000D02*
X105410000Y-53975000D01*
X140017500Y-62230000D02*
X138747500Y-63500000D01*
X157480000Y-62230000D02*
X140017500Y-62230000D01*
X107950000Y-57785000D02*
X106680000Y-56515000D01*
X128270000Y-62230000D02*
X128270000Y-57785000D01*
X226060000Y-57150000D02*
X162560000Y-57150000D01*
X162560000Y-57150000D02*
X157480000Y-62230000D01*
X106680000Y-54610000D02*
X105410000Y-53340000D01*
X128270000Y-57785000D02*
X107950000Y-57785000D01*
X129540000Y-63500000D02*
X128270000Y-62230000D01*
X106680000Y-56515000D02*
X106680000Y-54610000D01*
X138747500Y-63500000D02*
X129540000Y-63500000D01*
X227330000Y-55880000D02*
X226060000Y-57150000D01*
X155575000Y-66675000D02*
X162560000Y-59690000D01*
X82550000Y-73025000D02*
X113030000Y-73025000D01*
X113030000Y-73025000D02*
X119380000Y-66675000D01*
X119380000Y-66675000D02*
X155575000Y-66675000D01*
X226060000Y-59690000D02*
X227330000Y-58420000D01*
X162560000Y-59690000D02*
X226060000Y-59690000D01*
X156845000Y-67945000D02*
X162560000Y-62230000D01*
X120650000Y-67945000D02*
X156845000Y-67945000D01*
X114300000Y-74295000D02*
X120650000Y-67945000D01*
X99695000Y-74295000D02*
X114300000Y-74295000D01*
X98425000Y-75565000D02*
X99695000Y-74295000D01*
X81280000Y-75565000D02*
X98425000Y-75565000D01*
X226060000Y-62230000D02*
X227330000Y-60960000D01*
X162560000Y-62230000D02*
X226060000Y-62230000D01*
X162560000Y-83820000D02*
X190500000Y-83820000D01*
X158750000Y-80010000D02*
X162560000Y-83820000D01*
X122555000Y-80010000D02*
X158750000Y-80010000D01*
X118110000Y-84455000D02*
X122555000Y-80010000D01*
X117475000Y-84455000D02*
X118110000Y-84455000D01*
X189297919Y-93980000D02*
X190500000Y-93980000D01*
X143510000Y-93980000D02*
X189230000Y-93980000D01*
X139065000Y-89535000D02*
X143510000Y-93980000D01*
X124460000Y-89535000D02*
X139065000Y-89535000D01*
X123190000Y-90805000D02*
X124460000Y-89535000D01*
X162560000Y-68580000D02*
X190500000Y-68580000D01*
X160020000Y-71120000D02*
X162560000Y-68580000D01*
X138430000Y-71120000D02*
X160020000Y-71120000D01*
X137160000Y-72390000D02*
X138430000Y-71120000D01*
X120015000Y-72390000D02*
X137160000Y-72390000D01*
X116205000Y-76200000D02*
X120015000Y-72390000D01*
X106005313Y-76200000D02*
X116205000Y-76200000D01*
X100925313Y-81280000D02*
X106005313Y-76200000D01*
X83185000Y-81280000D02*
X100925313Y-81280000D01*
X87630000Y-99695000D02*
X87630000Y-99060000D01*
X85725000Y-102749290D02*
X86295601Y-102178689D01*
X81915000Y-102870000D02*
X85725000Y-102870000D01*
X85725000Y-102870000D02*
X85725000Y-102749290D01*
X85217000Y-88265000D02*
X83820000Y-89662000D01*
X81280000Y-97790000D02*
X81280000Y-102235000D01*
X107315000Y-86360000D02*
X89535000Y-86360000D01*
X86295601Y-101029399D02*
X87630000Y-99695000D01*
X86295601Y-102178689D02*
X86295601Y-101029399D01*
X128270000Y-73025000D02*
X120650000Y-73025000D01*
X81280000Y-102235000D02*
X81915000Y-102870000D01*
X130175000Y-74930000D02*
X128270000Y-73025000D01*
X87630000Y-88265000D02*
X85217000Y-88265000D01*
X137160000Y-74930000D02*
X130175000Y-74930000D01*
X139700000Y-72390000D02*
X137160000Y-74930000D01*
X89535000Y-86360000D02*
X87630000Y-88265000D01*
X161290000Y-72390000D02*
X139700000Y-72390000D01*
X83820000Y-89662000D02*
X83820000Y-95250000D01*
X120650000Y-73025000D02*
X107315000Y-86360000D01*
X162560000Y-71120000D02*
X161290000Y-72390000D01*
X83820000Y-95250000D02*
X81280000Y-97790000D01*
X190500000Y-71120000D02*
X162560000Y-71120000D01*
X156210000Y-67310000D02*
X162560000Y-60960000D01*
X120015000Y-67310000D02*
X156210000Y-67310000D01*
X113665000Y-73660000D02*
X120015000Y-67310000D01*
X98425000Y-73660000D02*
X113665000Y-73660000D01*
X97790000Y-74295000D02*
X98425000Y-73660000D01*
X162560000Y-60960000D02*
X190500000Y-60960000D01*
X149225000Y-50165000D02*
X182880000Y-50165000D01*
X183515000Y-50800000D02*
X190500000Y-50800000D01*
X147320000Y-52070000D02*
X149225000Y-50165000D01*
X141224000Y-52070000D02*
X147320000Y-52070000D01*
X182880000Y-50165000D02*
X183515000Y-50800000D01*
X139954000Y-53340000D02*
X141224000Y-52070000D01*
D23*
X80010000Y-42545000D02*
X80010000Y-40005000D01*
X80010000Y-44450000D02*
X80010000Y-42545000D01*
X80645000Y-45085000D02*
X80010000Y-44450000D01*
X155575000Y-45085000D02*
X80645000Y-45085000D01*
X160020000Y-40640000D02*
X155575000Y-45085000D01*
X190500000Y-40640000D02*
X160020000Y-40640000D01*
D25*
X159385000Y-104775000D02*
X117475000Y-104775000D01*
X117475000Y-104775000D02*
X115570000Y-106680000D01*
X160020000Y-104140000D02*
X159385000Y-104775000D01*
X227330000Y-104140000D02*
X160020000Y-104140000D01*
X139700000Y-107315000D02*
X140335000Y-106680000D01*
X132715000Y-107315000D02*
X139700000Y-107315000D01*
X140335000Y-106680000D02*
X227330000Y-106680000D01*
X131445000Y-108585000D02*
X132715000Y-107315000D01*
X114935000Y-108585000D02*
X131445000Y-108585000D01*
X113030000Y-106680000D02*
X114935000Y-108585000D01*
X97790000Y-105410000D02*
X97790000Y-106680000D01*
X98425000Y-104775000D02*
X97790000Y-105410000D01*
X111760000Y-107950000D02*
X111760000Y-105410000D01*
X113030000Y-109220000D02*
X111760000Y-107950000D01*
X111125000Y-104775000D02*
X98425000Y-104775000D01*
X111760000Y-105410000D02*
X111125000Y-104775000D01*
X133985000Y-107950000D02*
X132715000Y-109220000D01*
X132715000Y-109220000D02*
X113030000Y-109220000D01*
X139700000Y-107950000D02*
X133985000Y-107950000D01*
X140970000Y-109220000D02*
X139700000Y-107950000D01*
X227330000Y-109220000D02*
X140970000Y-109220000D01*
X226127919Y-111760000D02*
X227330000Y-111760000D01*
X141605000Y-111760000D02*
X226127919Y-111760000D01*
X138430000Y-108585000D02*
X141605000Y-111760000D01*
X111125000Y-108585000D02*
X112395000Y-109855000D01*
X109220000Y-106045000D02*
X109220000Y-107950000D01*
X99101717Y-107273283D02*
X99101717Y-106003283D01*
X109855000Y-108585000D02*
X111125000Y-108585000D01*
X109220000Y-107950000D02*
X109855000Y-108585000D01*
X98425000Y-107950000D02*
X99101717Y-107273283D01*
X99695000Y-105410000D02*
X108585000Y-105410000D01*
X135255000Y-108585000D02*
X138430000Y-108585000D01*
X133985000Y-109855000D02*
X135255000Y-108585000D01*
X112395000Y-109855000D02*
X133985000Y-109855000D01*
X108585000Y-105410000D02*
X109220000Y-106045000D01*
X96520000Y-107950000D02*
X98425000Y-107950000D01*
X99101717Y-106003283D02*
X99695000Y-105410000D01*
X95250000Y-106680000D02*
X96520000Y-107950000D01*
D23*
X88265000Y-50165000D02*
X91440000Y-50165000D01*
X193040000Y-41910000D02*
X193040000Y-40640000D01*
X191770000Y-43180000D02*
X193040000Y-41910000D01*
X161290000Y-43180000D02*
X191770000Y-43180000D01*
X156845000Y-47625000D02*
X161290000Y-43180000D01*
X130810000Y-50165000D02*
X133350000Y-47625000D01*
X133350000Y-47625000D02*
X156845000Y-47625000D01*
X91440000Y-50165000D02*
X130810000Y-50165000D01*
D25*
X125095000Y-52705000D02*
X125095000Y-55880000D01*
X126365000Y-51435000D02*
X125095000Y-52705000D01*
X131445000Y-51435000D02*
X126365000Y-51435000D01*
X133350000Y-49530000D02*
X131445000Y-51435000D01*
X144780000Y-49530000D02*
X133350000Y-49530000D01*
X212725000Y-136525000D02*
X212725000Y-137160000D01*
X83820000Y-65405000D02*
X83820000Y-66675000D01*
X85090000Y-64135000D02*
X83820000Y-65405000D01*
X91440000Y-64135000D02*
X85090000Y-64135000D01*
X92710000Y-60325000D02*
X92710000Y-62865000D01*
X92710000Y-62865000D02*
X91440000Y-64135000D01*
X91440000Y-59055000D02*
X92710000Y-60325000D01*
X104775000Y-51435000D02*
X109855000Y-51435000D01*
X104140000Y-52070000D02*
X104775000Y-51435000D01*
X104140000Y-57150000D02*
X104140000Y-52070000D01*
X102870000Y-58420000D02*
X104140000Y-57150000D01*
X102870000Y-63500000D02*
X102870000Y-58420000D01*
X100965000Y-65405000D02*
X102870000Y-63500000D01*
X86995000Y-65405000D02*
X100965000Y-65405000D01*
X85725000Y-66675000D02*
X86995000Y-65405000D01*
X110490000Y-52070000D02*
X110490000Y-53340000D01*
X109855000Y-51435000D02*
X110490000Y-52070000D01*
X83820000Y-66675000D02*
X85725000Y-66675000D01*
X127000000Y-135890000D02*
X114300000Y-135890000D01*
X130175000Y-132715000D02*
X127000000Y-135890000D01*
X217170000Y-130810000D02*
X215265000Y-132715000D01*
X114300000Y-135890000D02*
X110490000Y-132080000D01*
X229235000Y-130810000D02*
X217170000Y-130810000D01*
X215265000Y-132715000D02*
X130175000Y-132715000D01*
X229870000Y-131445000D02*
X229235000Y-130810000D01*
X108966021Y-130556021D02*
X91186021Y-130556021D01*
X110490000Y-132080000D02*
X108966021Y-130556021D01*
X89535000Y-128905000D02*
X91186021Y-130556021D01*
X89535000Y-127000000D02*
X89535000Y-128905000D01*
X93345000Y-64770000D02*
X95250000Y-62865000D01*
X85725000Y-64770000D02*
X93345000Y-64770000D01*
X85090000Y-65405000D02*
X85725000Y-64770000D01*
X95250000Y-60325000D02*
X96520000Y-59055000D01*
X95250000Y-62865000D02*
X95250000Y-60325000D01*
X216058750Y-130175000D02*
X215423750Y-130810000D01*
X230505000Y-130175000D02*
X216058750Y-130175000D01*
X231140000Y-130810000D02*
X230505000Y-130175000D01*
X215423750Y-130810000D02*
X207645000Y-130810000D01*
X115570000Y-134620000D02*
X113030000Y-132080000D01*
X125095000Y-134620000D02*
X115570000Y-134620000D01*
X128905000Y-130810000D02*
X125095000Y-134620000D01*
X207645000Y-130810000D02*
X128905000Y-130810000D01*
X110490000Y-129540000D02*
X92710000Y-129540000D01*
X113030000Y-132080000D02*
X110490000Y-129540000D01*
X92710000Y-129540000D02*
X92075000Y-128905000D01*
X92075000Y-128905000D02*
X92075000Y-127000000D01*
X193040000Y-48260000D02*
X205105000Y-48260000D01*
X111760000Y-63500000D02*
X111760000Y-64135000D01*
X111760000Y-64770000D02*
X111760000Y-63500000D01*
X105410000Y-71120000D02*
X111760000Y-64770000D01*
X92710000Y-71120000D02*
X105410000Y-71120000D01*
X92075000Y-70485000D02*
X92710000Y-71120000D01*
X111760000Y-63500000D02*
X111760000Y-61595000D01*
X193040000Y-81280000D02*
X206375000Y-81280000D01*
X193040000Y-91440000D02*
X206375000Y-91440000D01*
X193040000Y-68580000D02*
X206375000Y-68580000D01*
X193040000Y-58420000D02*
X206375000Y-58420000D01*
X206375000Y-120650000D02*
X181610000Y-120650000D01*
X223520000Y-122237500D02*
X223520000Y-124460000D01*
X221932500Y-120650000D02*
X223520000Y-122237500D01*
X206375000Y-120650000D02*
X221932500Y-120650000D01*
X109790601Y-119950601D02*
X109855000Y-120015000D01*
X93280601Y-119950601D02*
X109790601Y-119950601D01*
X118745000Y-120015000D02*
X109855000Y-120015000D01*
X119380000Y-120650000D02*
X118745000Y-120015000D01*
X181610000Y-120650000D02*
X119380000Y-120650000D01*
X202565000Y-99060000D02*
X193040000Y-99060000D01*
X193040000Y-88900000D02*
X202565000Y-88900000D01*
X193040000Y-76200000D02*
X202565000Y-76200000D01*
X193040000Y-66040000D02*
X202565000Y-66040000D01*
X193040000Y-55880000D02*
X202565000Y-55880000D01*
X231140000Y-120015000D02*
X231140000Y-124460000D01*
X226060000Y-114935000D02*
X231140000Y-120015000D01*
X202565000Y-114935000D02*
X226060000Y-114935000D01*
X202565000Y-114935000D02*
X115570000Y-114935000D01*
X114935014Y-114935000D02*
X114935000Y-114934986D01*
X115570000Y-114935000D02*
X114935014Y-114935000D01*
X105410000Y-60325000D02*
X106680000Y-59055000D01*
X105410000Y-63500000D02*
X105410000Y-60325000D01*
X102870000Y-66040000D02*
X105410000Y-63500000D01*
X92710000Y-66040000D02*
X102870000Y-66040000D01*
X92075000Y-66675000D02*
X92710000Y-66040000D01*
X193040000Y-86360000D02*
X203835000Y-86360000D01*
X193040000Y-53340000D02*
X203835000Y-53340000D01*
X193040000Y-63500000D02*
X203835000Y-63500000D01*
X193040000Y-73660000D02*
X203835000Y-73660000D01*
X193040000Y-96520000D02*
X203835000Y-96520000D01*
X228600000Y-121285000D02*
X228600000Y-124460000D01*
X224155000Y-116840000D02*
X228600000Y-121285000D01*
X203835000Y-116840000D02*
X224155000Y-116840000D01*
X203835000Y-116840000D02*
X176530000Y-116840000D01*
X176530000Y-116840000D02*
X114935000Y-116840000D01*
X111189399Y-111189399D02*
X111189399Y-115634399D01*
X110554399Y-110554399D02*
X111189399Y-111189399D01*
X111189399Y-115634399D02*
X112395000Y-116840000D01*
X107950000Y-109220000D02*
X109284399Y-110554399D01*
X106045000Y-109220000D02*
X107950000Y-109220000D01*
X112395000Y-116840000D02*
X114935000Y-116840000D01*
X109284399Y-110554399D02*
X110554399Y-110554399D01*
X105410000Y-108585000D02*
X106045000Y-109220000D01*
X105410000Y-106680000D02*
X105410000Y-108585000D01*
D26*
X161840000Y-137160000D02*
X161925000Y-137160000D01*
D25*
X219075000Y-122555000D02*
X220980000Y-124460000D01*
X161925000Y-122555000D02*
X219075000Y-122555000D01*
X100330000Y-77470000D02*
X87630000Y-77470000D01*
X167005000Y-124460000D02*
X218440000Y-124460000D01*
X113030000Y-64770000D02*
X113030000Y-62230000D01*
X106045000Y-71755000D02*
X113030000Y-64770000D01*
X91440000Y-71755000D02*
X106045000Y-71755000D01*
X90170000Y-70485000D02*
X91440000Y-71755000D01*
X83820000Y-70485000D02*
X90170000Y-70485000D01*
X113030000Y-62230000D02*
X113030000Y-60325000D01*
X113030000Y-60325000D02*
X111760000Y-59055000D01*
X193040000Y-93980000D02*
X205105000Y-93980000D01*
X193040000Y-83820000D02*
X205105000Y-83820000D01*
X193040000Y-71120000D02*
X205105000Y-71120000D01*
X193040000Y-60960000D02*
X205105000Y-60960000D01*
X193040000Y-50800000D02*
X205105000Y-50800000D01*
X226060000Y-121920000D02*
X226060000Y-124460000D01*
X205105000Y-118745000D02*
X222885000Y-118745000D01*
X222885000Y-118745000D02*
X226060000Y-121920000D01*
X179070000Y-118745000D02*
X184150000Y-118745000D01*
X184150000Y-118745000D02*
X205105000Y-118745000D01*
X214630000Y-86360000D02*
X218440000Y-86360000D01*
X214630000Y-81280000D02*
X218440000Y-81280000D01*
X214630000Y-58420000D02*
X218440000Y-58420000D01*
X214630000Y-53340000D02*
X218440002Y-53340000D01*
X161925000Y-122555000D02*
X119151396Y-122555000D01*
X94615000Y-121285000D02*
X117881396Y-121285000D01*
X117881396Y-121285000D02*
X118110006Y-121513610D01*
X119151396Y-122555000D02*
X118110006Y-121513610D01*
X167005000Y-124460000D02*
X119380000Y-124460000D01*
X119380000Y-124460000D02*
X117474992Y-122554992D01*
X117474992Y-122554992D02*
X97155000Y-122554992D01*
X214630000Y-88900000D02*
X217170000Y-88900000D01*
X214630000Y-83820000D02*
X217170000Y-83820000D01*
X214630000Y-55880000D02*
X217170000Y-55880000D01*
X214630000Y-60960000D02*
X217170000Y-60960000D01*
X111760000Y-118745000D02*
X111751870Y-118745000D01*
X179070000Y-118745000D02*
X111760000Y-118745000D01*
X102870000Y-106680000D02*
X102870000Y-107950000D01*
X102870000Y-107950000D02*
X103505000Y-108585000D01*
X103505000Y-108585000D02*
X103505000Y-118745000D01*
X81915000Y-118745000D02*
X103505000Y-118745000D01*
X103505000Y-118745000D02*
X111125000Y-118745000D01*
X111760000Y-118745000D02*
X111125000Y-118745000D01*
X142240000Y-88900000D02*
X191135000Y-88900000D01*
X140970000Y-87630000D02*
X142240000Y-88900000D01*
X125095000Y-87630000D02*
X140970000Y-87630000D01*
X124460000Y-86995000D02*
X125095000Y-87630000D01*
X121285000Y-86995000D02*
X124460000Y-86995000D01*
X120650000Y-87630000D02*
X121285000Y-86995000D01*
X126365000Y-86360000D02*
X190500000Y-86360000D01*
X125730000Y-85725000D02*
X126365000Y-86360000D01*
X119380000Y-85725000D02*
X125730000Y-85725000D01*
X116840000Y-88265000D02*
X119380000Y-85725000D01*
X162560000Y-81280000D02*
X190500000Y-81280000D01*
X160020000Y-78740000D02*
X162560000Y-81280000D01*
X145415000Y-78740000D02*
X160020000Y-78740000D01*
X143510000Y-76835000D02*
X145415000Y-78740000D01*
X158115000Y-99060000D02*
X190500000Y-99060000D01*
X143510000Y-97790000D02*
X156845000Y-97790000D01*
X142240000Y-96520000D02*
X143510000Y-97790000D01*
X123190000Y-96520000D02*
X142240000Y-96520000D01*
X121920000Y-95250000D02*
X123190000Y-96520000D01*
X156845000Y-97790000D02*
X158115000Y-99060000D01*
X124460000Y-92075000D02*
X122675710Y-92075000D01*
X121920000Y-92830710D02*
X121920000Y-95250000D01*
X122675710Y-92075000D02*
X121920000Y-92830710D01*
X125730000Y-90805000D02*
X124460000Y-92075000D01*
X125730000Y-95885000D02*
X124039999Y-94194999D01*
X142875000Y-95885000D02*
X125730000Y-95885000D01*
X143510000Y-96520000D02*
X142875000Y-95885000D01*
X124039999Y-94194999D02*
X123190000Y-93345000D01*
X190500000Y-96520000D02*
X143510000Y-96520000D01*
X189297919Y-91440000D02*
X190500000Y-91440000D01*
X143510000Y-91440000D02*
X189230000Y-91440000D01*
X140335000Y-88265000D02*
X143510000Y-91440000D01*
X124460000Y-88265000D02*
X140335000Y-88265000D01*
X123825000Y-87630000D02*
X124460000Y-88265000D01*
X122555000Y-87630000D02*
X123825000Y-87630000D01*
X121920000Y-88265000D02*
X122555000Y-87630000D01*
X121920000Y-92075000D02*
X121920000Y-88265000D01*
X120650000Y-93345000D02*
X121920000Y-92075000D01*
X162560000Y-55880000D02*
X190500000Y-55880000D01*
X132905500Y-57785000D02*
X131445000Y-57785000D01*
X138430000Y-62865000D02*
X139700000Y-61595000D01*
X131445000Y-62865000D02*
X138430000Y-62865000D01*
X139700000Y-61595000D02*
X156845000Y-61595000D01*
X156845000Y-61595000D02*
X162560000Y-55880000D01*
X130810000Y-58420000D02*
X130810000Y-62230000D01*
X131445000Y-57785000D02*
X130810000Y-58420000D01*
X130810000Y-62230000D02*
X131445000Y-62865000D01*
X134874000Y-53340000D02*
X134874000Y-53721000D01*
X133604000Y-54991000D02*
X133604000Y-57086500D01*
X133604000Y-57086500D02*
X132905500Y-57785000D01*
X134874000Y-53721000D02*
X133604000Y-54991000D01*
X162560000Y-53340000D02*
X190500000Y-53340000D01*
X157480000Y-58420000D02*
X162560000Y-53340000D01*
X138684000Y-56769000D02*
X140335000Y-58420000D01*
X138684000Y-54864000D02*
X138684000Y-56769000D01*
X137414000Y-53594000D02*
X138684000Y-54864000D01*
X140335000Y-58420000D02*
X157480000Y-58420000D01*
X137414000Y-53340000D02*
X137414000Y-53594000D01*
X183515000Y-48260000D02*
X190500000Y-48260000D01*
X182880000Y-48895000D02*
X183515000Y-48260000D01*
X147320000Y-48895000D02*
X182880000Y-48895000D01*
X144780000Y-51435000D02*
X147320000Y-48895000D01*
X132715000Y-51435000D02*
X144780000Y-51435000D01*
X132334000Y-51816000D02*
X132715000Y-51435000D01*
X132334000Y-53340000D02*
X132334000Y-51816000D01*
X158750000Y-69850000D02*
X162560000Y-66040000D01*
X130492500Y-69850000D02*
X158750000Y-69850000D01*
X128587500Y-71755000D02*
X130492500Y-69850000D01*
X115570000Y-75565000D02*
X119380000Y-71755000D01*
X105410000Y-75565000D02*
X115570000Y-75565000D01*
X119380000Y-71755000D02*
X128587500Y-71755000D01*
X100965000Y-80010000D02*
X105410000Y-75565000D01*
X87630000Y-80010000D02*
X100965000Y-80010000D01*
X162560000Y-66040000D02*
X190500000Y-66040000D01*
X157480000Y-68580000D02*
X162560000Y-63500000D01*
X114935000Y-74930000D02*
X121285000Y-68580000D01*
X104775000Y-74930000D02*
X114935000Y-74930000D01*
X100965000Y-78740000D02*
X104775000Y-74930000D01*
X121285000Y-68580000D02*
X157480000Y-68580000D01*
X88900000Y-78740000D02*
X100965000Y-78740000D01*
X162560000Y-63500000D02*
X190500000Y-63500000D01*
X154940000Y-66040000D02*
X162560000Y-58420000D01*
X118745000Y-66040000D02*
X154940000Y-66040000D01*
X112395000Y-72390000D02*
X118745000Y-66040000D01*
X89535000Y-72390000D02*
X112395000Y-72390000D01*
X88900000Y-71755000D02*
X89535000Y-72390000D01*
X162560000Y-58420000D02*
X183515000Y-58420000D01*
X183515000Y-58420000D02*
X190500000Y-58420000D01*
X182880000Y-58420000D02*
X183515000Y-58420000D01*
X162560000Y-76200000D02*
X190500000Y-76200000D01*
X161290000Y-74930000D02*
X162560000Y-76200000D01*
X86360000Y-96520000D02*
X88265000Y-96520000D01*
X142240000Y-74930000D02*
X161290000Y-74930000D01*
X88900000Y-89535000D02*
X90805000Y-87630000D01*
X139700000Y-77470000D02*
X142240000Y-74930000D01*
X88265000Y-96520000D02*
X88900000Y-95885000D01*
X90805000Y-87630000D02*
X109855000Y-87630000D01*
X85090000Y-97790000D02*
X86360000Y-96520000D01*
X120015000Y-77470000D02*
X139700000Y-77470000D01*
X109855000Y-87630000D02*
X120015000Y-77470000D01*
X88900000Y-95885000D02*
X88900000Y-89535000D01*
X85090000Y-99161600D02*
X85090000Y-97790000D01*
X182880000Y-73660000D02*
X190500000Y-73660000D01*
X140970000Y-73660000D02*
X182880000Y-73660000D01*
X138430000Y-76200000D02*
X140970000Y-73660000D01*
X118745000Y-76200000D02*
X138430000Y-76200000D01*
X107950000Y-86995000D02*
X118745000Y-76200000D01*
X90170000Y-86995000D02*
X107950000Y-86995000D01*
X88265000Y-88900000D02*
X90170000Y-86995000D01*
X86995000Y-88900000D02*
X88265000Y-88900000D01*
X86360000Y-89535000D02*
X86995000Y-88900000D01*
X86360000Y-95250000D02*
X86360000Y-89535000D01*
X83820000Y-97790000D02*
X86360000Y-95250000D01*
X83820000Y-99695000D02*
X83820000Y-97790000D01*
X84455000Y-100330000D02*
X83820000Y-99695000D01*
X85725000Y-100330000D02*
X84455000Y-100330000D01*
X86360000Y-99695000D02*
X85725000Y-100330000D01*
X86360000Y-97790000D02*
X86360000Y-99695000D01*
X86995000Y-97155000D02*
X86360000Y-97790000D01*
X88265000Y-97155000D02*
X86995000Y-97155000D01*
X90170000Y-99060000D02*
X88265000Y-97155000D01*
M02*
